G04 EAGLE Gerber X2 export*
%TF.Part,Single*%
%TF.FileFunction,Copper,L1,Top,Mixed*%
%TF.FilePolarity,Positive*%
%TF.GenerationSoftware,Autodesk,EAGLE,9.1.0*%
%TF.CreationDate,2018-10-24T11:47:27Z*%
G75*
%MOMM*%
%FSLAX34Y34*%
%LPD*%
%AMOC8*
5,1,8,0,0,1.08239X$1,22.5*%
G01*
%ADD10C,2.000000*%
%ADD11C,2.540000*%
%ADD12P,2.749271X8X202.500000*%

G36*
X234686Y10926D02*
X234686Y10926D01*
X234705Y10924D01*
X234807Y10946D01*
X234909Y10962D01*
X234926Y10972D01*
X234946Y10976D01*
X235035Y11029D01*
X235126Y11078D01*
X235140Y11092D01*
X235157Y11102D01*
X235224Y11181D01*
X235296Y11256D01*
X235304Y11274D01*
X235317Y11289D01*
X235356Y11385D01*
X235399Y11479D01*
X235401Y11499D01*
X235409Y11517D01*
X235427Y11684D01*
X235427Y11925D01*
X235439Y11950D01*
X235470Y11993D01*
X235491Y12060D01*
X235521Y12124D01*
X235533Y12197D01*
X235543Y12229D01*
X235542Y12251D01*
X235549Y12289D01*
X235770Y16230D01*
X235766Y16266D01*
X235769Y16291D01*
X235767Y16301D01*
X235769Y16328D01*
X235752Y16400D01*
X235744Y16475D01*
X235723Y16519D01*
X235712Y16567D01*
X235651Y16677D01*
X235641Y16698D01*
X235636Y16704D01*
X235631Y16714D01*
X235615Y16736D01*
X235882Y18308D01*
X235882Y18337D01*
X235891Y18393D01*
X235981Y19985D01*
X236001Y20003D01*
X236032Y20041D01*
X236070Y20073D01*
X236109Y20137D01*
X236156Y20195D01*
X236173Y20241D01*
X236199Y20282D01*
X236233Y20403D01*
X236241Y20425D01*
X236242Y20433D01*
X236245Y20444D01*
X236934Y24502D01*
X236935Y24551D01*
X236944Y24599D01*
X236940Y24635D01*
X236943Y24665D01*
X236935Y24700D01*
X236936Y24748D01*
X236920Y24795D01*
X236915Y24843D01*
X236893Y24894D01*
X236891Y24905D01*
X236884Y24917D01*
X236866Y24959D01*
X236859Y24982D01*
X236854Y24988D01*
X236850Y24998D01*
X236837Y25022D01*
X237278Y26555D01*
X237282Y26583D01*
X237297Y26638D01*
X237564Y28210D01*
X237587Y28226D01*
X237621Y28260D01*
X237662Y28287D01*
X237708Y28346D01*
X237762Y28399D01*
X237784Y28442D01*
X237814Y28481D01*
X237862Y28597D01*
X237872Y28618D01*
X237873Y28625D01*
X237878Y28636D01*
X239017Y32592D01*
X239023Y32640D01*
X239038Y32687D01*
X239038Y32762D01*
X239046Y32836D01*
X239036Y32884D01*
X239036Y32933D01*
X239001Y33054D01*
X238996Y33077D01*
X238992Y33083D01*
X238989Y33094D01*
X238979Y33120D01*
X239589Y34593D01*
X239596Y34621D01*
X239617Y34673D01*
X240059Y36205D01*
X240083Y36219D01*
X240121Y36249D01*
X240165Y36271D01*
X240217Y36325D01*
X240276Y36371D01*
X240303Y36412D01*
X240337Y36447D01*
X240398Y36557D01*
X240411Y36577D01*
X240412Y36584D01*
X240418Y36594D01*
X241993Y40397D01*
X242004Y40445D01*
X242025Y40489D01*
X242032Y40564D01*
X242049Y40637D01*
X242045Y40685D01*
X242050Y40734D01*
X242029Y40858D01*
X242026Y40882D01*
X242023Y40888D01*
X242021Y40899D01*
X242014Y40926D01*
X242785Y42322D01*
X242795Y42349D01*
X242822Y42399D01*
X243432Y43872D01*
X243458Y43882D01*
X243499Y43908D01*
X243545Y43925D01*
X243603Y43972D01*
X243667Y44012D01*
X243698Y44049D01*
X243736Y44080D01*
X243809Y44183D01*
X243824Y44201D01*
X243826Y44208D01*
X243833Y44217D01*
X245824Y47821D01*
X245841Y47867D01*
X245866Y47909D01*
X245882Y47982D01*
X245907Y48052D01*
X245908Y48101D01*
X245918Y48149D01*
X245912Y48259D01*
X245912Y48263D01*
X245911Y48268D01*
X245911Y48275D01*
X245911Y48298D01*
X245909Y48305D01*
X245909Y48316D01*
X245904Y48344D01*
X246827Y49644D01*
X246839Y49670D01*
X246872Y49716D01*
X247643Y51112D01*
X247670Y51120D01*
X247714Y51141D01*
X247762Y51152D01*
X247825Y51193D01*
X247892Y51225D01*
X247927Y51259D01*
X247968Y51285D01*
X248052Y51379D01*
X248069Y51396D01*
X248073Y51402D01*
X248080Y51411D01*
X250462Y54768D01*
X250484Y54812D01*
X250514Y54851D01*
X250538Y54922D01*
X250570Y54989D01*
X250577Y55038D01*
X250593Y55084D01*
X250599Y55209D01*
X250602Y55233D01*
X250601Y55240D01*
X250602Y55251D01*
X250600Y55279D01*
X251663Y56468D01*
X251678Y56493D01*
X251716Y56535D01*
X252638Y57835D01*
X252666Y57840D01*
X252712Y57856D01*
X252760Y57862D01*
X252827Y57895D01*
X252898Y57920D01*
X252937Y57949D01*
X252981Y57971D01*
X253075Y58055D01*
X253093Y58069D01*
X253098Y58076D01*
X253106Y58083D01*
X255849Y61153D01*
X255875Y61194D01*
X255909Y61229D01*
X255941Y61297D01*
X255981Y61360D01*
X255993Y61408D01*
X256014Y61452D01*
X256035Y61576D01*
X256040Y61599D01*
X256040Y61606D01*
X256042Y61617D01*
X256043Y61645D01*
X257232Y62707D01*
X257250Y62730D01*
X257293Y62768D01*
X258355Y63957D01*
X258383Y63958D01*
X258430Y63969D01*
X258479Y63970D01*
X258550Y63995D01*
X258623Y64012D01*
X258665Y64037D01*
X258711Y64053D01*
X258813Y64126D01*
X258833Y64139D01*
X258838Y64144D01*
X258847Y64151D01*
X261917Y66894D01*
X261948Y66932D01*
X261985Y66964D01*
X262024Y67027D01*
X262072Y67086D01*
X262089Y67131D01*
X262114Y67173D01*
X262149Y67294D01*
X262157Y67316D01*
X262157Y67323D01*
X262160Y67334D01*
X262165Y67362D01*
X263465Y68284D01*
X263486Y68304D01*
X263532Y68337D01*
X264721Y69400D01*
X264749Y69398D01*
X264797Y69404D01*
X264846Y69399D01*
X264919Y69417D01*
X264993Y69424D01*
X265038Y69445D01*
X265085Y69456D01*
X265195Y69517D01*
X265217Y69527D01*
X265222Y69532D01*
X265232Y69538D01*
X268589Y71920D01*
X268624Y71954D01*
X268665Y71981D01*
X268711Y72040D01*
X268764Y72093D01*
X268786Y72136D01*
X268817Y72175D01*
X268864Y72291D01*
X268875Y72312D01*
X268876Y72320D01*
X268880Y72330D01*
X268888Y72357D01*
X270284Y73128D01*
X270307Y73146D01*
X270356Y73173D01*
X271656Y74096D01*
X271684Y74091D01*
X271732Y74091D01*
X271780Y74081D01*
X271855Y74090D01*
X271930Y74090D01*
X271976Y74105D01*
X272024Y74111D01*
X272141Y74160D01*
X272163Y74167D01*
X272169Y74171D01*
X272179Y74176D01*
X275783Y76167D01*
X275821Y76197D01*
X275865Y76220D01*
X275917Y76273D01*
X275976Y76319D01*
X276003Y76360D01*
X276037Y76395D01*
X276097Y76505D01*
X276111Y76525D01*
X276112Y76532D01*
X276118Y76542D01*
X276128Y76568D01*
X277601Y77178D01*
X277626Y77193D01*
X277678Y77215D01*
X279074Y77986D01*
X279101Y77979D01*
X279149Y77973D01*
X279196Y77958D01*
X279271Y77958D01*
X279345Y77950D01*
X279393Y77960D01*
X279442Y77960D01*
X279562Y77995D01*
X279586Y78000D01*
X279592Y78004D01*
X279603Y78007D01*
X283406Y79582D01*
X283448Y79608D01*
X283494Y79625D01*
X283552Y79672D01*
X283615Y79712D01*
X283646Y79750D01*
X283684Y79780D01*
X283757Y79883D01*
X283772Y79901D01*
X283775Y79908D01*
X283781Y79917D01*
X283795Y79941D01*
X285327Y80383D01*
X285353Y80395D01*
X285407Y80411D01*
X286880Y81021D01*
X286906Y81011D01*
X286954Y81000D01*
X286998Y80979D01*
X287015Y80978D01*
X287019Y80976D01*
X287084Y80969D01*
X287145Y80955D01*
X287182Y80958D01*
X287185Y80958D01*
X287208Y80958D01*
X287243Y80954D01*
X287367Y80975D01*
X287390Y80978D01*
X287397Y80981D01*
X287408Y80983D01*
X291364Y82122D01*
X291408Y82143D01*
X291456Y82155D01*
X291519Y82196D01*
X291586Y82228D01*
X291622Y82262D01*
X291663Y82288D01*
X291746Y82382D01*
X291763Y82398D01*
X291767Y82405D01*
X291774Y82413D01*
X291790Y82436D01*
X293362Y82703D01*
X293390Y82712D01*
X293445Y82722D01*
X294978Y83163D01*
X295002Y83150D01*
X295048Y83134D01*
X295090Y83108D01*
X295163Y83092D01*
X295234Y83067D01*
X295282Y83066D01*
X295330Y83056D01*
X295456Y83063D01*
X295480Y83063D01*
X295486Y83065D01*
X295498Y83066D01*
X299556Y83755D01*
X299603Y83771D01*
X299651Y83778D01*
X299718Y83811D01*
X299789Y83835D01*
X299828Y83865D01*
X299872Y83887D01*
X299965Y83970D01*
X299984Y83985D01*
X299988Y83991D01*
X299997Y83999D01*
X300015Y84019D01*
X301607Y84109D01*
X301635Y84115D01*
X301692Y84118D01*
X303264Y84385D01*
X303286Y84369D01*
X303330Y84348D01*
X303369Y84318D01*
X303440Y84294D01*
X303507Y84261D01*
X303556Y84255D01*
X303602Y84239D01*
X303728Y84232D01*
X303751Y84229D01*
X303758Y84231D01*
X303770Y84230D01*
X307711Y84451D01*
X307779Y84467D01*
X307849Y84472D01*
X307898Y84493D01*
X307951Y84505D01*
X308011Y84541D01*
X308075Y84568D01*
X308081Y84573D01*
X309850Y84573D01*
X309866Y84575D01*
X309893Y84574D01*
X311665Y84673D01*
X311691Y84663D01*
X311736Y84634D01*
X311804Y84617D01*
X311869Y84591D01*
X311944Y84583D01*
X311975Y84575D01*
X311997Y84577D01*
X312036Y84573D01*
X358316Y84573D01*
X358336Y84576D01*
X358355Y84574D01*
X358457Y84596D01*
X358559Y84612D01*
X358576Y84622D01*
X358596Y84626D01*
X358685Y84679D01*
X358776Y84728D01*
X358790Y84742D01*
X358807Y84752D01*
X358874Y84831D01*
X358946Y84906D01*
X358954Y84924D01*
X358967Y84939D01*
X359006Y85035D01*
X359049Y85129D01*
X359051Y85149D01*
X359059Y85167D01*
X359077Y85334D01*
X359077Y384666D01*
X359074Y384686D01*
X359076Y384705D01*
X359054Y384807D01*
X359038Y384909D01*
X359028Y384926D01*
X359024Y384946D01*
X358971Y385035D01*
X358922Y385126D01*
X358908Y385140D01*
X358898Y385157D01*
X358819Y385224D01*
X358744Y385296D01*
X358726Y385304D01*
X358711Y385317D01*
X358615Y385356D01*
X358521Y385399D01*
X358501Y385401D01*
X358483Y385409D01*
X358316Y385427D01*
X312036Y385427D01*
X311967Y385416D01*
X311897Y385414D01*
X311846Y385396D01*
X311793Y385388D01*
X311731Y385355D01*
X311665Y385331D01*
X311660Y385327D01*
X309893Y385426D01*
X309877Y385424D01*
X309850Y385427D01*
X308075Y385427D01*
X308050Y385439D01*
X308007Y385470D01*
X307940Y385491D01*
X307876Y385521D01*
X307803Y385533D01*
X307772Y385543D01*
X307749Y385542D01*
X307711Y385549D01*
X303770Y385770D01*
X303721Y385765D01*
X303672Y385769D01*
X303600Y385752D01*
X303525Y385744D01*
X303481Y385724D01*
X303433Y385712D01*
X303323Y385651D01*
X303302Y385641D01*
X303296Y385636D01*
X303286Y385631D01*
X303264Y385615D01*
X301692Y385882D01*
X301663Y385882D01*
X301607Y385891D01*
X300015Y385981D01*
X299997Y386001D01*
X299959Y386032D01*
X299927Y386070D01*
X299863Y386109D01*
X299805Y386156D01*
X299759Y386173D01*
X299718Y386199D01*
X299597Y386233D01*
X299575Y386241D01*
X299567Y386242D01*
X299556Y386245D01*
X295498Y386934D01*
X295449Y386935D01*
X295401Y386944D01*
X295327Y386935D01*
X295252Y386936D01*
X295205Y386920D01*
X295157Y386915D01*
X295041Y386866D01*
X295018Y386859D01*
X295012Y386854D01*
X295002Y386850D01*
X294978Y386837D01*
X293445Y387278D01*
X293417Y387281D01*
X293362Y387297D01*
X291790Y387564D01*
X291774Y387587D01*
X291740Y387621D01*
X291713Y387662D01*
X291654Y387709D01*
X291601Y387762D01*
X291558Y387784D01*
X291519Y387814D01*
X291403Y387862D01*
X291382Y387872D01*
X291375Y387873D01*
X291364Y387878D01*
X287408Y389017D01*
X287360Y389023D01*
X287313Y389038D01*
X287238Y389038D01*
X287164Y389046D01*
X287116Y389036D01*
X287067Y389036D01*
X286946Y389001D01*
X286923Y388996D01*
X286917Y388992D01*
X286906Y388989D01*
X286880Y388979D01*
X285407Y389589D01*
X285379Y389596D01*
X285327Y389617D01*
X283795Y390059D01*
X283781Y390083D01*
X283751Y390121D01*
X283729Y390165D01*
X283675Y390217D01*
X283629Y390276D01*
X283588Y390303D01*
X283553Y390337D01*
X283443Y390398D01*
X283423Y390411D01*
X283416Y390412D01*
X283406Y390418D01*
X279603Y391993D01*
X279555Y392004D01*
X279511Y392025D01*
X279436Y392032D01*
X279363Y392049D01*
X279315Y392045D01*
X279266Y392050D01*
X279142Y392029D01*
X279118Y392026D01*
X279112Y392023D01*
X279101Y392021D01*
X279074Y392014D01*
X277678Y392785D01*
X277651Y392795D01*
X277601Y392822D01*
X276128Y393432D01*
X276118Y393458D01*
X276092Y393499D01*
X276075Y393545D01*
X276028Y393603D01*
X275988Y393667D01*
X275951Y393698D01*
X275920Y393736D01*
X275817Y393809D01*
X275799Y393824D01*
X275792Y393826D01*
X275783Y393833D01*
X272179Y395824D01*
X272133Y395841D01*
X272091Y395866D01*
X272018Y395882D01*
X271948Y395907D01*
X271899Y395908D01*
X271851Y395918D01*
X271725Y395911D01*
X271702Y395911D01*
X271695Y395909D01*
X271684Y395909D01*
X271656Y395904D01*
X270356Y396827D01*
X270330Y396839D01*
X270284Y396872D01*
X268888Y397643D01*
X268880Y397670D01*
X268859Y397714D01*
X268848Y397762D01*
X268807Y397825D01*
X268775Y397892D01*
X268741Y397927D01*
X268715Y397968D01*
X268621Y398052D01*
X268604Y398069D01*
X268598Y398073D01*
X268589Y398080D01*
X265232Y400462D01*
X265188Y400484D01*
X265149Y400514D01*
X265078Y400538D01*
X265011Y400570D01*
X264962Y400577D01*
X264916Y400593D01*
X264791Y400599D01*
X264767Y400602D01*
X264760Y400601D01*
X264749Y400602D01*
X264721Y400600D01*
X263532Y401663D01*
X263507Y401678D01*
X263465Y401716D01*
X262165Y402638D01*
X262160Y402666D01*
X262144Y402712D01*
X262138Y402760D01*
X262105Y402827D01*
X262080Y402898D01*
X262051Y402937D01*
X262029Y402981D01*
X261945Y403075D01*
X261931Y403093D01*
X261924Y403098D01*
X261917Y403106D01*
X258847Y405849D01*
X258806Y405875D01*
X258771Y405909D01*
X258703Y405941D01*
X258640Y405981D01*
X258592Y405993D01*
X258548Y406014D01*
X258424Y406035D01*
X258401Y406040D01*
X258394Y406040D01*
X258383Y406042D01*
X258355Y406043D01*
X257293Y407232D01*
X257270Y407250D01*
X257232Y407293D01*
X256043Y408355D01*
X256042Y408383D01*
X256031Y408430D01*
X256030Y408479D01*
X256005Y408550D01*
X255988Y408623D01*
X255963Y408665D01*
X255947Y408711D01*
X255874Y408813D01*
X255861Y408833D01*
X255856Y408838D01*
X255849Y408847D01*
X253106Y411917D01*
X253068Y411948D01*
X253036Y411985D01*
X252973Y412024D01*
X252914Y412072D01*
X252869Y412089D01*
X252827Y412114D01*
X252706Y412149D01*
X252684Y412157D01*
X252677Y412157D01*
X252666Y412160D01*
X252638Y412165D01*
X251716Y413465D01*
X251696Y413486D01*
X251663Y413532D01*
X250600Y414721D01*
X250602Y414749D01*
X250596Y414797D01*
X250601Y414846D01*
X250583Y414919D01*
X250576Y414993D01*
X250555Y415038D01*
X250544Y415085D01*
X250483Y415195D01*
X250473Y415217D01*
X250468Y415222D01*
X250462Y415232D01*
X248080Y418589D01*
X248046Y418624D01*
X248019Y418665D01*
X247960Y418711D01*
X247907Y418764D01*
X247863Y418786D01*
X247825Y418817D01*
X247709Y418864D01*
X247687Y418875D01*
X247680Y418876D01*
X247670Y418880D01*
X247643Y418888D01*
X246872Y420284D01*
X246854Y420306D01*
X246827Y420356D01*
X245904Y421656D01*
X245909Y421684D01*
X245909Y421732D01*
X245919Y421780D01*
X245910Y421855D01*
X245910Y421930D01*
X245895Y421976D01*
X245889Y422025D01*
X245840Y422141D01*
X245833Y422163D01*
X245829Y422169D01*
X245824Y422179D01*
X243833Y425783D01*
X243803Y425821D01*
X243780Y425865D01*
X243727Y425917D01*
X243681Y425976D01*
X243640Y426003D01*
X243605Y426037D01*
X243495Y426097D01*
X243475Y426111D01*
X243468Y426112D01*
X243458Y426118D01*
X243432Y426128D01*
X242822Y427601D01*
X242807Y427626D01*
X242785Y427678D01*
X242014Y429074D01*
X242021Y429101D01*
X242027Y429149D01*
X242042Y429196D01*
X242042Y429271D01*
X242050Y429345D01*
X242040Y429393D01*
X242040Y429442D01*
X242005Y429562D01*
X242000Y429586D01*
X241996Y429592D01*
X241993Y429603D01*
X240418Y433406D01*
X240392Y433448D01*
X240375Y433494D01*
X240328Y433552D01*
X240288Y433615D01*
X240250Y433646D01*
X240220Y433684D01*
X240117Y433757D01*
X240099Y433772D01*
X240092Y433775D01*
X240083Y433781D01*
X240059Y433795D01*
X239617Y435327D01*
X239605Y435353D01*
X239589Y435407D01*
X238979Y436880D01*
X238989Y436906D01*
X239000Y436954D01*
X239021Y436998D01*
X239028Y437073D01*
X239045Y437145D01*
X239041Y437194D01*
X239046Y437243D01*
X239025Y437367D01*
X239022Y437390D01*
X239019Y437397D01*
X239017Y437408D01*
X237878Y441364D01*
X237857Y441408D01*
X237845Y441456D01*
X237805Y441519D01*
X237772Y441586D01*
X237738Y441622D01*
X237712Y441663D01*
X237618Y441746D01*
X237602Y441763D01*
X237595Y441767D01*
X237587Y441774D01*
X237564Y441790D01*
X237297Y443362D01*
X237288Y443390D01*
X237278Y443445D01*
X236837Y444978D01*
X236850Y445002D01*
X236866Y445048D01*
X236892Y445090D01*
X236908Y445163D01*
X236933Y445234D01*
X236934Y445283D01*
X236944Y445330D01*
X236937Y445455D01*
X236937Y445479D01*
X236935Y445487D01*
X236934Y445498D01*
X236245Y449556D01*
X236229Y449603D01*
X236222Y449651D01*
X236189Y449718D01*
X236165Y449789D01*
X236135Y449828D01*
X236113Y449872D01*
X236030Y449965D01*
X236015Y449984D01*
X236009Y449988D01*
X236001Y449997D01*
X235981Y450015D01*
X235891Y451607D01*
X235885Y451635D01*
X235882Y451692D01*
X235615Y453264D01*
X235631Y453286D01*
X235652Y453330D01*
X235682Y453369D01*
X235706Y453440D01*
X235739Y453507D01*
X235745Y453556D01*
X235761Y453602D01*
X235768Y453727D01*
X235771Y453751D01*
X235769Y453758D01*
X235770Y453770D01*
X235549Y457711D01*
X235533Y457779D01*
X235528Y457849D01*
X235507Y457898D01*
X235495Y457951D01*
X235459Y458011D01*
X235432Y458075D01*
X235427Y458081D01*
X235427Y458316D01*
X235424Y458336D01*
X235426Y458355D01*
X235404Y458457D01*
X235388Y458559D01*
X235378Y458576D01*
X235374Y458596D01*
X235321Y458685D01*
X235272Y458776D01*
X235258Y458790D01*
X235248Y458807D01*
X235169Y458874D01*
X235094Y458946D01*
X235076Y458954D01*
X235061Y458967D01*
X234965Y459006D01*
X234871Y459049D01*
X234851Y459051D01*
X234833Y459059D01*
X234666Y459077D01*
X135334Y459077D01*
X135314Y459074D01*
X135295Y459076D01*
X135193Y459054D01*
X135091Y459038D01*
X135074Y459028D01*
X135054Y459024D01*
X134965Y458971D01*
X134874Y458922D01*
X134860Y458908D01*
X134843Y458898D01*
X134776Y458819D01*
X134704Y458744D01*
X134696Y458726D01*
X134683Y458711D01*
X134644Y458615D01*
X134601Y458521D01*
X134599Y458501D01*
X134591Y458483D01*
X134573Y458316D01*
X134573Y458075D01*
X134561Y458050D01*
X134530Y458007D01*
X134509Y457940D01*
X134479Y457876D01*
X134467Y457803D01*
X134457Y457772D01*
X134458Y457749D01*
X134451Y457711D01*
X134230Y453770D01*
X134235Y453721D01*
X134231Y453672D01*
X134248Y453600D01*
X134256Y453525D01*
X134276Y453481D01*
X134288Y453433D01*
X134349Y453323D01*
X134359Y453302D01*
X134364Y453296D01*
X134369Y453286D01*
X134385Y453264D01*
X134118Y451692D01*
X134118Y451663D01*
X134109Y451607D01*
X134019Y450015D01*
X133999Y449997D01*
X133968Y449959D01*
X133930Y449927D01*
X133891Y449863D01*
X133844Y449805D01*
X133827Y449759D01*
X133801Y449718D01*
X133773Y449618D01*
X133768Y449608D01*
X133767Y449598D01*
X133767Y449597D01*
X133759Y449575D01*
X133758Y449567D01*
X133755Y449556D01*
X133066Y445498D01*
X133065Y445449D01*
X133056Y445401D01*
X133065Y445327D01*
X133064Y445252D01*
X133080Y445205D01*
X133085Y445157D01*
X133134Y445041D01*
X133141Y445018D01*
X133146Y445012D01*
X133150Y445002D01*
X133163Y444978D01*
X132722Y443445D01*
X132718Y443417D01*
X132703Y443362D01*
X132436Y441790D01*
X132413Y441774D01*
X132379Y441740D01*
X132338Y441713D01*
X132291Y441654D01*
X132238Y441601D01*
X132216Y441558D01*
X132186Y441519D01*
X132138Y441403D01*
X132128Y441382D01*
X132127Y441375D01*
X132122Y441364D01*
X130983Y437408D01*
X130977Y437360D01*
X130962Y437313D01*
X130962Y437238D01*
X130954Y437164D01*
X130964Y437116D01*
X130964Y437067D01*
X130999Y436946D01*
X131004Y436923D01*
X131008Y436917D01*
X131011Y436906D01*
X131021Y436880D01*
X130411Y435407D01*
X130404Y435379D01*
X130383Y435327D01*
X129941Y433795D01*
X129917Y433781D01*
X129879Y433751D01*
X129835Y433729D01*
X129783Y433675D01*
X129724Y433629D01*
X129697Y433588D01*
X129663Y433553D01*
X129602Y433443D01*
X129589Y433423D01*
X129588Y433416D01*
X129582Y433406D01*
X128007Y429603D01*
X127996Y429555D01*
X127975Y429511D01*
X127968Y429436D01*
X127951Y429363D01*
X127955Y429315D01*
X127950Y429266D01*
X127971Y429142D01*
X127974Y429118D01*
X127977Y429112D01*
X127979Y429101D01*
X127986Y429074D01*
X127215Y427678D01*
X127205Y427651D01*
X127178Y427601D01*
X126568Y426128D01*
X126542Y426118D01*
X126501Y426092D01*
X126455Y426075D01*
X126397Y426028D01*
X126333Y425988D01*
X126302Y425951D01*
X126264Y425920D01*
X126192Y425817D01*
X126176Y425799D01*
X126174Y425792D01*
X126167Y425783D01*
X124176Y422179D01*
X124159Y422133D01*
X124134Y422091D01*
X124118Y422018D01*
X124093Y421948D01*
X124092Y421899D01*
X124082Y421851D01*
X124089Y421725D01*
X124089Y421702D01*
X124091Y421695D01*
X124091Y421684D01*
X124096Y421656D01*
X123173Y420356D01*
X123161Y420330D01*
X123128Y420284D01*
X122357Y418888D01*
X122330Y418880D01*
X122286Y418859D01*
X122238Y418848D01*
X122175Y418807D01*
X122108Y418775D01*
X122073Y418741D01*
X122032Y418715D01*
X121948Y418621D01*
X121931Y418604D01*
X121927Y418598D01*
X121920Y418589D01*
X119538Y415232D01*
X119516Y415188D01*
X119486Y415149D01*
X119462Y415078D01*
X119430Y415011D01*
X119423Y414962D01*
X119407Y414916D01*
X119401Y414790D01*
X119398Y414767D01*
X119399Y414760D01*
X119398Y414749D01*
X119400Y414721D01*
X118337Y413532D01*
X118322Y413507D01*
X118284Y413465D01*
X117362Y412165D01*
X117334Y412160D01*
X117288Y412144D01*
X117240Y412138D01*
X117173Y412105D01*
X117102Y412080D01*
X117063Y412051D01*
X117019Y412029D01*
X116925Y411945D01*
X116907Y411931D01*
X116902Y411924D01*
X116894Y411917D01*
X114151Y408847D01*
X114125Y408806D01*
X114091Y408771D01*
X114059Y408703D01*
X114019Y408640D01*
X114007Y408592D01*
X113986Y408548D01*
X113965Y408424D01*
X113960Y408401D01*
X113960Y408394D01*
X113958Y408383D01*
X113957Y408355D01*
X112768Y407293D01*
X112750Y407270D01*
X112707Y407232D01*
X111645Y406043D01*
X111617Y406042D01*
X111570Y406031D01*
X111521Y406030D01*
X111450Y406005D01*
X111377Y405988D01*
X111335Y405963D01*
X111289Y405947D01*
X111187Y405874D01*
X111167Y405861D01*
X111162Y405856D01*
X111153Y405849D01*
X108083Y403106D01*
X108052Y403068D01*
X108015Y403036D01*
X107976Y402973D01*
X107928Y402914D01*
X107911Y402869D01*
X107886Y402827D01*
X107851Y402706D01*
X107843Y402684D01*
X107843Y402677D01*
X107840Y402666D01*
X107835Y402638D01*
X106535Y401716D01*
X106514Y401696D01*
X106468Y401663D01*
X105279Y400600D01*
X105251Y400602D01*
X105203Y400596D01*
X105154Y400601D01*
X105081Y400583D01*
X105007Y400576D01*
X104962Y400555D01*
X104915Y400544D01*
X104805Y400483D01*
X104783Y400473D01*
X104778Y400468D01*
X104768Y400462D01*
X101411Y398080D01*
X101376Y398046D01*
X101335Y398019D01*
X101289Y397960D01*
X101236Y397907D01*
X101214Y397864D01*
X101183Y397825D01*
X101136Y397709D01*
X101125Y397688D01*
X101124Y397680D01*
X101120Y397670D01*
X101112Y397643D01*
X99716Y396872D01*
X99693Y396854D01*
X99644Y396827D01*
X98344Y395904D01*
X98316Y395909D01*
X98267Y395909D01*
X98220Y395919D01*
X98145Y395910D01*
X98070Y395910D01*
X98024Y395895D01*
X97975Y395889D01*
X97859Y395841D01*
X97837Y395833D01*
X97831Y395829D01*
X97821Y395824D01*
X94217Y393833D01*
X94179Y393803D01*
X94135Y393780D01*
X94083Y393727D01*
X94024Y393681D01*
X93997Y393640D01*
X93963Y393605D01*
X93902Y393495D01*
X93889Y393475D01*
X93888Y393468D01*
X93882Y393458D01*
X93872Y393432D01*
X92399Y392822D01*
X92374Y392807D01*
X92322Y392785D01*
X90926Y392014D01*
X90899Y392021D01*
X90851Y392027D01*
X90804Y392042D01*
X90729Y392042D01*
X90655Y392050D01*
X90607Y392040D01*
X90558Y392040D01*
X90438Y392005D01*
X90414Y392000D01*
X90408Y391996D01*
X90397Y391993D01*
X86594Y390418D01*
X86552Y390392D01*
X86506Y390375D01*
X86448Y390328D01*
X86385Y390288D01*
X86354Y390250D01*
X86316Y390220D01*
X86243Y390117D01*
X86228Y390099D01*
X86225Y390092D01*
X86219Y390083D01*
X86205Y390059D01*
X84673Y389617D01*
X84647Y389605D01*
X84593Y389589D01*
X83120Y388979D01*
X83094Y388989D01*
X83046Y389000D01*
X83002Y389021D01*
X82927Y389028D01*
X82855Y389045D01*
X82806Y389041D01*
X82757Y389046D01*
X82633Y389025D01*
X82610Y389022D01*
X82603Y389019D01*
X82592Y389017D01*
X78636Y387878D01*
X78592Y387857D01*
X78544Y387845D01*
X78481Y387805D01*
X78414Y387772D01*
X78378Y387738D01*
X78337Y387712D01*
X78254Y387618D01*
X78237Y387602D01*
X78233Y387595D01*
X78226Y387587D01*
X78210Y387564D01*
X76638Y387297D01*
X76610Y387288D01*
X76555Y387278D01*
X75022Y386837D01*
X74998Y386850D01*
X74952Y386866D01*
X74910Y386892D01*
X74837Y386908D01*
X74766Y386933D01*
X74717Y386934D01*
X74670Y386944D01*
X74545Y386937D01*
X74521Y386937D01*
X74513Y386935D01*
X74502Y386934D01*
X70444Y386245D01*
X70397Y386229D01*
X70349Y386222D01*
X70282Y386189D01*
X70211Y386165D01*
X70172Y386135D01*
X70128Y386113D01*
X70035Y386030D01*
X70016Y386015D01*
X70012Y386009D01*
X70003Y386001D01*
X69985Y385981D01*
X68393Y385891D01*
X68365Y385885D01*
X68308Y385882D01*
X66736Y385615D01*
X66714Y385631D01*
X66670Y385652D01*
X66631Y385682D01*
X66560Y385706D01*
X66493Y385739D01*
X66444Y385745D01*
X66398Y385761D01*
X66272Y385768D01*
X66249Y385771D01*
X66242Y385769D01*
X66230Y385770D01*
X62289Y385549D01*
X62221Y385533D01*
X62151Y385528D01*
X62102Y385507D01*
X62049Y385495D01*
X61989Y385459D01*
X61925Y385432D01*
X61919Y385427D01*
X60150Y385427D01*
X60134Y385425D01*
X60107Y385426D01*
X58335Y385327D01*
X58309Y385337D01*
X58264Y385366D01*
X58196Y385383D01*
X58131Y385409D01*
X58056Y385417D01*
X58025Y385425D01*
X58003Y385423D01*
X57964Y385427D01*
X11684Y385427D01*
X11664Y385424D01*
X11645Y385426D01*
X11543Y385404D01*
X11441Y385388D01*
X11424Y385378D01*
X11404Y385374D01*
X11315Y385321D01*
X11224Y385272D01*
X11210Y385258D01*
X11193Y385248D01*
X11126Y385169D01*
X11054Y385094D01*
X11046Y385076D01*
X11033Y385061D01*
X10994Y384965D01*
X10951Y384871D01*
X10949Y384851D01*
X10941Y384833D01*
X10923Y384666D01*
X10923Y85334D01*
X10926Y85314D01*
X10924Y85295D01*
X10946Y85193D01*
X10962Y85091D01*
X10972Y85074D01*
X10976Y85054D01*
X11029Y84965D01*
X11078Y84874D01*
X11092Y84860D01*
X11102Y84843D01*
X11181Y84776D01*
X11256Y84704D01*
X11274Y84696D01*
X11289Y84683D01*
X11385Y84644D01*
X11479Y84601D01*
X11499Y84599D01*
X11517Y84591D01*
X11684Y84573D01*
X57964Y84573D01*
X58033Y84584D01*
X58103Y84586D01*
X58154Y84604D01*
X58207Y84612D01*
X58269Y84645D01*
X58335Y84669D01*
X58340Y84673D01*
X60107Y84574D01*
X60123Y84576D01*
X60150Y84573D01*
X61925Y84573D01*
X61950Y84561D01*
X61993Y84530D01*
X62060Y84509D01*
X62124Y84479D01*
X62197Y84467D01*
X62228Y84457D01*
X62251Y84458D01*
X62289Y84451D01*
X66230Y84230D01*
X66279Y84235D01*
X66328Y84231D01*
X66400Y84248D01*
X66475Y84256D01*
X66519Y84276D01*
X66567Y84288D01*
X66677Y84349D01*
X66698Y84359D01*
X66704Y84364D01*
X66714Y84369D01*
X66736Y84385D01*
X68308Y84118D01*
X68337Y84118D01*
X68393Y84109D01*
X69985Y84019D01*
X70003Y83999D01*
X70041Y83968D01*
X70073Y83930D01*
X70137Y83891D01*
X70195Y83844D01*
X70241Y83827D01*
X70282Y83801D01*
X70403Y83767D01*
X70425Y83759D01*
X70433Y83758D01*
X70444Y83755D01*
X74502Y83066D01*
X74551Y83065D01*
X74599Y83056D01*
X74673Y83065D01*
X74748Y83064D01*
X74795Y83080D01*
X74843Y83085D01*
X74959Y83134D01*
X74982Y83141D01*
X74988Y83146D01*
X74998Y83150D01*
X75022Y83163D01*
X76555Y82722D01*
X76583Y82718D01*
X76638Y82703D01*
X78210Y82436D01*
X78226Y82413D01*
X78260Y82379D01*
X78287Y82338D01*
X78346Y82292D01*
X78399Y82238D01*
X78442Y82216D01*
X78481Y82186D01*
X78597Y82138D01*
X78618Y82128D01*
X78625Y82127D01*
X78636Y82122D01*
X82592Y80983D01*
X82608Y80981D01*
X82619Y80976D01*
X82654Y80972D01*
X82687Y80962D01*
X82745Y80962D01*
X82786Y80958D01*
X82801Y80958D01*
X82836Y80954D01*
X82884Y80964D01*
X82933Y80964D01*
X83037Y80994D01*
X83057Y80997D01*
X83065Y81001D01*
X83077Y81004D01*
X83083Y81008D01*
X83094Y81011D01*
X83120Y81021D01*
X84593Y80411D01*
X84621Y80404D01*
X84673Y80383D01*
X86205Y79941D01*
X86219Y79917D01*
X86249Y79879D01*
X86271Y79835D01*
X86325Y79783D01*
X86371Y79724D01*
X86412Y79697D01*
X86447Y79663D01*
X86557Y79602D01*
X86577Y79589D01*
X86584Y79588D01*
X86594Y79582D01*
X90397Y78007D01*
X90445Y77996D01*
X90489Y77975D01*
X90564Y77968D01*
X90637Y77951D01*
X90685Y77955D01*
X90734Y77950D01*
X90858Y77971D01*
X90882Y77974D01*
X90888Y77977D01*
X90899Y77979D01*
X90926Y77986D01*
X92322Y77215D01*
X92349Y77205D01*
X92399Y77178D01*
X93872Y76568D01*
X93882Y76542D01*
X93908Y76501D01*
X93925Y76455D01*
X93972Y76397D01*
X94012Y76333D01*
X94049Y76302D01*
X94080Y76264D01*
X94183Y76192D01*
X94201Y76176D01*
X94208Y76174D01*
X94217Y76167D01*
X97821Y74176D01*
X97867Y74159D01*
X97909Y74134D01*
X97982Y74118D01*
X98052Y74093D01*
X98101Y74092D01*
X98149Y74082D01*
X98275Y74089D01*
X98298Y74089D01*
X98305Y74091D01*
X98316Y74091D01*
X98344Y74096D01*
X99644Y73173D01*
X99670Y73161D01*
X99716Y73128D01*
X101112Y72357D01*
X101120Y72330D01*
X101130Y72309D01*
X101131Y72304D01*
X101136Y72295D01*
X101141Y72286D01*
X101152Y72238D01*
X101193Y72175D01*
X101225Y72108D01*
X101259Y72073D01*
X101285Y72032D01*
X101379Y71948D01*
X101396Y71931D01*
X101402Y71927D01*
X101411Y71920D01*
X104768Y69538D01*
X104812Y69516D01*
X104851Y69486D01*
X104922Y69462D01*
X104989Y69430D01*
X105038Y69423D01*
X105084Y69407D01*
X105209Y69401D01*
X105233Y69398D01*
X105240Y69399D01*
X105251Y69398D01*
X105279Y69400D01*
X106468Y68337D01*
X106493Y68322D01*
X106535Y68284D01*
X107835Y67362D01*
X107840Y67334D01*
X107856Y67288D01*
X107862Y67240D01*
X107895Y67173D01*
X107920Y67102D01*
X107949Y67063D01*
X107971Y67019D01*
X108055Y66925D01*
X108069Y66907D01*
X108076Y66902D01*
X108083Y66894D01*
X111153Y64151D01*
X111194Y64125D01*
X111229Y64091D01*
X111297Y64059D01*
X111360Y64019D01*
X111408Y64007D01*
X111452Y63986D01*
X111576Y63965D01*
X111599Y63960D01*
X111606Y63960D01*
X111617Y63958D01*
X111645Y63957D01*
X112707Y62768D01*
X112730Y62750D01*
X112768Y62707D01*
X113957Y61645D01*
X113958Y61617D01*
X113969Y61570D01*
X113970Y61521D01*
X113995Y61450D01*
X114012Y61377D01*
X114037Y61335D01*
X114053Y61289D01*
X114126Y61187D01*
X114139Y61167D01*
X114144Y61162D01*
X114151Y61153D01*
X116894Y58083D01*
X116932Y58052D01*
X116964Y58015D01*
X117027Y57976D01*
X117086Y57928D01*
X117131Y57911D01*
X117173Y57886D01*
X117294Y57851D01*
X117316Y57843D01*
X117323Y57843D01*
X117334Y57840D01*
X117362Y57835D01*
X118284Y56535D01*
X118304Y56514D01*
X118337Y56468D01*
X119400Y55279D01*
X119398Y55251D01*
X119404Y55203D01*
X119399Y55154D01*
X119417Y55081D01*
X119424Y55007D01*
X119445Y54962D01*
X119456Y54915D01*
X119517Y54805D01*
X119527Y54783D01*
X119532Y54778D01*
X119538Y54768D01*
X121920Y51411D01*
X121954Y51376D01*
X121981Y51335D01*
X122040Y51289D01*
X122093Y51236D01*
X122136Y51214D01*
X122175Y51183D01*
X122291Y51136D01*
X122312Y51125D01*
X122320Y51124D01*
X122330Y51120D01*
X122357Y51112D01*
X123128Y49716D01*
X123146Y49693D01*
X123173Y49644D01*
X124096Y48344D01*
X124091Y48316D01*
X124091Y48268D01*
X124081Y48220D01*
X124090Y48145D01*
X124090Y48070D01*
X124105Y48024D01*
X124111Y47976D01*
X124159Y47860D01*
X124167Y47837D01*
X124171Y47831D01*
X124176Y47821D01*
X126167Y44217D01*
X126197Y44179D01*
X126220Y44135D01*
X126273Y44083D01*
X126319Y44024D01*
X126360Y43997D01*
X126395Y43963D01*
X126505Y43903D01*
X126525Y43889D01*
X126532Y43888D01*
X126542Y43882D01*
X126568Y43872D01*
X127178Y42399D01*
X127193Y42374D01*
X127215Y42322D01*
X127986Y40926D01*
X127979Y40899D01*
X127973Y40851D01*
X127958Y40804D01*
X127958Y40729D01*
X127950Y40655D01*
X127960Y40607D01*
X127960Y40558D01*
X127995Y40438D01*
X128000Y40414D01*
X128004Y40408D01*
X128007Y40397D01*
X129582Y36594D01*
X129608Y36552D01*
X129625Y36506D01*
X129672Y36448D01*
X129712Y36385D01*
X129750Y36354D01*
X129780Y36316D01*
X129883Y36243D01*
X129901Y36228D01*
X129908Y36225D01*
X129917Y36219D01*
X129941Y36205D01*
X130383Y34673D01*
X130395Y34647D01*
X130411Y34593D01*
X131021Y33120D01*
X131011Y33094D01*
X131000Y33046D01*
X130979Y33002D01*
X130972Y32927D01*
X130955Y32855D01*
X130959Y32806D01*
X130954Y32757D01*
X130975Y32633D01*
X130978Y32610D01*
X130981Y32603D01*
X130983Y32592D01*
X132122Y28636D01*
X132143Y28592D01*
X132155Y28544D01*
X132196Y28481D01*
X132228Y28414D01*
X132262Y28378D01*
X132288Y28337D01*
X132382Y28254D01*
X132398Y28237D01*
X132405Y28233D01*
X132413Y28226D01*
X132436Y28210D01*
X132703Y26638D01*
X132712Y26610D01*
X132722Y26555D01*
X133163Y25022D01*
X133150Y24998D01*
X133134Y24952D01*
X133108Y24910D01*
X133097Y24859D01*
X133084Y24830D01*
X133081Y24805D01*
X133067Y24766D01*
X133066Y24718D01*
X133056Y24670D01*
X133060Y24610D01*
X133057Y24586D01*
X133062Y24560D01*
X133063Y24544D01*
X133063Y24520D01*
X133065Y24514D01*
X133066Y24502D01*
X133755Y20444D01*
X133771Y20397D01*
X133778Y20349D01*
X133811Y20282D01*
X133835Y20211D01*
X133865Y20172D01*
X133887Y20128D01*
X133970Y20035D01*
X133985Y20016D01*
X133991Y20012D01*
X133999Y20003D01*
X134019Y19985D01*
X134109Y18393D01*
X134115Y18365D01*
X134118Y18308D01*
X134385Y16736D01*
X134369Y16714D01*
X134348Y16670D01*
X134318Y16631D01*
X134294Y16560D01*
X134261Y16493D01*
X134255Y16444D01*
X134239Y16398D01*
X134232Y16272D01*
X134229Y16249D01*
X134231Y16242D01*
X134230Y16230D01*
X134451Y12289D01*
X134467Y12221D01*
X134472Y12151D01*
X134493Y12102D01*
X134505Y12049D01*
X134541Y11989D01*
X134568Y11925D01*
X134573Y11919D01*
X134573Y11684D01*
X134576Y11664D01*
X134574Y11645D01*
X134596Y11543D01*
X134612Y11441D01*
X134622Y11424D01*
X134626Y11404D01*
X134679Y11315D01*
X134728Y11224D01*
X134742Y11210D01*
X134752Y11193D01*
X134831Y11126D01*
X134906Y11054D01*
X134924Y11046D01*
X134939Y11033D01*
X135035Y10994D01*
X135129Y10951D01*
X135149Y10949D01*
X135167Y10941D01*
X135334Y10923D01*
X234666Y10923D01*
X234686Y10926D01*
G37*
%LPC*%
G36*
X152761Y105989D02*
X152761Y105989D01*
X143089Y115661D01*
X143089Y129339D01*
X152761Y139011D01*
X166439Y139011D01*
X176111Y129339D01*
X176111Y115661D01*
X166439Y105989D01*
X152761Y105989D01*
G37*
%LPD*%
%LPC*%
G36*
X307503Y96300D02*
X307503Y96300D01*
X302427Y98403D01*
X298542Y102288D01*
X296439Y107364D01*
X296439Y112858D01*
X298542Y117934D01*
X302427Y121819D01*
X307503Y123922D01*
X312997Y123922D01*
X318073Y121819D01*
X321958Y117934D01*
X324061Y112858D01*
X324061Y107364D01*
X321958Y102288D01*
X318073Y98403D01*
X312997Y96300D01*
X307503Y96300D01*
G37*
%LPD*%
%LPC*%
G36*
X307503Y299500D02*
X307503Y299500D01*
X302427Y301603D01*
X298542Y305488D01*
X296439Y310564D01*
X296439Y316058D01*
X298542Y321134D01*
X302427Y325019D01*
X307503Y327122D01*
X312997Y327122D01*
X318073Y325019D01*
X321958Y321134D01*
X324061Y316058D01*
X324061Y310564D01*
X321958Y305488D01*
X318073Y301603D01*
X312997Y299500D01*
X307503Y299500D01*
G37*
%LPD*%
%LPC*%
G36*
X57003Y347378D02*
X57003Y347378D01*
X51927Y349481D01*
X48042Y353366D01*
X45939Y358442D01*
X45939Y363936D01*
X48042Y369012D01*
X51927Y372897D01*
X57003Y375000D01*
X62497Y375000D01*
X67573Y372897D01*
X71458Y369012D01*
X73561Y363936D01*
X73561Y358442D01*
X71458Y353366D01*
X67573Y349481D01*
X62497Y347378D01*
X57003Y347378D01*
G37*
%LPD*%
%LPC*%
G36*
X57003Y245778D02*
X57003Y245778D01*
X51927Y247881D01*
X48042Y251766D01*
X45939Y256842D01*
X45939Y262336D01*
X48042Y267412D01*
X51927Y271297D01*
X57003Y273400D01*
X62497Y273400D01*
X67573Y271297D01*
X71458Y267412D01*
X73561Y262336D01*
X73561Y256842D01*
X71458Y251766D01*
X67573Y247881D01*
X62497Y245778D01*
X57003Y245778D01*
G37*
%LPD*%
%LPC*%
G36*
X157064Y48439D02*
X157064Y48439D01*
X151988Y50542D01*
X148103Y54427D01*
X146000Y59503D01*
X146000Y64997D01*
X148103Y70073D01*
X151988Y73958D01*
X157064Y76061D01*
X162558Y76061D01*
X167634Y73958D01*
X171519Y70073D01*
X173622Y64997D01*
X173622Y59503D01*
X171519Y54427D01*
X167634Y50542D01*
X162558Y48439D01*
X157064Y48439D01*
G37*
%LPD*%
%LPC*%
G36*
X57003Y144178D02*
X57003Y144178D01*
X51927Y146281D01*
X48042Y150166D01*
X45939Y155242D01*
X45939Y160736D01*
X48042Y165812D01*
X51927Y169697D01*
X57003Y171800D01*
X62497Y171800D01*
X67573Y169697D01*
X71458Y165812D01*
X73561Y160736D01*
X73561Y155242D01*
X71458Y150166D01*
X67573Y146281D01*
X62497Y144178D01*
X57003Y144178D01*
G37*
%LPD*%
%LPC*%
G36*
X307503Y197900D02*
X307503Y197900D01*
X302427Y200003D01*
X298542Y203888D01*
X296439Y208964D01*
X296439Y214458D01*
X298542Y219534D01*
X302427Y223419D01*
X307503Y225522D01*
X312997Y225522D01*
X318073Y223419D01*
X321958Y219534D01*
X324061Y214458D01*
X324061Y208964D01*
X321958Y203888D01*
X318073Y200003D01*
X312997Y197900D01*
X307503Y197900D01*
G37*
%LPD*%
%LPC*%
G36*
X207442Y393939D02*
X207442Y393939D01*
X202366Y396042D01*
X198481Y399927D01*
X196378Y405003D01*
X196378Y410497D01*
X198481Y415573D01*
X202366Y419458D01*
X207442Y421561D01*
X212936Y421561D01*
X218012Y419458D01*
X221897Y415573D01*
X224000Y410497D01*
X224000Y405003D01*
X221897Y399927D01*
X218012Y396042D01*
X212936Y393939D01*
X207442Y393939D01*
G37*
%LPD*%
%LPC*%
G36*
X211923Y124023D02*
X211923Y124023D01*
X211923Y137689D01*
X213969Y137365D01*
X216250Y136624D01*
X218388Y135535D01*
X220329Y134125D01*
X222025Y132429D01*
X223435Y130488D01*
X224524Y128350D01*
X225265Y126069D01*
X225589Y124023D01*
X211923Y124023D01*
G37*
%LPD*%
%LPC*%
G36*
X195211Y124023D02*
X195211Y124023D01*
X195535Y126069D01*
X196276Y128350D01*
X197365Y130488D01*
X198775Y132429D01*
X200471Y134125D01*
X202412Y135535D01*
X204550Y136624D01*
X206831Y137365D01*
X208877Y137689D01*
X208877Y124023D01*
X195211Y124023D01*
G37*
%LPD*%
%LPC*%
G36*
X211923Y120977D02*
X211923Y120977D01*
X225589Y120977D01*
X225265Y118931D01*
X224524Y116650D01*
X223435Y114512D01*
X222025Y112571D01*
X220329Y110875D01*
X218388Y109465D01*
X216250Y108376D01*
X213969Y107635D01*
X211923Y107311D01*
X211923Y120977D01*
G37*
%LPD*%
%LPC*%
G36*
X206831Y107635D02*
X206831Y107635D01*
X204550Y108376D01*
X202412Y109465D01*
X200471Y110875D01*
X198775Y112571D01*
X197365Y114512D01*
X196276Y116650D01*
X195535Y118931D01*
X195211Y120977D01*
X208877Y120977D01*
X208877Y107311D01*
X206831Y107635D01*
G37*
%LPD*%
%LPC*%
G36*
X61273Y210312D02*
X61273Y210312D01*
X61273Y221245D01*
X62687Y221021D01*
X64564Y220411D01*
X66323Y219515D01*
X67920Y218355D01*
X69316Y216959D01*
X70476Y215362D01*
X71372Y213603D01*
X71982Y211726D01*
X72206Y210312D01*
X61273Y210312D01*
G37*
%LPD*%
%LPC*%
G36*
X311773Y264034D02*
X311773Y264034D01*
X311773Y274967D01*
X313187Y274743D01*
X315064Y274133D01*
X316823Y273237D01*
X318420Y272077D01*
X319816Y270681D01*
X320976Y269084D01*
X321872Y267325D01*
X322482Y265448D01*
X322706Y264034D01*
X311773Y264034D01*
G37*
%LPD*%
%LPC*%
G36*
X311773Y162434D02*
X311773Y162434D01*
X311773Y173367D01*
X313187Y173143D01*
X315064Y172533D01*
X316823Y171637D01*
X318420Y170477D01*
X319816Y169081D01*
X320976Y167484D01*
X321872Y165725D01*
X322482Y163848D01*
X322706Y162434D01*
X311773Y162434D01*
G37*
%LPD*%
%LPC*%
G36*
X61273Y311912D02*
X61273Y311912D01*
X61273Y322845D01*
X62687Y322621D01*
X64564Y322011D01*
X66323Y321115D01*
X67920Y319955D01*
X69316Y318559D01*
X70476Y316962D01*
X71372Y315203D01*
X71982Y313326D01*
X72206Y311912D01*
X61273Y311912D01*
G37*
%LPD*%
%LPC*%
G36*
X61273Y108712D02*
X61273Y108712D01*
X61273Y119645D01*
X62687Y119421D01*
X64564Y118811D01*
X66323Y117915D01*
X67920Y116755D01*
X69316Y115359D01*
X70476Y113762D01*
X71372Y112003D01*
X71982Y110126D01*
X72206Y108712D01*
X61273Y108712D01*
G37*
%LPD*%
%LPC*%
G36*
X311773Y365634D02*
X311773Y365634D01*
X311773Y376567D01*
X313187Y376343D01*
X315064Y375733D01*
X316823Y374837D01*
X318420Y373677D01*
X319816Y372281D01*
X320976Y370684D01*
X321872Y368925D01*
X322482Y367048D01*
X322706Y365634D01*
X311773Y365634D01*
G37*
%LPD*%
%LPC*%
G36*
X212134Y63773D02*
X212134Y63773D01*
X212134Y74706D01*
X213548Y74482D01*
X215425Y73872D01*
X217184Y72976D01*
X218781Y71816D01*
X220177Y70420D01*
X221337Y68823D01*
X222233Y67064D01*
X222843Y65187D01*
X223067Y63773D01*
X212134Y63773D01*
G37*
%LPD*%
%LPC*%
G36*
X160912Y409273D02*
X160912Y409273D01*
X160912Y420206D01*
X162326Y419982D01*
X164203Y419372D01*
X165962Y418476D01*
X167559Y417316D01*
X168955Y415920D01*
X170115Y414323D01*
X171011Y412564D01*
X171621Y410687D01*
X171845Y409273D01*
X160912Y409273D01*
G37*
%LPD*%
%LPC*%
G36*
X47294Y108712D02*
X47294Y108712D01*
X47518Y110126D01*
X48128Y112003D01*
X49024Y113762D01*
X50184Y115359D01*
X51580Y116755D01*
X53177Y117915D01*
X54936Y118811D01*
X56813Y119421D01*
X58227Y119645D01*
X58227Y108712D01*
X47294Y108712D01*
G37*
%LPD*%
%LPC*%
G36*
X61273Y105666D02*
X61273Y105666D01*
X72206Y105666D01*
X71982Y104252D01*
X71372Y102375D01*
X70476Y100616D01*
X69316Y99019D01*
X67920Y97623D01*
X66323Y96463D01*
X64564Y95567D01*
X62687Y94957D01*
X61273Y94733D01*
X61273Y105666D01*
G37*
%LPD*%
%LPC*%
G36*
X311773Y159388D02*
X311773Y159388D01*
X322706Y159388D01*
X322482Y157974D01*
X321872Y156097D01*
X320976Y154338D01*
X319816Y152741D01*
X318420Y151345D01*
X316823Y150185D01*
X315064Y149289D01*
X313187Y148679D01*
X311773Y148455D01*
X311773Y159388D01*
G37*
%LPD*%
%LPC*%
G36*
X297794Y162434D02*
X297794Y162434D01*
X298018Y163848D01*
X298628Y165725D01*
X299524Y167484D01*
X300684Y169081D01*
X302080Y170477D01*
X303677Y171637D01*
X305436Y172533D01*
X307313Y173143D01*
X308727Y173367D01*
X308727Y162434D01*
X297794Y162434D01*
G37*
%LPD*%
%LPC*%
G36*
X198155Y63773D02*
X198155Y63773D01*
X198379Y65187D01*
X198989Y67064D01*
X199885Y68823D01*
X201045Y70420D01*
X202441Y71816D01*
X204038Y72976D01*
X205797Y73872D01*
X207674Y74482D01*
X209088Y74706D01*
X209088Y63773D01*
X198155Y63773D01*
G37*
%LPD*%
%LPC*%
G36*
X212134Y60727D02*
X212134Y60727D01*
X223067Y60727D01*
X222843Y59313D01*
X222233Y57436D01*
X221337Y55677D01*
X220177Y54080D01*
X218781Y52684D01*
X217184Y51524D01*
X215425Y50628D01*
X213548Y50018D01*
X212134Y49794D01*
X212134Y60727D01*
G37*
%LPD*%
%LPC*%
G36*
X47294Y210312D02*
X47294Y210312D01*
X47518Y211726D01*
X48128Y213603D01*
X49024Y215362D01*
X50184Y216959D01*
X51580Y218355D01*
X53177Y219515D01*
X54936Y220411D01*
X56813Y221021D01*
X58227Y221245D01*
X58227Y210312D01*
X47294Y210312D01*
G37*
%LPD*%
%LPC*%
G36*
X61273Y207266D02*
X61273Y207266D01*
X72206Y207266D01*
X71982Y205852D01*
X71372Y203975D01*
X70476Y202216D01*
X69316Y200619D01*
X67920Y199223D01*
X66323Y198063D01*
X64564Y197167D01*
X62687Y196557D01*
X61273Y196333D01*
X61273Y207266D01*
G37*
%LPD*%
%LPC*%
G36*
X146933Y409273D02*
X146933Y409273D01*
X147157Y410687D01*
X147767Y412564D01*
X148663Y414323D01*
X149823Y415920D01*
X151219Y417316D01*
X152816Y418476D01*
X154575Y419372D01*
X156452Y419982D01*
X157866Y420206D01*
X157866Y409273D01*
X146933Y409273D01*
G37*
%LPD*%
%LPC*%
G36*
X160912Y406227D02*
X160912Y406227D01*
X171845Y406227D01*
X171621Y404813D01*
X171011Y402936D01*
X170115Y401177D01*
X168955Y399580D01*
X167559Y398184D01*
X165962Y397024D01*
X164203Y396128D01*
X162326Y395518D01*
X160912Y395294D01*
X160912Y406227D01*
G37*
%LPD*%
%LPC*%
G36*
X311773Y260988D02*
X311773Y260988D01*
X322706Y260988D01*
X322482Y259574D01*
X321872Y257697D01*
X320976Y255938D01*
X319816Y254341D01*
X318420Y252945D01*
X316823Y251785D01*
X315064Y250889D01*
X313187Y250279D01*
X311773Y250055D01*
X311773Y260988D01*
G37*
%LPD*%
%LPC*%
G36*
X297794Y365634D02*
X297794Y365634D01*
X298018Y367048D01*
X298628Y368925D01*
X299524Y370684D01*
X300684Y372281D01*
X302080Y373677D01*
X303677Y374837D01*
X305436Y375733D01*
X307313Y376343D01*
X308727Y376567D01*
X308727Y365634D01*
X297794Y365634D01*
G37*
%LPD*%
%LPC*%
G36*
X297794Y264034D02*
X297794Y264034D01*
X298018Y265448D01*
X298628Y267325D01*
X299524Y269084D01*
X300684Y270681D01*
X302080Y272077D01*
X303677Y273237D01*
X305436Y274133D01*
X307313Y274743D01*
X308727Y274967D01*
X308727Y264034D01*
X297794Y264034D01*
G37*
%LPD*%
%LPC*%
G36*
X311773Y362588D02*
X311773Y362588D01*
X322706Y362588D01*
X322482Y361174D01*
X321872Y359297D01*
X320976Y357538D01*
X319816Y355941D01*
X318420Y354545D01*
X316823Y353385D01*
X315064Y352489D01*
X313187Y351879D01*
X311773Y351655D01*
X311773Y362588D01*
G37*
%LPD*%
%LPC*%
G36*
X61273Y308866D02*
X61273Y308866D01*
X72206Y308866D01*
X71982Y307452D01*
X71372Y305575D01*
X70476Y303816D01*
X69316Y302219D01*
X67920Y300823D01*
X66323Y299663D01*
X64564Y298767D01*
X62687Y298157D01*
X61273Y297933D01*
X61273Y308866D01*
G37*
%LPD*%
%LPC*%
G36*
X47294Y311912D02*
X47294Y311912D01*
X47518Y313326D01*
X48128Y315203D01*
X49024Y316962D01*
X50184Y318559D01*
X51580Y319955D01*
X53177Y321115D01*
X54936Y322011D01*
X56813Y322621D01*
X58227Y322845D01*
X58227Y311912D01*
X47294Y311912D01*
G37*
%LPD*%
%LPC*%
G36*
X207674Y50018D02*
X207674Y50018D01*
X205797Y50628D01*
X204038Y51524D01*
X202441Y52684D01*
X201045Y54080D01*
X199885Y55677D01*
X198989Y57436D01*
X198379Y59313D01*
X198155Y60727D01*
X209088Y60727D01*
X209088Y49794D01*
X207674Y50018D01*
G37*
%LPD*%
%LPC*%
G36*
X156452Y395518D02*
X156452Y395518D01*
X154575Y396128D01*
X152816Y397024D01*
X151219Y398184D01*
X149823Y399580D01*
X148663Y401177D01*
X147767Y402936D01*
X147157Y404813D01*
X146933Y406227D01*
X157866Y406227D01*
X157866Y395294D01*
X156452Y395518D01*
G37*
%LPD*%
%LPC*%
G36*
X56813Y94957D02*
X56813Y94957D01*
X54936Y95567D01*
X53177Y96463D01*
X51580Y97623D01*
X50184Y99019D01*
X49024Y100616D01*
X48128Y102375D01*
X47518Y104252D01*
X47294Y105666D01*
X58227Y105666D01*
X58227Y94733D01*
X56813Y94957D01*
G37*
%LPD*%
%LPC*%
G36*
X307313Y351879D02*
X307313Y351879D01*
X305436Y352489D01*
X303677Y353385D01*
X302080Y354545D01*
X300684Y355941D01*
X299524Y357538D01*
X298628Y359297D01*
X298018Y361174D01*
X297794Y362588D01*
X308727Y362588D01*
X308727Y351655D01*
X307313Y351879D01*
G37*
%LPD*%
%LPC*%
G36*
X56813Y298157D02*
X56813Y298157D01*
X54936Y298767D01*
X53177Y299663D01*
X51580Y300823D01*
X50184Y302219D01*
X49024Y303816D01*
X48128Y305575D01*
X47518Y307452D01*
X47294Y308866D01*
X58227Y308866D01*
X58227Y297933D01*
X56813Y298157D01*
G37*
%LPD*%
%LPC*%
G36*
X307313Y148679D02*
X307313Y148679D01*
X305436Y149289D01*
X303677Y150185D01*
X302080Y151345D01*
X300684Y152741D01*
X299524Y154338D01*
X298628Y156097D01*
X298018Y157974D01*
X297794Y159388D01*
X308727Y159388D01*
X308727Y148455D01*
X307313Y148679D01*
G37*
%LPD*%
%LPC*%
G36*
X307313Y250279D02*
X307313Y250279D01*
X305436Y250889D01*
X303677Y251785D01*
X302080Y252945D01*
X300684Y254341D01*
X299524Y255938D01*
X298628Y257697D01*
X298018Y259574D01*
X297794Y260988D01*
X308727Y260988D01*
X308727Y250055D01*
X307313Y250279D01*
G37*
%LPD*%
%LPC*%
G36*
X56813Y196557D02*
X56813Y196557D01*
X54936Y197167D01*
X53177Y198063D01*
X51580Y199223D01*
X50184Y200619D01*
X49024Y202216D01*
X48128Y203975D01*
X47518Y205852D01*
X47294Y207266D01*
X58227Y207266D01*
X58227Y196333D01*
X56813Y196557D01*
G37*
%LPD*%
%LPC*%
G36*
X210399Y122499D02*
X210399Y122499D01*
X210399Y122501D01*
X210401Y122501D01*
X210401Y122499D01*
X210399Y122499D01*
G37*
%LPD*%
%LPC*%
G36*
X59749Y310388D02*
X59749Y310388D01*
X59749Y310390D01*
X59751Y310390D01*
X59751Y310388D01*
X59749Y310388D01*
G37*
%LPD*%
%LPC*%
G36*
X310249Y364110D02*
X310249Y364110D01*
X310249Y364112D01*
X310251Y364112D01*
X310251Y364110D01*
X310249Y364110D01*
G37*
%LPD*%
%LPC*%
G36*
X59749Y107188D02*
X59749Y107188D01*
X59749Y107190D01*
X59751Y107190D01*
X59751Y107188D01*
X59749Y107188D01*
G37*
%LPD*%
%LPC*%
G36*
X310249Y262510D02*
X310249Y262510D01*
X310249Y262512D01*
X310251Y262512D01*
X310251Y262510D01*
X310249Y262510D01*
G37*
%LPD*%
%LPC*%
G36*
X310249Y160910D02*
X310249Y160910D01*
X310249Y160912D01*
X310251Y160912D01*
X310251Y160910D01*
X310249Y160910D01*
G37*
%LPD*%
%LPC*%
G36*
X159388Y407749D02*
X159388Y407749D01*
X159388Y407751D01*
X159390Y407751D01*
X159390Y407749D01*
X159388Y407749D01*
G37*
%LPD*%
%LPC*%
G36*
X210610Y62249D02*
X210610Y62249D01*
X210610Y62251D01*
X210612Y62251D01*
X210612Y62249D01*
X210610Y62249D01*
G37*
%LPD*%
%LPC*%
G36*
X59749Y208788D02*
X59749Y208788D01*
X59749Y208790D01*
X59751Y208790D01*
X59751Y208788D01*
X59749Y208788D01*
G37*
%LPD*%
D10*
X59750Y310389D03*
X59750Y361189D03*
X59750Y208789D03*
X59750Y259589D03*
X59750Y107189D03*
X59750Y157989D03*
X210611Y62250D03*
X159811Y62250D03*
X310250Y160911D03*
X310250Y110111D03*
X310250Y262511D03*
X310250Y211711D03*
X310250Y364111D03*
X310250Y313311D03*
X159389Y407750D03*
X210189Y407750D03*
D11*
X210400Y122500D03*
D12*
X159600Y122500D03*
M02*
