M48
;GenerationSoftware,Autodesk,EAGLE,9.1.0*%
;CreationDate,2018-10-24T11:47:27Z*%
FMAT,2
ICI,OFF
METRIC,TZ,000.000
T4C1.000
T3C1.300
T2C3.000
%
G90
M71
T2
X31000Y3500
X31000Y43500
X6000Y43500
X6000Y3500
T3
X15981Y6225
X21019Y40775
X15939Y40775
X31025Y31331
X31025Y36411
X31025Y21171
X31025Y26251
X31025Y11011
X31025Y16091
X21061Y6225
X5975Y15799
X5975Y10719
X5975Y25959
X5975Y20879
X5975Y36119
X5975Y31039
T4
X21040Y12250
X15960Y12250
M30