G04 EAGLE Gerber X2 export*
%TF.Part,Single*%
%TF.FileFunction,Profile,NP*%
%TF.FilePolarity,Positive*%
%TF.GenerationSoftware,Autodesk,EAGLE,9.1.0*%
%TF.CreationDate,2018-10-24T11:47:27Z*%
G75*
%MOMM*%
%FSLAX34Y34*%
%LPD*%
%AMOC8*
5,1,8,0,0,1.08239X$1,22.5*%
G01*
%ADD10C,0.254000*%


D10*
X0Y30000D02*
X114Y27385D01*
X456Y24791D01*
X1022Y22235D01*
X1809Y19739D01*
X2811Y17321D01*
X4019Y15000D01*
X5425Y12793D01*
X7019Y10716D01*
X8787Y8787D01*
X10716Y7019D01*
X12793Y5425D01*
X15000Y4019D01*
X17321Y2811D01*
X19739Y1809D01*
X22235Y1022D01*
X24791Y456D01*
X27385Y114D01*
X30000Y0D01*
X340000Y0D01*
X342615Y114D01*
X345209Y456D01*
X347765Y1022D01*
X350261Y1809D01*
X352679Y2811D01*
X355000Y4019D01*
X357207Y5425D01*
X359284Y7019D01*
X361213Y8787D01*
X362981Y10716D01*
X364575Y12793D01*
X365981Y15000D01*
X367189Y17321D01*
X368191Y19739D01*
X368978Y22235D01*
X369544Y24791D01*
X369886Y27385D01*
X370000Y30000D01*
X370000Y440000D01*
X369886Y442615D01*
X369544Y445209D01*
X368978Y447765D01*
X368191Y450261D01*
X367189Y452679D01*
X365981Y455000D01*
X364575Y457207D01*
X362981Y459284D01*
X361213Y461213D01*
X359284Y462981D01*
X357207Y464575D01*
X355000Y465981D01*
X352679Y467189D01*
X350261Y468191D01*
X347765Y468978D01*
X345209Y469544D01*
X342615Y469886D01*
X340000Y470000D01*
X30000Y470000D01*
X27385Y469886D01*
X24791Y469544D01*
X22235Y468978D01*
X19739Y468191D01*
X17321Y467189D01*
X15000Y465981D01*
X12793Y464575D01*
X10716Y462981D01*
X8787Y461213D01*
X7019Y459284D01*
X5425Y457207D01*
X4019Y455000D01*
X2811Y452679D01*
X1809Y450261D01*
X1022Y447765D01*
X456Y445209D01*
X114Y442615D01*
X0Y440000D01*
X0Y30000D01*
X75000Y34464D02*
X74924Y33396D01*
X74771Y32335D01*
X74543Y31288D01*
X74241Y30260D01*
X73867Y29256D01*
X73422Y28281D01*
X72908Y27341D01*
X72329Y26440D01*
X71687Y25582D01*
X70985Y24772D01*
X70228Y24015D01*
X69418Y23313D01*
X68560Y22671D01*
X67659Y22092D01*
X66719Y21578D01*
X65744Y21133D01*
X64740Y20759D01*
X63712Y20457D01*
X62665Y20229D01*
X61604Y20076D01*
X60536Y20000D01*
X59464Y20000D01*
X58396Y20076D01*
X57335Y20229D01*
X56288Y20457D01*
X55260Y20759D01*
X54256Y21133D01*
X53281Y21578D01*
X52341Y22092D01*
X51440Y22671D01*
X50582Y23313D01*
X49772Y24015D01*
X49015Y24772D01*
X48313Y25582D01*
X47671Y26440D01*
X47092Y27341D01*
X46578Y28281D01*
X46133Y29256D01*
X45759Y30260D01*
X45457Y31288D01*
X45229Y32335D01*
X45076Y33396D01*
X45000Y34464D01*
X45000Y35536D01*
X45076Y36604D01*
X45229Y37665D01*
X45457Y38712D01*
X45759Y39740D01*
X46133Y40744D01*
X46578Y41719D01*
X47092Y42659D01*
X47671Y43560D01*
X48313Y44418D01*
X49015Y45228D01*
X49772Y45985D01*
X50582Y46687D01*
X51440Y47329D01*
X52341Y47908D01*
X53281Y48422D01*
X54256Y48867D01*
X55260Y49241D01*
X56288Y49543D01*
X57335Y49771D01*
X58396Y49924D01*
X59464Y50000D01*
X60536Y50000D01*
X61604Y49924D01*
X62665Y49771D01*
X63712Y49543D01*
X64740Y49241D01*
X65744Y48867D01*
X66719Y48422D01*
X67659Y47908D01*
X68560Y47329D01*
X69418Y46687D01*
X70228Y45985D01*
X70985Y45228D01*
X71687Y44418D01*
X72329Y43560D01*
X72908Y42659D01*
X73422Y41719D01*
X73867Y40744D01*
X74241Y39740D01*
X74543Y38712D01*
X74771Y37665D01*
X74924Y36604D01*
X75000Y35536D01*
X75000Y34464D01*
X325000Y34464D02*
X324924Y33396D01*
X324771Y32335D01*
X324543Y31288D01*
X324241Y30260D01*
X323867Y29256D01*
X323422Y28281D01*
X322908Y27341D01*
X322329Y26440D01*
X321687Y25582D01*
X320985Y24772D01*
X320228Y24015D01*
X319418Y23313D01*
X318560Y22671D01*
X317659Y22092D01*
X316719Y21578D01*
X315744Y21133D01*
X314740Y20759D01*
X313712Y20457D01*
X312665Y20229D01*
X311604Y20076D01*
X310536Y20000D01*
X309464Y20000D01*
X308396Y20076D01*
X307335Y20229D01*
X306288Y20457D01*
X305260Y20759D01*
X304256Y21133D01*
X303281Y21578D01*
X302341Y22092D01*
X301440Y22671D01*
X300582Y23313D01*
X299772Y24015D01*
X299015Y24772D01*
X298313Y25582D01*
X297671Y26440D01*
X297092Y27341D01*
X296578Y28281D01*
X296133Y29256D01*
X295759Y30260D01*
X295457Y31288D01*
X295229Y32335D01*
X295076Y33396D01*
X295000Y34464D01*
X295000Y35536D01*
X295076Y36604D01*
X295229Y37665D01*
X295457Y38712D01*
X295759Y39740D01*
X296133Y40744D01*
X296578Y41719D01*
X297092Y42659D01*
X297671Y43560D01*
X298313Y44418D01*
X299015Y45228D01*
X299772Y45985D01*
X300582Y46687D01*
X301440Y47329D01*
X302341Y47908D01*
X303281Y48422D01*
X304256Y48867D01*
X305260Y49241D01*
X306288Y49543D01*
X307335Y49771D01*
X308396Y49924D01*
X309464Y50000D01*
X310536Y50000D01*
X311604Y49924D01*
X312665Y49771D01*
X313712Y49543D01*
X314740Y49241D01*
X315744Y48867D01*
X316719Y48422D01*
X317659Y47908D01*
X318560Y47329D01*
X319418Y46687D01*
X320228Y45985D01*
X320985Y45228D01*
X321687Y44418D01*
X322329Y43560D01*
X322908Y42659D01*
X323422Y41719D01*
X323867Y40744D01*
X324241Y39740D01*
X324543Y38712D01*
X324771Y37665D01*
X324924Y36604D01*
X325000Y35536D01*
X325000Y34464D01*
X325000Y434464D02*
X324924Y433396D01*
X324771Y432335D01*
X324543Y431288D01*
X324241Y430260D01*
X323867Y429256D01*
X323422Y428281D01*
X322908Y427341D01*
X322329Y426440D01*
X321687Y425582D01*
X320985Y424772D01*
X320228Y424015D01*
X319418Y423313D01*
X318560Y422671D01*
X317659Y422092D01*
X316719Y421578D01*
X315744Y421133D01*
X314740Y420759D01*
X313712Y420457D01*
X312665Y420229D01*
X311604Y420076D01*
X310536Y420000D01*
X309464Y420000D01*
X308396Y420076D01*
X307335Y420229D01*
X306288Y420457D01*
X305260Y420759D01*
X304256Y421133D01*
X303281Y421578D01*
X302341Y422092D01*
X301440Y422671D01*
X300582Y423313D01*
X299772Y424015D01*
X299015Y424772D01*
X298313Y425582D01*
X297671Y426440D01*
X297092Y427341D01*
X296578Y428281D01*
X296133Y429256D01*
X295759Y430260D01*
X295457Y431288D01*
X295229Y432335D01*
X295076Y433396D01*
X295000Y434464D01*
X295000Y435536D01*
X295076Y436604D01*
X295229Y437665D01*
X295457Y438712D01*
X295759Y439740D01*
X296133Y440744D01*
X296578Y441719D01*
X297092Y442659D01*
X297671Y443560D01*
X298313Y444418D01*
X299015Y445228D01*
X299772Y445985D01*
X300582Y446687D01*
X301440Y447329D01*
X302341Y447908D01*
X303281Y448422D01*
X304256Y448867D01*
X305260Y449241D01*
X306288Y449543D01*
X307335Y449771D01*
X308396Y449924D01*
X309464Y450000D01*
X310536Y450000D01*
X311604Y449924D01*
X312665Y449771D01*
X313712Y449543D01*
X314740Y449241D01*
X315744Y448867D01*
X316719Y448422D01*
X317659Y447908D01*
X318560Y447329D01*
X319418Y446687D01*
X320228Y445985D01*
X320985Y445228D01*
X321687Y444418D01*
X322329Y443560D01*
X322908Y442659D01*
X323422Y441719D01*
X323867Y440744D01*
X324241Y439740D01*
X324543Y438712D01*
X324771Y437665D01*
X324924Y436604D01*
X325000Y435536D01*
X325000Y434464D01*
X75000Y434464D02*
X74924Y433396D01*
X74771Y432335D01*
X74543Y431288D01*
X74241Y430260D01*
X73867Y429256D01*
X73422Y428281D01*
X72908Y427341D01*
X72329Y426440D01*
X71687Y425582D01*
X70985Y424772D01*
X70228Y424015D01*
X69418Y423313D01*
X68560Y422671D01*
X67659Y422092D01*
X66719Y421578D01*
X65744Y421133D01*
X64740Y420759D01*
X63712Y420457D01*
X62665Y420229D01*
X61604Y420076D01*
X60536Y420000D01*
X59464Y420000D01*
X58396Y420076D01*
X57335Y420229D01*
X56288Y420457D01*
X55260Y420759D01*
X54256Y421133D01*
X53281Y421578D01*
X52341Y422092D01*
X51440Y422671D01*
X50582Y423313D01*
X49772Y424015D01*
X49015Y424772D01*
X48313Y425582D01*
X47671Y426440D01*
X47092Y427341D01*
X46578Y428281D01*
X46133Y429256D01*
X45759Y430260D01*
X45457Y431288D01*
X45229Y432335D01*
X45076Y433396D01*
X45000Y434464D01*
X45000Y435536D01*
X45076Y436604D01*
X45229Y437665D01*
X45457Y438712D01*
X45759Y439740D01*
X46133Y440744D01*
X46578Y441719D01*
X47092Y442659D01*
X47671Y443560D01*
X48313Y444418D01*
X49015Y445228D01*
X49772Y445985D01*
X50582Y446687D01*
X51440Y447329D01*
X52341Y447908D01*
X53281Y448422D01*
X54256Y448867D01*
X55260Y449241D01*
X56288Y449543D01*
X57335Y449771D01*
X58396Y449924D01*
X59464Y450000D01*
X60536Y450000D01*
X61604Y449924D01*
X62665Y449771D01*
X63712Y449543D01*
X64740Y449241D01*
X65744Y448867D01*
X66719Y448422D01*
X67659Y447908D01*
X68560Y447329D01*
X69418Y446687D01*
X70228Y445985D01*
X70985Y445228D01*
X71687Y444418D01*
X72329Y443560D01*
X72908Y442659D01*
X73422Y441719D01*
X73867Y440744D01*
X74241Y439740D01*
X74543Y438712D01*
X74771Y437665D01*
X74924Y436604D01*
X75000Y435536D01*
X75000Y434464D01*
M02*
