G04 EAGLE Gerber X2 export*
%TF.Part,Single*%
%TF.FileFunction,Legend,Top,1*%
%TF.FilePolarity,Positive*%
%TF.GenerationSoftware,Autodesk,EAGLE,9.1.0*%
%TF.CreationDate,2018-10-24T11:47:27Z*%
G75*
%MOMM*%
%FSLAX34Y34*%
%LPD*%
%AMOC8*
5,1,8,0,0,1.08239X$1,22.5*%
G01*
%ADD10C,0.279400*%
%ADD11C,0.203200*%
%ADD12C,0.152400*%
%ADD13R,0.635000X2.540000*%
%ADD14C,0.127000*%
%ADD15C,0.406400*%


D10*
X5005Y308335D02*
X14995Y308335D01*
X10000Y303340D02*
X10000Y313330D01*
X5005Y358335D02*
X14995Y358335D01*
X14995Y208335D02*
X5005Y208335D01*
X10000Y203340D02*
X10000Y213330D01*
X5005Y258335D02*
X14995Y258335D01*
X14995Y103335D02*
X5005Y103335D01*
X10000Y98340D02*
X10000Y108330D01*
X5005Y153335D02*
X14995Y153335D01*
X155005Y10835D02*
X164995Y10835D01*
X205005Y10835D02*
X214995Y10835D01*
X210000Y5840D02*
X210000Y15830D01*
X164995Y458335D02*
X155005Y458335D01*
X160000Y453340D02*
X160000Y463330D01*
X205005Y458335D02*
X214995Y458335D01*
X355005Y360835D02*
X364995Y360835D01*
X360000Y355840D02*
X360000Y365830D01*
X355005Y310835D02*
X364995Y310835D01*
X364995Y260835D02*
X355005Y260835D01*
X360000Y255840D02*
X360000Y265830D01*
X355005Y210835D02*
X364995Y210835D01*
X364995Y160835D02*
X355005Y160835D01*
X360000Y155840D02*
X360000Y165830D01*
X355005Y110835D02*
X364995Y110835D01*
D11*
X100500Y284989D02*
X100500Y386589D01*
X34757Y386589D02*
X34757Y284989D01*
X79555Y284989D02*
X84479Y284989D01*
X93270Y284989D02*
X93270Y283702D01*
X89130Y283702D02*
X89130Y284989D01*
X91279Y284989D01*
X93270Y284989D01*
X87630Y281919D02*
X87630Y279289D01*
X94770Y279289D02*
X94770Y281919D01*
X89130Y284989D02*
X84479Y284989D01*
X93270Y283702D02*
X94770Y281919D01*
X94770Y279289D02*
X87630Y279289D01*
X39587Y284989D02*
X34757Y284989D01*
X39587Y284989D02*
X79555Y284989D01*
X87630Y281919D02*
X89130Y283702D01*
X84479Y284989D02*
X84479Y386589D01*
X79555Y386589D01*
X91279Y386589D02*
X91279Y284989D01*
X91279Y386589D02*
X84479Y386589D01*
X79555Y386589D02*
X39587Y386589D01*
X34757Y386589D01*
X19500Y386589D01*
X93270Y284989D02*
X97500Y284989D01*
X97500Y386589D02*
X91279Y386589D01*
X19500Y386589D02*
X19500Y284989D01*
X34757Y284989D01*
X97500Y284989D02*
X97500Y386589D01*
X97500Y284989D02*
X100500Y284989D01*
X100500Y386589D02*
X97500Y386589D01*
X40600Y310389D02*
X40606Y310859D01*
X40623Y311329D01*
X40652Y311798D01*
X40692Y312266D01*
X40744Y312733D01*
X40807Y313199D01*
X40882Y313663D01*
X40968Y314125D01*
X41065Y314585D01*
X41174Y315042D01*
X41294Y315497D01*
X41425Y315948D01*
X41567Y316396D01*
X41719Y316840D01*
X41883Y317281D01*
X42058Y317717D01*
X42243Y318149D01*
X42439Y318577D01*
X42645Y318999D01*
X42861Y319416D01*
X43088Y319828D01*
X43324Y320234D01*
X43571Y320634D01*
X43827Y321028D01*
X44093Y321416D01*
X44369Y321797D01*
X44653Y322171D01*
X44947Y322538D01*
X45249Y322897D01*
X45561Y323249D01*
X45881Y323594D01*
X46209Y323930D01*
X46545Y324258D01*
X46890Y324578D01*
X47242Y324890D01*
X47601Y325192D01*
X47968Y325486D01*
X48342Y325770D01*
X48723Y326046D01*
X49111Y326312D01*
X49505Y326568D01*
X49905Y326815D01*
X50311Y327051D01*
X50723Y327278D01*
X51140Y327494D01*
X51562Y327700D01*
X51990Y327896D01*
X52422Y328081D01*
X52858Y328256D01*
X53299Y328420D01*
X53743Y328572D01*
X54191Y328714D01*
X54642Y328845D01*
X55097Y328965D01*
X55554Y329074D01*
X56014Y329171D01*
X56476Y329257D01*
X56940Y329332D01*
X57406Y329395D01*
X57873Y329447D01*
X58341Y329487D01*
X58810Y329516D01*
X59280Y329533D01*
X59750Y329539D01*
X60220Y329533D01*
X60690Y329516D01*
X61159Y329487D01*
X61627Y329447D01*
X62094Y329395D01*
X62560Y329332D01*
X63024Y329257D01*
X63486Y329171D01*
X63946Y329074D01*
X64403Y328965D01*
X64858Y328845D01*
X65309Y328714D01*
X65757Y328572D01*
X66201Y328420D01*
X66642Y328256D01*
X67078Y328081D01*
X67510Y327896D01*
X67938Y327700D01*
X68360Y327494D01*
X68777Y327278D01*
X69189Y327051D01*
X69595Y326815D01*
X69995Y326568D01*
X70389Y326312D01*
X70777Y326046D01*
X71158Y325770D01*
X71532Y325486D01*
X71899Y325192D01*
X72258Y324890D01*
X72610Y324578D01*
X72955Y324258D01*
X73291Y323930D01*
X73619Y323594D01*
X73939Y323249D01*
X74251Y322897D01*
X74553Y322538D01*
X74847Y322171D01*
X75131Y321797D01*
X75407Y321416D01*
X75673Y321028D01*
X75929Y320634D01*
X76176Y320234D01*
X76412Y319828D01*
X76639Y319416D01*
X76855Y318999D01*
X77061Y318577D01*
X77257Y318149D01*
X77442Y317717D01*
X77617Y317281D01*
X77781Y316840D01*
X77933Y316396D01*
X78075Y315948D01*
X78206Y315497D01*
X78326Y315042D01*
X78435Y314585D01*
X78532Y314125D01*
X78618Y313663D01*
X78693Y313199D01*
X78756Y312733D01*
X78808Y312266D01*
X78848Y311798D01*
X78877Y311329D01*
X78894Y310859D01*
X78900Y310389D01*
X78894Y309919D01*
X78877Y309449D01*
X78848Y308980D01*
X78808Y308512D01*
X78756Y308045D01*
X78693Y307579D01*
X78618Y307115D01*
X78532Y306653D01*
X78435Y306193D01*
X78326Y305736D01*
X78206Y305281D01*
X78075Y304830D01*
X77933Y304382D01*
X77781Y303938D01*
X77617Y303497D01*
X77442Y303061D01*
X77257Y302629D01*
X77061Y302201D01*
X76855Y301779D01*
X76639Y301362D01*
X76412Y300950D01*
X76176Y300544D01*
X75929Y300144D01*
X75673Y299750D01*
X75407Y299362D01*
X75131Y298981D01*
X74847Y298607D01*
X74553Y298240D01*
X74251Y297881D01*
X73939Y297529D01*
X73619Y297184D01*
X73291Y296848D01*
X72955Y296520D01*
X72610Y296200D01*
X72258Y295888D01*
X71899Y295586D01*
X71532Y295292D01*
X71158Y295008D01*
X70777Y294732D01*
X70389Y294466D01*
X69995Y294210D01*
X69595Y293963D01*
X69189Y293727D01*
X68777Y293500D01*
X68360Y293284D01*
X67938Y293078D01*
X67510Y292882D01*
X67078Y292697D01*
X66642Y292522D01*
X66201Y292358D01*
X65757Y292206D01*
X65309Y292064D01*
X64858Y291933D01*
X64403Y291813D01*
X63946Y291704D01*
X63486Y291607D01*
X63024Y291521D01*
X62560Y291446D01*
X62094Y291383D01*
X61627Y291331D01*
X61159Y291291D01*
X60690Y291262D01*
X60220Y291245D01*
X59750Y291239D01*
X59280Y291245D01*
X58810Y291262D01*
X58341Y291291D01*
X57873Y291331D01*
X57406Y291383D01*
X56940Y291446D01*
X56476Y291521D01*
X56014Y291607D01*
X55554Y291704D01*
X55097Y291813D01*
X54642Y291933D01*
X54191Y292064D01*
X53743Y292206D01*
X53299Y292358D01*
X52858Y292522D01*
X52422Y292697D01*
X51990Y292882D01*
X51562Y293078D01*
X51140Y293284D01*
X50723Y293500D01*
X50311Y293727D01*
X49905Y293963D01*
X49505Y294210D01*
X49111Y294466D01*
X48723Y294732D01*
X48342Y295008D01*
X47968Y295292D01*
X47601Y295586D01*
X47242Y295888D01*
X46890Y296200D01*
X46545Y296520D01*
X46209Y296848D01*
X45881Y297184D01*
X45561Y297529D01*
X45249Y297881D01*
X44947Y298240D01*
X44653Y298607D01*
X44369Y298981D01*
X44093Y299362D01*
X43827Y299750D01*
X43571Y300144D01*
X43324Y300544D01*
X43088Y300950D01*
X42861Y301362D01*
X42645Y301779D01*
X42439Y302201D01*
X42243Y302629D01*
X42058Y303061D01*
X41883Y303497D01*
X41719Y303938D01*
X41567Y304382D01*
X41425Y304830D01*
X41294Y305281D01*
X41174Y305736D01*
X41065Y306193D01*
X40968Y306653D01*
X40882Y307115D01*
X40807Y307579D01*
X40744Y308045D01*
X40692Y308512D01*
X40652Y308980D01*
X40623Y309449D01*
X40606Y309919D01*
X40600Y310389D01*
X40600Y361189D02*
X40606Y361659D01*
X40623Y362129D01*
X40652Y362598D01*
X40692Y363066D01*
X40744Y363533D01*
X40807Y363999D01*
X40882Y364463D01*
X40968Y364925D01*
X41065Y365385D01*
X41174Y365842D01*
X41294Y366297D01*
X41425Y366748D01*
X41567Y367196D01*
X41719Y367640D01*
X41883Y368081D01*
X42058Y368517D01*
X42243Y368949D01*
X42439Y369377D01*
X42645Y369799D01*
X42861Y370216D01*
X43088Y370628D01*
X43324Y371034D01*
X43571Y371434D01*
X43827Y371828D01*
X44093Y372216D01*
X44369Y372597D01*
X44653Y372971D01*
X44947Y373338D01*
X45249Y373697D01*
X45561Y374049D01*
X45881Y374394D01*
X46209Y374730D01*
X46545Y375058D01*
X46890Y375378D01*
X47242Y375690D01*
X47601Y375992D01*
X47968Y376286D01*
X48342Y376570D01*
X48723Y376846D01*
X49111Y377112D01*
X49505Y377368D01*
X49905Y377615D01*
X50311Y377851D01*
X50723Y378078D01*
X51140Y378294D01*
X51562Y378500D01*
X51990Y378696D01*
X52422Y378881D01*
X52858Y379056D01*
X53299Y379220D01*
X53743Y379372D01*
X54191Y379514D01*
X54642Y379645D01*
X55097Y379765D01*
X55554Y379874D01*
X56014Y379971D01*
X56476Y380057D01*
X56940Y380132D01*
X57406Y380195D01*
X57873Y380247D01*
X58341Y380287D01*
X58810Y380316D01*
X59280Y380333D01*
X59750Y380339D01*
X60220Y380333D01*
X60690Y380316D01*
X61159Y380287D01*
X61627Y380247D01*
X62094Y380195D01*
X62560Y380132D01*
X63024Y380057D01*
X63486Y379971D01*
X63946Y379874D01*
X64403Y379765D01*
X64858Y379645D01*
X65309Y379514D01*
X65757Y379372D01*
X66201Y379220D01*
X66642Y379056D01*
X67078Y378881D01*
X67510Y378696D01*
X67938Y378500D01*
X68360Y378294D01*
X68777Y378078D01*
X69189Y377851D01*
X69595Y377615D01*
X69995Y377368D01*
X70389Y377112D01*
X70777Y376846D01*
X71158Y376570D01*
X71532Y376286D01*
X71899Y375992D01*
X72258Y375690D01*
X72610Y375378D01*
X72955Y375058D01*
X73291Y374730D01*
X73619Y374394D01*
X73939Y374049D01*
X74251Y373697D01*
X74553Y373338D01*
X74847Y372971D01*
X75131Y372597D01*
X75407Y372216D01*
X75673Y371828D01*
X75929Y371434D01*
X76176Y371034D01*
X76412Y370628D01*
X76639Y370216D01*
X76855Y369799D01*
X77061Y369377D01*
X77257Y368949D01*
X77442Y368517D01*
X77617Y368081D01*
X77781Y367640D01*
X77933Y367196D01*
X78075Y366748D01*
X78206Y366297D01*
X78326Y365842D01*
X78435Y365385D01*
X78532Y364925D01*
X78618Y364463D01*
X78693Y363999D01*
X78756Y363533D01*
X78808Y363066D01*
X78848Y362598D01*
X78877Y362129D01*
X78894Y361659D01*
X78900Y361189D01*
X78894Y360719D01*
X78877Y360249D01*
X78848Y359780D01*
X78808Y359312D01*
X78756Y358845D01*
X78693Y358379D01*
X78618Y357915D01*
X78532Y357453D01*
X78435Y356993D01*
X78326Y356536D01*
X78206Y356081D01*
X78075Y355630D01*
X77933Y355182D01*
X77781Y354738D01*
X77617Y354297D01*
X77442Y353861D01*
X77257Y353429D01*
X77061Y353001D01*
X76855Y352579D01*
X76639Y352162D01*
X76412Y351750D01*
X76176Y351344D01*
X75929Y350944D01*
X75673Y350550D01*
X75407Y350162D01*
X75131Y349781D01*
X74847Y349407D01*
X74553Y349040D01*
X74251Y348681D01*
X73939Y348329D01*
X73619Y347984D01*
X73291Y347648D01*
X72955Y347320D01*
X72610Y347000D01*
X72258Y346688D01*
X71899Y346386D01*
X71532Y346092D01*
X71158Y345808D01*
X70777Y345532D01*
X70389Y345266D01*
X69995Y345010D01*
X69595Y344763D01*
X69189Y344527D01*
X68777Y344300D01*
X68360Y344084D01*
X67938Y343878D01*
X67510Y343682D01*
X67078Y343497D01*
X66642Y343322D01*
X66201Y343158D01*
X65757Y343006D01*
X65309Y342864D01*
X64858Y342733D01*
X64403Y342613D01*
X63946Y342504D01*
X63486Y342407D01*
X63024Y342321D01*
X62560Y342246D01*
X62094Y342183D01*
X61627Y342131D01*
X61159Y342091D01*
X60690Y342062D01*
X60220Y342045D01*
X59750Y342039D01*
X59280Y342045D01*
X58810Y342062D01*
X58341Y342091D01*
X57873Y342131D01*
X57406Y342183D01*
X56940Y342246D01*
X56476Y342321D01*
X56014Y342407D01*
X55554Y342504D01*
X55097Y342613D01*
X54642Y342733D01*
X54191Y342864D01*
X53743Y343006D01*
X53299Y343158D01*
X52858Y343322D01*
X52422Y343497D01*
X51990Y343682D01*
X51562Y343878D01*
X51140Y344084D01*
X50723Y344300D01*
X50311Y344527D01*
X49905Y344763D01*
X49505Y345010D01*
X49111Y345266D01*
X48723Y345532D01*
X48342Y345808D01*
X47968Y346092D01*
X47601Y346386D01*
X47242Y346688D01*
X46890Y347000D01*
X46545Y347320D01*
X46209Y347648D01*
X45881Y347984D01*
X45561Y348329D01*
X45249Y348681D01*
X44947Y349040D01*
X44653Y349407D01*
X44369Y349781D01*
X44093Y350162D01*
X43827Y350550D01*
X43571Y350944D01*
X43324Y351344D01*
X43088Y351750D01*
X42861Y352162D01*
X42645Y352579D01*
X42439Y353001D01*
X42243Y353429D01*
X42058Y353861D01*
X41883Y354297D01*
X41719Y354738D01*
X41567Y355182D01*
X41425Y355630D01*
X41294Y356081D01*
X41174Y356536D01*
X41065Y356993D01*
X40968Y357453D01*
X40882Y357915D01*
X40807Y358379D01*
X40744Y358845D01*
X40692Y359312D01*
X40652Y359780D01*
X40623Y360249D01*
X40606Y360719D01*
X40600Y361189D01*
X100500Y284989D02*
X100500Y183389D01*
X34757Y183389D02*
X34757Y284989D01*
X79555Y183389D02*
X84479Y183389D01*
X93270Y183389D02*
X93270Y182102D01*
X89130Y182102D02*
X89130Y183389D01*
X91279Y183389D01*
X93270Y183389D01*
X87630Y180319D02*
X87630Y177689D01*
X94770Y177689D02*
X94770Y180319D01*
X89130Y183389D02*
X84479Y183389D01*
X93270Y182102D02*
X94770Y180319D01*
X94770Y177689D02*
X87630Y177689D01*
X39587Y183389D02*
X34757Y183389D01*
X39587Y183389D02*
X79555Y183389D01*
X87630Y180319D02*
X89130Y182102D01*
X84479Y183389D02*
X84479Y284989D01*
X79555Y284989D01*
X91279Y284989D02*
X91279Y183389D01*
X91279Y284989D02*
X84479Y284989D01*
X79555Y284989D02*
X39587Y284989D01*
X34757Y284989D01*
X19500Y284989D01*
X93270Y183389D02*
X97500Y183389D01*
X97500Y284989D02*
X91279Y284989D01*
X19500Y284989D02*
X19500Y183389D01*
X34757Y183389D01*
X97500Y183389D02*
X97500Y284989D01*
X97500Y183389D02*
X100500Y183389D01*
X100500Y284989D02*
X97500Y284989D01*
X40600Y208789D02*
X40606Y209259D01*
X40623Y209729D01*
X40652Y210198D01*
X40692Y210666D01*
X40744Y211133D01*
X40807Y211599D01*
X40882Y212063D01*
X40968Y212525D01*
X41065Y212985D01*
X41174Y213442D01*
X41294Y213897D01*
X41425Y214348D01*
X41567Y214796D01*
X41719Y215240D01*
X41883Y215681D01*
X42058Y216117D01*
X42243Y216549D01*
X42439Y216977D01*
X42645Y217399D01*
X42861Y217816D01*
X43088Y218228D01*
X43324Y218634D01*
X43571Y219034D01*
X43827Y219428D01*
X44093Y219816D01*
X44369Y220197D01*
X44653Y220571D01*
X44947Y220938D01*
X45249Y221297D01*
X45561Y221649D01*
X45881Y221994D01*
X46209Y222330D01*
X46545Y222658D01*
X46890Y222978D01*
X47242Y223290D01*
X47601Y223592D01*
X47968Y223886D01*
X48342Y224170D01*
X48723Y224446D01*
X49111Y224712D01*
X49505Y224968D01*
X49905Y225215D01*
X50311Y225451D01*
X50723Y225678D01*
X51140Y225894D01*
X51562Y226100D01*
X51990Y226296D01*
X52422Y226481D01*
X52858Y226656D01*
X53299Y226820D01*
X53743Y226972D01*
X54191Y227114D01*
X54642Y227245D01*
X55097Y227365D01*
X55554Y227474D01*
X56014Y227571D01*
X56476Y227657D01*
X56940Y227732D01*
X57406Y227795D01*
X57873Y227847D01*
X58341Y227887D01*
X58810Y227916D01*
X59280Y227933D01*
X59750Y227939D01*
X60220Y227933D01*
X60690Y227916D01*
X61159Y227887D01*
X61627Y227847D01*
X62094Y227795D01*
X62560Y227732D01*
X63024Y227657D01*
X63486Y227571D01*
X63946Y227474D01*
X64403Y227365D01*
X64858Y227245D01*
X65309Y227114D01*
X65757Y226972D01*
X66201Y226820D01*
X66642Y226656D01*
X67078Y226481D01*
X67510Y226296D01*
X67938Y226100D01*
X68360Y225894D01*
X68777Y225678D01*
X69189Y225451D01*
X69595Y225215D01*
X69995Y224968D01*
X70389Y224712D01*
X70777Y224446D01*
X71158Y224170D01*
X71532Y223886D01*
X71899Y223592D01*
X72258Y223290D01*
X72610Y222978D01*
X72955Y222658D01*
X73291Y222330D01*
X73619Y221994D01*
X73939Y221649D01*
X74251Y221297D01*
X74553Y220938D01*
X74847Y220571D01*
X75131Y220197D01*
X75407Y219816D01*
X75673Y219428D01*
X75929Y219034D01*
X76176Y218634D01*
X76412Y218228D01*
X76639Y217816D01*
X76855Y217399D01*
X77061Y216977D01*
X77257Y216549D01*
X77442Y216117D01*
X77617Y215681D01*
X77781Y215240D01*
X77933Y214796D01*
X78075Y214348D01*
X78206Y213897D01*
X78326Y213442D01*
X78435Y212985D01*
X78532Y212525D01*
X78618Y212063D01*
X78693Y211599D01*
X78756Y211133D01*
X78808Y210666D01*
X78848Y210198D01*
X78877Y209729D01*
X78894Y209259D01*
X78900Y208789D01*
X78894Y208319D01*
X78877Y207849D01*
X78848Y207380D01*
X78808Y206912D01*
X78756Y206445D01*
X78693Y205979D01*
X78618Y205515D01*
X78532Y205053D01*
X78435Y204593D01*
X78326Y204136D01*
X78206Y203681D01*
X78075Y203230D01*
X77933Y202782D01*
X77781Y202338D01*
X77617Y201897D01*
X77442Y201461D01*
X77257Y201029D01*
X77061Y200601D01*
X76855Y200179D01*
X76639Y199762D01*
X76412Y199350D01*
X76176Y198944D01*
X75929Y198544D01*
X75673Y198150D01*
X75407Y197762D01*
X75131Y197381D01*
X74847Y197007D01*
X74553Y196640D01*
X74251Y196281D01*
X73939Y195929D01*
X73619Y195584D01*
X73291Y195248D01*
X72955Y194920D01*
X72610Y194600D01*
X72258Y194288D01*
X71899Y193986D01*
X71532Y193692D01*
X71158Y193408D01*
X70777Y193132D01*
X70389Y192866D01*
X69995Y192610D01*
X69595Y192363D01*
X69189Y192127D01*
X68777Y191900D01*
X68360Y191684D01*
X67938Y191478D01*
X67510Y191282D01*
X67078Y191097D01*
X66642Y190922D01*
X66201Y190758D01*
X65757Y190606D01*
X65309Y190464D01*
X64858Y190333D01*
X64403Y190213D01*
X63946Y190104D01*
X63486Y190007D01*
X63024Y189921D01*
X62560Y189846D01*
X62094Y189783D01*
X61627Y189731D01*
X61159Y189691D01*
X60690Y189662D01*
X60220Y189645D01*
X59750Y189639D01*
X59280Y189645D01*
X58810Y189662D01*
X58341Y189691D01*
X57873Y189731D01*
X57406Y189783D01*
X56940Y189846D01*
X56476Y189921D01*
X56014Y190007D01*
X55554Y190104D01*
X55097Y190213D01*
X54642Y190333D01*
X54191Y190464D01*
X53743Y190606D01*
X53299Y190758D01*
X52858Y190922D01*
X52422Y191097D01*
X51990Y191282D01*
X51562Y191478D01*
X51140Y191684D01*
X50723Y191900D01*
X50311Y192127D01*
X49905Y192363D01*
X49505Y192610D01*
X49111Y192866D01*
X48723Y193132D01*
X48342Y193408D01*
X47968Y193692D01*
X47601Y193986D01*
X47242Y194288D01*
X46890Y194600D01*
X46545Y194920D01*
X46209Y195248D01*
X45881Y195584D01*
X45561Y195929D01*
X45249Y196281D01*
X44947Y196640D01*
X44653Y197007D01*
X44369Y197381D01*
X44093Y197762D01*
X43827Y198150D01*
X43571Y198544D01*
X43324Y198944D01*
X43088Y199350D01*
X42861Y199762D01*
X42645Y200179D01*
X42439Y200601D01*
X42243Y201029D01*
X42058Y201461D01*
X41883Y201897D01*
X41719Y202338D01*
X41567Y202782D01*
X41425Y203230D01*
X41294Y203681D01*
X41174Y204136D01*
X41065Y204593D01*
X40968Y205053D01*
X40882Y205515D01*
X40807Y205979D01*
X40744Y206445D01*
X40692Y206912D01*
X40652Y207380D01*
X40623Y207849D01*
X40606Y208319D01*
X40600Y208789D01*
X40600Y259589D02*
X40606Y260059D01*
X40623Y260529D01*
X40652Y260998D01*
X40692Y261466D01*
X40744Y261933D01*
X40807Y262399D01*
X40882Y262863D01*
X40968Y263325D01*
X41065Y263785D01*
X41174Y264242D01*
X41294Y264697D01*
X41425Y265148D01*
X41567Y265596D01*
X41719Y266040D01*
X41883Y266481D01*
X42058Y266917D01*
X42243Y267349D01*
X42439Y267777D01*
X42645Y268199D01*
X42861Y268616D01*
X43088Y269028D01*
X43324Y269434D01*
X43571Y269834D01*
X43827Y270228D01*
X44093Y270616D01*
X44369Y270997D01*
X44653Y271371D01*
X44947Y271738D01*
X45249Y272097D01*
X45561Y272449D01*
X45881Y272794D01*
X46209Y273130D01*
X46545Y273458D01*
X46890Y273778D01*
X47242Y274090D01*
X47601Y274392D01*
X47968Y274686D01*
X48342Y274970D01*
X48723Y275246D01*
X49111Y275512D01*
X49505Y275768D01*
X49905Y276015D01*
X50311Y276251D01*
X50723Y276478D01*
X51140Y276694D01*
X51562Y276900D01*
X51990Y277096D01*
X52422Y277281D01*
X52858Y277456D01*
X53299Y277620D01*
X53743Y277772D01*
X54191Y277914D01*
X54642Y278045D01*
X55097Y278165D01*
X55554Y278274D01*
X56014Y278371D01*
X56476Y278457D01*
X56940Y278532D01*
X57406Y278595D01*
X57873Y278647D01*
X58341Y278687D01*
X58810Y278716D01*
X59280Y278733D01*
X59750Y278739D01*
X60220Y278733D01*
X60690Y278716D01*
X61159Y278687D01*
X61627Y278647D01*
X62094Y278595D01*
X62560Y278532D01*
X63024Y278457D01*
X63486Y278371D01*
X63946Y278274D01*
X64403Y278165D01*
X64858Y278045D01*
X65309Y277914D01*
X65757Y277772D01*
X66201Y277620D01*
X66642Y277456D01*
X67078Y277281D01*
X67510Y277096D01*
X67938Y276900D01*
X68360Y276694D01*
X68777Y276478D01*
X69189Y276251D01*
X69595Y276015D01*
X69995Y275768D01*
X70389Y275512D01*
X70777Y275246D01*
X71158Y274970D01*
X71532Y274686D01*
X71899Y274392D01*
X72258Y274090D01*
X72610Y273778D01*
X72955Y273458D01*
X73291Y273130D01*
X73619Y272794D01*
X73939Y272449D01*
X74251Y272097D01*
X74553Y271738D01*
X74847Y271371D01*
X75131Y270997D01*
X75407Y270616D01*
X75673Y270228D01*
X75929Y269834D01*
X76176Y269434D01*
X76412Y269028D01*
X76639Y268616D01*
X76855Y268199D01*
X77061Y267777D01*
X77257Y267349D01*
X77442Y266917D01*
X77617Y266481D01*
X77781Y266040D01*
X77933Y265596D01*
X78075Y265148D01*
X78206Y264697D01*
X78326Y264242D01*
X78435Y263785D01*
X78532Y263325D01*
X78618Y262863D01*
X78693Y262399D01*
X78756Y261933D01*
X78808Y261466D01*
X78848Y260998D01*
X78877Y260529D01*
X78894Y260059D01*
X78900Y259589D01*
X78894Y259119D01*
X78877Y258649D01*
X78848Y258180D01*
X78808Y257712D01*
X78756Y257245D01*
X78693Y256779D01*
X78618Y256315D01*
X78532Y255853D01*
X78435Y255393D01*
X78326Y254936D01*
X78206Y254481D01*
X78075Y254030D01*
X77933Y253582D01*
X77781Y253138D01*
X77617Y252697D01*
X77442Y252261D01*
X77257Y251829D01*
X77061Y251401D01*
X76855Y250979D01*
X76639Y250562D01*
X76412Y250150D01*
X76176Y249744D01*
X75929Y249344D01*
X75673Y248950D01*
X75407Y248562D01*
X75131Y248181D01*
X74847Y247807D01*
X74553Y247440D01*
X74251Y247081D01*
X73939Y246729D01*
X73619Y246384D01*
X73291Y246048D01*
X72955Y245720D01*
X72610Y245400D01*
X72258Y245088D01*
X71899Y244786D01*
X71532Y244492D01*
X71158Y244208D01*
X70777Y243932D01*
X70389Y243666D01*
X69995Y243410D01*
X69595Y243163D01*
X69189Y242927D01*
X68777Y242700D01*
X68360Y242484D01*
X67938Y242278D01*
X67510Y242082D01*
X67078Y241897D01*
X66642Y241722D01*
X66201Y241558D01*
X65757Y241406D01*
X65309Y241264D01*
X64858Y241133D01*
X64403Y241013D01*
X63946Y240904D01*
X63486Y240807D01*
X63024Y240721D01*
X62560Y240646D01*
X62094Y240583D01*
X61627Y240531D01*
X61159Y240491D01*
X60690Y240462D01*
X60220Y240445D01*
X59750Y240439D01*
X59280Y240445D01*
X58810Y240462D01*
X58341Y240491D01*
X57873Y240531D01*
X57406Y240583D01*
X56940Y240646D01*
X56476Y240721D01*
X56014Y240807D01*
X55554Y240904D01*
X55097Y241013D01*
X54642Y241133D01*
X54191Y241264D01*
X53743Y241406D01*
X53299Y241558D01*
X52858Y241722D01*
X52422Y241897D01*
X51990Y242082D01*
X51562Y242278D01*
X51140Y242484D01*
X50723Y242700D01*
X50311Y242927D01*
X49905Y243163D01*
X49505Y243410D01*
X49111Y243666D01*
X48723Y243932D01*
X48342Y244208D01*
X47968Y244492D01*
X47601Y244786D01*
X47242Y245088D01*
X46890Y245400D01*
X46545Y245720D01*
X46209Y246048D01*
X45881Y246384D01*
X45561Y246729D01*
X45249Y247081D01*
X44947Y247440D01*
X44653Y247807D01*
X44369Y248181D01*
X44093Y248562D01*
X43827Y248950D01*
X43571Y249344D01*
X43324Y249744D01*
X43088Y250150D01*
X42861Y250562D01*
X42645Y250979D01*
X42439Y251401D01*
X42243Y251829D01*
X42058Y252261D01*
X41883Y252697D01*
X41719Y253138D01*
X41567Y253582D01*
X41425Y254030D01*
X41294Y254481D01*
X41174Y254936D01*
X41065Y255393D01*
X40968Y255853D01*
X40882Y256315D01*
X40807Y256779D01*
X40744Y257245D01*
X40692Y257712D01*
X40652Y258180D01*
X40623Y258649D01*
X40606Y259119D01*
X40600Y259589D01*
X100500Y183389D02*
X100500Y81789D01*
X34757Y81789D02*
X34757Y183389D01*
X79555Y81789D02*
X84479Y81789D01*
X93270Y81789D02*
X93270Y80502D01*
X89130Y80502D02*
X89130Y81789D01*
X91279Y81789D01*
X93270Y81789D01*
X87630Y78719D02*
X87630Y76089D01*
X94770Y76089D02*
X94770Y78719D01*
X89130Y81789D02*
X84479Y81789D01*
X93270Y80502D02*
X94770Y78719D01*
X94770Y76089D02*
X87630Y76089D01*
X39587Y81789D02*
X34757Y81789D01*
X39587Y81789D02*
X79555Y81789D01*
X87630Y78719D02*
X89130Y80502D01*
X84479Y81789D02*
X84479Y183389D01*
X79555Y183389D01*
X91279Y183389D02*
X91279Y81789D01*
X91279Y183389D02*
X84479Y183389D01*
X79555Y183389D02*
X39587Y183389D01*
X34757Y183389D01*
X19500Y183389D01*
X93270Y81789D02*
X97500Y81789D01*
X97500Y183389D02*
X91279Y183389D01*
X19500Y183389D02*
X19500Y81789D01*
X34757Y81789D01*
X97500Y81789D02*
X97500Y183389D01*
X97500Y81789D02*
X100500Y81789D01*
X100500Y183389D02*
X97500Y183389D01*
X40600Y107189D02*
X40606Y107659D01*
X40623Y108129D01*
X40652Y108598D01*
X40692Y109066D01*
X40744Y109533D01*
X40807Y109999D01*
X40882Y110463D01*
X40968Y110925D01*
X41065Y111385D01*
X41174Y111842D01*
X41294Y112297D01*
X41425Y112748D01*
X41567Y113196D01*
X41719Y113640D01*
X41883Y114081D01*
X42058Y114517D01*
X42243Y114949D01*
X42439Y115377D01*
X42645Y115799D01*
X42861Y116216D01*
X43088Y116628D01*
X43324Y117034D01*
X43571Y117434D01*
X43827Y117828D01*
X44093Y118216D01*
X44369Y118597D01*
X44653Y118971D01*
X44947Y119338D01*
X45249Y119697D01*
X45561Y120049D01*
X45881Y120394D01*
X46209Y120730D01*
X46545Y121058D01*
X46890Y121378D01*
X47242Y121690D01*
X47601Y121992D01*
X47968Y122286D01*
X48342Y122570D01*
X48723Y122846D01*
X49111Y123112D01*
X49505Y123368D01*
X49905Y123615D01*
X50311Y123851D01*
X50723Y124078D01*
X51140Y124294D01*
X51562Y124500D01*
X51990Y124696D01*
X52422Y124881D01*
X52858Y125056D01*
X53299Y125220D01*
X53743Y125372D01*
X54191Y125514D01*
X54642Y125645D01*
X55097Y125765D01*
X55554Y125874D01*
X56014Y125971D01*
X56476Y126057D01*
X56940Y126132D01*
X57406Y126195D01*
X57873Y126247D01*
X58341Y126287D01*
X58810Y126316D01*
X59280Y126333D01*
X59750Y126339D01*
X60220Y126333D01*
X60690Y126316D01*
X61159Y126287D01*
X61627Y126247D01*
X62094Y126195D01*
X62560Y126132D01*
X63024Y126057D01*
X63486Y125971D01*
X63946Y125874D01*
X64403Y125765D01*
X64858Y125645D01*
X65309Y125514D01*
X65757Y125372D01*
X66201Y125220D01*
X66642Y125056D01*
X67078Y124881D01*
X67510Y124696D01*
X67938Y124500D01*
X68360Y124294D01*
X68777Y124078D01*
X69189Y123851D01*
X69595Y123615D01*
X69995Y123368D01*
X70389Y123112D01*
X70777Y122846D01*
X71158Y122570D01*
X71532Y122286D01*
X71899Y121992D01*
X72258Y121690D01*
X72610Y121378D01*
X72955Y121058D01*
X73291Y120730D01*
X73619Y120394D01*
X73939Y120049D01*
X74251Y119697D01*
X74553Y119338D01*
X74847Y118971D01*
X75131Y118597D01*
X75407Y118216D01*
X75673Y117828D01*
X75929Y117434D01*
X76176Y117034D01*
X76412Y116628D01*
X76639Y116216D01*
X76855Y115799D01*
X77061Y115377D01*
X77257Y114949D01*
X77442Y114517D01*
X77617Y114081D01*
X77781Y113640D01*
X77933Y113196D01*
X78075Y112748D01*
X78206Y112297D01*
X78326Y111842D01*
X78435Y111385D01*
X78532Y110925D01*
X78618Y110463D01*
X78693Y109999D01*
X78756Y109533D01*
X78808Y109066D01*
X78848Y108598D01*
X78877Y108129D01*
X78894Y107659D01*
X78900Y107189D01*
X78894Y106719D01*
X78877Y106249D01*
X78848Y105780D01*
X78808Y105312D01*
X78756Y104845D01*
X78693Y104379D01*
X78618Y103915D01*
X78532Y103453D01*
X78435Y102993D01*
X78326Y102536D01*
X78206Y102081D01*
X78075Y101630D01*
X77933Y101182D01*
X77781Y100738D01*
X77617Y100297D01*
X77442Y99861D01*
X77257Y99429D01*
X77061Y99001D01*
X76855Y98579D01*
X76639Y98162D01*
X76412Y97750D01*
X76176Y97344D01*
X75929Y96944D01*
X75673Y96550D01*
X75407Y96162D01*
X75131Y95781D01*
X74847Y95407D01*
X74553Y95040D01*
X74251Y94681D01*
X73939Y94329D01*
X73619Y93984D01*
X73291Y93648D01*
X72955Y93320D01*
X72610Y93000D01*
X72258Y92688D01*
X71899Y92386D01*
X71532Y92092D01*
X71158Y91808D01*
X70777Y91532D01*
X70389Y91266D01*
X69995Y91010D01*
X69595Y90763D01*
X69189Y90527D01*
X68777Y90300D01*
X68360Y90084D01*
X67938Y89878D01*
X67510Y89682D01*
X67078Y89497D01*
X66642Y89322D01*
X66201Y89158D01*
X65757Y89006D01*
X65309Y88864D01*
X64858Y88733D01*
X64403Y88613D01*
X63946Y88504D01*
X63486Y88407D01*
X63024Y88321D01*
X62560Y88246D01*
X62094Y88183D01*
X61627Y88131D01*
X61159Y88091D01*
X60690Y88062D01*
X60220Y88045D01*
X59750Y88039D01*
X59280Y88045D01*
X58810Y88062D01*
X58341Y88091D01*
X57873Y88131D01*
X57406Y88183D01*
X56940Y88246D01*
X56476Y88321D01*
X56014Y88407D01*
X55554Y88504D01*
X55097Y88613D01*
X54642Y88733D01*
X54191Y88864D01*
X53743Y89006D01*
X53299Y89158D01*
X52858Y89322D01*
X52422Y89497D01*
X51990Y89682D01*
X51562Y89878D01*
X51140Y90084D01*
X50723Y90300D01*
X50311Y90527D01*
X49905Y90763D01*
X49505Y91010D01*
X49111Y91266D01*
X48723Y91532D01*
X48342Y91808D01*
X47968Y92092D01*
X47601Y92386D01*
X47242Y92688D01*
X46890Y93000D01*
X46545Y93320D01*
X46209Y93648D01*
X45881Y93984D01*
X45561Y94329D01*
X45249Y94681D01*
X44947Y95040D01*
X44653Y95407D01*
X44369Y95781D01*
X44093Y96162D01*
X43827Y96550D01*
X43571Y96944D01*
X43324Y97344D01*
X43088Y97750D01*
X42861Y98162D01*
X42645Y98579D01*
X42439Y99001D01*
X42243Y99429D01*
X42058Y99861D01*
X41883Y100297D01*
X41719Y100738D01*
X41567Y101182D01*
X41425Y101630D01*
X41294Y102081D01*
X41174Y102536D01*
X41065Y102993D01*
X40968Y103453D01*
X40882Y103915D01*
X40807Y104379D01*
X40744Y104845D01*
X40692Y105312D01*
X40652Y105780D01*
X40623Y106249D01*
X40606Y106719D01*
X40600Y107189D01*
X40600Y157989D02*
X40606Y158459D01*
X40623Y158929D01*
X40652Y159398D01*
X40692Y159866D01*
X40744Y160333D01*
X40807Y160799D01*
X40882Y161263D01*
X40968Y161725D01*
X41065Y162185D01*
X41174Y162642D01*
X41294Y163097D01*
X41425Y163548D01*
X41567Y163996D01*
X41719Y164440D01*
X41883Y164881D01*
X42058Y165317D01*
X42243Y165749D01*
X42439Y166177D01*
X42645Y166599D01*
X42861Y167016D01*
X43088Y167428D01*
X43324Y167834D01*
X43571Y168234D01*
X43827Y168628D01*
X44093Y169016D01*
X44369Y169397D01*
X44653Y169771D01*
X44947Y170138D01*
X45249Y170497D01*
X45561Y170849D01*
X45881Y171194D01*
X46209Y171530D01*
X46545Y171858D01*
X46890Y172178D01*
X47242Y172490D01*
X47601Y172792D01*
X47968Y173086D01*
X48342Y173370D01*
X48723Y173646D01*
X49111Y173912D01*
X49505Y174168D01*
X49905Y174415D01*
X50311Y174651D01*
X50723Y174878D01*
X51140Y175094D01*
X51562Y175300D01*
X51990Y175496D01*
X52422Y175681D01*
X52858Y175856D01*
X53299Y176020D01*
X53743Y176172D01*
X54191Y176314D01*
X54642Y176445D01*
X55097Y176565D01*
X55554Y176674D01*
X56014Y176771D01*
X56476Y176857D01*
X56940Y176932D01*
X57406Y176995D01*
X57873Y177047D01*
X58341Y177087D01*
X58810Y177116D01*
X59280Y177133D01*
X59750Y177139D01*
X60220Y177133D01*
X60690Y177116D01*
X61159Y177087D01*
X61627Y177047D01*
X62094Y176995D01*
X62560Y176932D01*
X63024Y176857D01*
X63486Y176771D01*
X63946Y176674D01*
X64403Y176565D01*
X64858Y176445D01*
X65309Y176314D01*
X65757Y176172D01*
X66201Y176020D01*
X66642Y175856D01*
X67078Y175681D01*
X67510Y175496D01*
X67938Y175300D01*
X68360Y175094D01*
X68777Y174878D01*
X69189Y174651D01*
X69595Y174415D01*
X69995Y174168D01*
X70389Y173912D01*
X70777Y173646D01*
X71158Y173370D01*
X71532Y173086D01*
X71899Y172792D01*
X72258Y172490D01*
X72610Y172178D01*
X72955Y171858D01*
X73291Y171530D01*
X73619Y171194D01*
X73939Y170849D01*
X74251Y170497D01*
X74553Y170138D01*
X74847Y169771D01*
X75131Y169397D01*
X75407Y169016D01*
X75673Y168628D01*
X75929Y168234D01*
X76176Y167834D01*
X76412Y167428D01*
X76639Y167016D01*
X76855Y166599D01*
X77061Y166177D01*
X77257Y165749D01*
X77442Y165317D01*
X77617Y164881D01*
X77781Y164440D01*
X77933Y163996D01*
X78075Y163548D01*
X78206Y163097D01*
X78326Y162642D01*
X78435Y162185D01*
X78532Y161725D01*
X78618Y161263D01*
X78693Y160799D01*
X78756Y160333D01*
X78808Y159866D01*
X78848Y159398D01*
X78877Y158929D01*
X78894Y158459D01*
X78900Y157989D01*
X78894Y157519D01*
X78877Y157049D01*
X78848Y156580D01*
X78808Y156112D01*
X78756Y155645D01*
X78693Y155179D01*
X78618Y154715D01*
X78532Y154253D01*
X78435Y153793D01*
X78326Y153336D01*
X78206Y152881D01*
X78075Y152430D01*
X77933Y151982D01*
X77781Y151538D01*
X77617Y151097D01*
X77442Y150661D01*
X77257Y150229D01*
X77061Y149801D01*
X76855Y149379D01*
X76639Y148962D01*
X76412Y148550D01*
X76176Y148144D01*
X75929Y147744D01*
X75673Y147350D01*
X75407Y146962D01*
X75131Y146581D01*
X74847Y146207D01*
X74553Y145840D01*
X74251Y145481D01*
X73939Y145129D01*
X73619Y144784D01*
X73291Y144448D01*
X72955Y144120D01*
X72610Y143800D01*
X72258Y143488D01*
X71899Y143186D01*
X71532Y142892D01*
X71158Y142608D01*
X70777Y142332D01*
X70389Y142066D01*
X69995Y141810D01*
X69595Y141563D01*
X69189Y141327D01*
X68777Y141100D01*
X68360Y140884D01*
X67938Y140678D01*
X67510Y140482D01*
X67078Y140297D01*
X66642Y140122D01*
X66201Y139958D01*
X65757Y139806D01*
X65309Y139664D01*
X64858Y139533D01*
X64403Y139413D01*
X63946Y139304D01*
X63486Y139207D01*
X63024Y139121D01*
X62560Y139046D01*
X62094Y138983D01*
X61627Y138931D01*
X61159Y138891D01*
X60690Y138862D01*
X60220Y138845D01*
X59750Y138839D01*
X59280Y138845D01*
X58810Y138862D01*
X58341Y138891D01*
X57873Y138931D01*
X57406Y138983D01*
X56940Y139046D01*
X56476Y139121D01*
X56014Y139207D01*
X55554Y139304D01*
X55097Y139413D01*
X54642Y139533D01*
X54191Y139664D01*
X53743Y139806D01*
X53299Y139958D01*
X52858Y140122D01*
X52422Y140297D01*
X51990Y140482D01*
X51562Y140678D01*
X51140Y140884D01*
X50723Y141100D01*
X50311Y141327D01*
X49905Y141563D01*
X49505Y141810D01*
X49111Y142066D01*
X48723Y142332D01*
X48342Y142608D01*
X47968Y142892D01*
X47601Y143186D01*
X47242Y143488D01*
X46890Y143800D01*
X46545Y144120D01*
X46209Y144448D01*
X45881Y144784D01*
X45561Y145129D01*
X45249Y145481D01*
X44947Y145840D01*
X44653Y146207D01*
X44369Y146581D01*
X44093Y146962D01*
X43827Y147350D01*
X43571Y147744D01*
X43324Y148144D01*
X43088Y148550D01*
X42861Y148962D01*
X42645Y149379D01*
X42439Y149801D01*
X42243Y150229D01*
X42058Y150661D01*
X41883Y151097D01*
X41719Y151538D01*
X41567Y151982D01*
X41425Y152430D01*
X41294Y152881D01*
X41174Y153336D01*
X41065Y153793D01*
X40968Y154253D01*
X40882Y154715D01*
X40807Y155179D01*
X40744Y155645D01*
X40692Y156112D01*
X40652Y156580D01*
X40623Y157049D01*
X40606Y157519D01*
X40600Y157989D01*
X134411Y103000D02*
X236011Y103000D01*
X236011Y37257D02*
X134411Y37257D01*
X236011Y82055D02*
X236011Y86979D01*
X236011Y95770D02*
X237298Y95770D01*
X237298Y91630D02*
X236011Y91630D01*
X236011Y93779D01*
X236011Y95770D01*
X239081Y90130D02*
X241711Y90130D01*
X241711Y97270D02*
X239081Y97270D01*
X236011Y91630D02*
X236011Y86979D01*
X237298Y95770D02*
X239081Y97270D01*
X241711Y97270D02*
X241711Y90130D01*
X236011Y42087D02*
X236011Y37257D01*
X236011Y42087D02*
X236011Y82055D01*
X239081Y90130D02*
X237298Y91630D01*
X236011Y86979D02*
X134411Y86979D01*
X134411Y82055D01*
X134411Y93779D02*
X236011Y93779D01*
X134411Y93779D02*
X134411Y86979D01*
X134411Y82055D02*
X134411Y42087D01*
X134411Y37257D01*
X134411Y22000D01*
X236011Y95770D02*
X236011Y100000D01*
X134411Y100000D02*
X134411Y93779D01*
X134411Y22000D02*
X236011Y22000D01*
X236011Y37257D01*
X236011Y100000D02*
X134411Y100000D01*
X236011Y100000D02*
X236011Y103000D01*
X134411Y103000D02*
X134411Y100000D01*
X191461Y62250D02*
X191467Y62720D01*
X191484Y63190D01*
X191513Y63659D01*
X191553Y64127D01*
X191605Y64594D01*
X191668Y65060D01*
X191743Y65524D01*
X191829Y65986D01*
X191926Y66446D01*
X192035Y66903D01*
X192155Y67358D01*
X192286Y67809D01*
X192428Y68257D01*
X192580Y68701D01*
X192744Y69142D01*
X192919Y69578D01*
X193104Y70010D01*
X193300Y70438D01*
X193506Y70860D01*
X193722Y71277D01*
X193949Y71689D01*
X194185Y72095D01*
X194432Y72495D01*
X194688Y72889D01*
X194954Y73277D01*
X195230Y73658D01*
X195514Y74032D01*
X195808Y74399D01*
X196110Y74758D01*
X196422Y75110D01*
X196742Y75455D01*
X197070Y75791D01*
X197406Y76119D01*
X197751Y76439D01*
X198103Y76751D01*
X198462Y77053D01*
X198829Y77347D01*
X199203Y77631D01*
X199584Y77907D01*
X199972Y78173D01*
X200366Y78429D01*
X200766Y78676D01*
X201172Y78912D01*
X201584Y79139D01*
X202001Y79355D01*
X202423Y79561D01*
X202851Y79757D01*
X203283Y79942D01*
X203719Y80117D01*
X204160Y80281D01*
X204604Y80433D01*
X205052Y80575D01*
X205503Y80706D01*
X205958Y80826D01*
X206415Y80935D01*
X206875Y81032D01*
X207337Y81118D01*
X207801Y81193D01*
X208267Y81256D01*
X208734Y81308D01*
X209202Y81348D01*
X209671Y81377D01*
X210141Y81394D01*
X210611Y81400D01*
X211081Y81394D01*
X211551Y81377D01*
X212020Y81348D01*
X212488Y81308D01*
X212955Y81256D01*
X213421Y81193D01*
X213885Y81118D01*
X214347Y81032D01*
X214807Y80935D01*
X215264Y80826D01*
X215719Y80706D01*
X216170Y80575D01*
X216618Y80433D01*
X217062Y80281D01*
X217503Y80117D01*
X217939Y79942D01*
X218371Y79757D01*
X218799Y79561D01*
X219221Y79355D01*
X219638Y79139D01*
X220050Y78912D01*
X220456Y78676D01*
X220856Y78429D01*
X221250Y78173D01*
X221638Y77907D01*
X222019Y77631D01*
X222393Y77347D01*
X222760Y77053D01*
X223119Y76751D01*
X223471Y76439D01*
X223816Y76119D01*
X224152Y75791D01*
X224480Y75455D01*
X224800Y75110D01*
X225112Y74758D01*
X225414Y74399D01*
X225708Y74032D01*
X225992Y73658D01*
X226268Y73277D01*
X226534Y72889D01*
X226790Y72495D01*
X227037Y72095D01*
X227273Y71689D01*
X227500Y71277D01*
X227716Y70860D01*
X227922Y70438D01*
X228118Y70010D01*
X228303Y69578D01*
X228478Y69142D01*
X228642Y68701D01*
X228794Y68257D01*
X228936Y67809D01*
X229067Y67358D01*
X229187Y66903D01*
X229296Y66446D01*
X229393Y65986D01*
X229479Y65524D01*
X229554Y65060D01*
X229617Y64594D01*
X229669Y64127D01*
X229709Y63659D01*
X229738Y63190D01*
X229755Y62720D01*
X229761Y62250D01*
X229755Y61780D01*
X229738Y61310D01*
X229709Y60841D01*
X229669Y60373D01*
X229617Y59906D01*
X229554Y59440D01*
X229479Y58976D01*
X229393Y58514D01*
X229296Y58054D01*
X229187Y57597D01*
X229067Y57142D01*
X228936Y56691D01*
X228794Y56243D01*
X228642Y55799D01*
X228478Y55358D01*
X228303Y54922D01*
X228118Y54490D01*
X227922Y54062D01*
X227716Y53640D01*
X227500Y53223D01*
X227273Y52811D01*
X227037Y52405D01*
X226790Y52005D01*
X226534Y51611D01*
X226268Y51223D01*
X225992Y50842D01*
X225708Y50468D01*
X225414Y50101D01*
X225112Y49742D01*
X224800Y49390D01*
X224480Y49045D01*
X224152Y48709D01*
X223816Y48381D01*
X223471Y48061D01*
X223119Y47749D01*
X222760Y47447D01*
X222393Y47153D01*
X222019Y46869D01*
X221638Y46593D01*
X221250Y46327D01*
X220856Y46071D01*
X220456Y45824D01*
X220050Y45588D01*
X219638Y45361D01*
X219221Y45145D01*
X218799Y44939D01*
X218371Y44743D01*
X217939Y44558D01*
X217503Y44383D01*
X217062Y44219D01*
X216618Y44067D01*
X216170Y43925D01*
X215719Y43794D01*
X215264Y43674D01*
X214807Y43565D01*
X214347Y43468D01*
X213885Y43382D01*
X213421Y43307D01*
X212955Y43244D01*
X212488Y43192D01*
X212020Y43152D01*
X211551Y43123D01*
X211081Y43106D01*
X210611Y43100D01*
X210141Y43106D01*
X209671Y43123D01*
X209202Y43152D01*
X208734Y43192D01*
X208267Y43244D01*
X207801Y43307D01*
X207337Y43382D01*
X206875Y43468D01*
X206415Y43565D01*
X205958Y43674D01*
X205503Y43794D01*
X205052Y43925D01*
X204604Y44067D01*
X204160Y44219D01*
X203719Y44383D01*
X203283Y44558D01*
X202851Y44743D01*
X202423Y44939D01*
X202001Y45145D01*
X201584Y45361D01*
X201172Y45588D01*
X200766Y45824D01*
X200366Y46071D01*
X199972Y46327D01*
X199584Y46593D01*
X199203Y46869D01*
X198829Y47153D01*
X198462Y47447D01*
X198103Y47749D01*
X197751Y48061D01*
X197406Y48381D01*
X197070Y48709D01*
X196742Y49045D01*
X196422Y49390D01*
X196110Y49742D01*
X195808Y50101D01*
X195514Y50468D01*
X195230Y50842D01*
X194954Y51223D01*
X194688Y51611D01*
X194432Y52005D01*
X194185Y52405D01*
X193949Y52811D01*
X193722Y53223D01*
X193506Y53640D01*
X193300Y54062D01*
X193104Y54490D01*
X192919Y54922D01*
X192744Y55358D01*
X192580Y55799D01*
X192428Y56243D01*
X192286Y56691D01*
X192155Y57142D01*
X192035Y57597D01*
X191926Y58054D01*
X191829Y58514D01*
X191743Y58976D01*
X191668Y59440D01*
X191605Y59906D01*
X191553Y60373D01*
X191513Y60841D01*
X191484Y61310D01*
X191467Y61780D01*
X191461Y62250D01*
X140661Y62250D02*
X140667Y62720D01*
X140684Y63190D01*
X140713Y63659D01*
X140753Y64127D01*
X140805Y64594D01*
X140868Y65060D01*
X140943Y65524D01*
X141029Y65986D01*
X141126Y66446D01*
X141235Y66903D01*
X141355Y67358D01*
X141486Y67809D01*
X141628Y68257D01*
X141780Y68701D01*
X141944Y69142D01*
X142119Y69578D01*
X142304Y70010D01*
X142500Y70438D01*
X142706Y70860D01*
X142922Y71277D01*
X143149Y71689D01*
X143385Y72095D01*
X143632Y72495D01*
X143888Y72889D01*
X144154Y73277D01*
X144430Y73658D01*
X144714Y74032D01*
X145008Y74399D01*
X145310Y74758D01*
X145622Y75110D01*
X145942Y75455D01*
X146270Y75791D01*
X146606Y76119D01*
X146951Y76439D01*
X147303Y76751D01*
X147662Y77053D01*
X148029Y77347D01*
X148403Y77631D01*
X148784Y77907D01*
X149172Y78173D01*
X149566Y78429D01*
X149966Y78676D01*
X150372Y78912D01*
X150784Y79139D01*
X151201Y79355D01*
X151623Y79561D01*
X152051Y79757D01*
X152483Y79942D01*
X152919Y80117D01*
X153360Y80281D01*
X153804Y80433D01*
X154252Y80575D01*
X154703Y80706D01*
X155158Y80826D01*
X155615Y80935D01*
X156075Y81032D01*
X156537Y81118D01*
X157001Y81193D01*
X157467Y81256D01*
X157934Y81308D01*
X158402Y81348D01*
X158871Y81377D01*
X159341Y81394D01*
X159811Y81400D01*
X160281Y81394D01*
X160751Y81377D01*
X161220Y81348D01*
X161688Y81308D01*
X162155Y81256D01*
X162621Y81193D01*
X163085Y81118D01*
X163547Y81032D01*
X164007Y80935D01*
X164464Y80826D01*
X164919Y80706D01*
X165370Y80575D01*
X165818Y80433D01*
X166262Y80281D01*
X166703Y80117D01*
X167139Y79942D01*
X167571Y79757D01*
X167999Y79561D01*
X168421Y79355D01*
X168838Y79139D01*
X169250Y78912D01*
X169656Y78676D01*
X170056Y78429D01*
X170450Y78173D01*
X170838Y77907D01*
X171219Y77631D01*
X171593Y77347D01*
X171960Y77053D01*
X172319Y76751D01*
X172671Y76439D01*
X173016Y76119D01*
X173352Y75791D01*
X173680Y75455D01*
X174000Y75110D01*
X174312Y74758D01*
X174614Y74399D01*
X174908Y74032D01*
X175192Y73658D01*
X175468Y73277D01*
X175734Y72889D01*
X175990Y72495D01*
X176237Y72095D01*
X176473Y71689D01*
X176700Y71277D01*
X176916Y70860D01*
X177122Y70438D01*
X177318Y70010D01*
X177503Y69578D01*
X177678Y69142D01*
X177842Y68701D01*
X177994Y68257D01*
X178136Y67809D01*
X178267Y67358D01*
X178387Y66903D01*
X178496Y66446D01*
X178593Y65986D01*
X178679Y65524D01*
X178754Y65060D01*
X178817Y64594D01*
X178869Y64127D01*
X178909Y63659D01*
X178938Y63190D01*
X178955Y62720D01*
X178961Y62250D01*
X178955Y61780D01*
X178938Y61310D01*
X178909Y60841D01*
X178869Y60373D01*
X178817Y59906D01*
X178754Y59440D01*
X178679Y58976D01*
X178593Y58514D01*
X178496Y58054D01*
X178387Y57597D01*
X178267Y57142D01*
X178136Y56691D01*
X177994Y56243D01*
X177842Y55799D01*
X177678Y55358D01*
X177503Y54922D01*
X177318Y54490D01*
X177122Y54062D01*
X176916Y53640D01*
X176700Y53223D01*
X176473Y52811D01*
X176237Y52405D01*
X175990Y52005D01*
X175734Y51611D01*
X175468Y51223D01*
X175192Y50842D01*
X174908Y50468D01*
X174614Y50101D01*
X174312Y49742D01*
X174000Y49390D01*
X173680Y49045D01*
X173352Y48709D01*
X173016Y48381D01*
X172671Y48061D01*
X172319Y47749D01*
X171960Y47447D01*
X171593Y47153D01*
X171219Y46869D01*
X170838Y46593D01*
X170450Y46327D01*
X170056Y46071D01*
X169656Y45824D01*
X169250Y45588D01*
X168838Y45361D01*
X168421Y45145D01*
X167999Y44939D01*
X167571Y44743D01*
X167139Y44558D01*
X166703Y44383D01*
X166262Y44219D01*
X165818Y44067D01*
X165370Y43925D01*
X164919Y43794D01*
X164464Y43674D01*
X164007Y43565D01*
X163547Y43468D01*
X163085Y43382D01*
X162621Y43307D01*
X162155Y43244D01*
X161688Y43192D01*
X161220Y43152D01*
X160751Y43123D01*
X160281Y43106D01*
X159811Y43100D01*
X159341Y43106D01*
X158871Y43123D01*
X158402Y43152D01*
X157934Y43192D01*
X157467Y43244D01*
X157001Y43307D01*
X156537Y43382D01*
X156075Y43468D01*
X155615Y43565D01*
X155158Y43674D01*
X154703Y43794D01*
X154252Y43925D01*
X153804Y44067D01*
X153360Y44219D01*
X152919Y44383D01*
X152483Y44558D01*
X152051Y44743D01*
X151623Y44939D01*
X151201Y45145D01*
X150784Y45361D01*
X150372Y45588D01*
X149966Y45824D01*
X149566Y46071D01*
X149172Y46327D01*
X148784Y46593D01*
X148403Y46869D01*
X148029Y47153D01*
X147662Y47447D01*
X147303Y47749D01*
X146951Y48061D01*
X146606Y48381D01*
X146270Y48709D01*
X145942Y49045D01*
X145622Y49390D01*
X145310Y49742D01*
X145008Y50101D01*
X144714Y50468D01*
X144430Y50842D01*
X144154Y51223D01*
X143888Y51611D01*
X143632Y52005D01*
X143385Y52405D01*
X143149Y52811D01*
X142922Y53223D01*
X142706Y53640D01*
X142500Y54062D01*
X142304Y54490D01*
X142119Y54922D01*
X141944Y55358D01*
X141780Y55799D01*
X141628Y56243D01*
X141486Y56691D01*
X141355Y57142D01*
X141235Y57597D01*
X141126Y58054D01*
X141029Y58514D01*
X140943Y58976D01*
X140868Y59440D01*
X140805Y59906D01*
X140753Y60373D01*
X140713Y60841D01*
X140684Y61310D01*
X140667Y61780D01*
X140661Y62250D01*
X269500Y84711D02*
X269500Y186311D01*
X335243Y186311D02*
X335243Y84711D01*
X290445Y186311D02*
X285521Y186311D01*
X276730Y186311D02*
X276730Y187598D01*
X280870Y187598D02*
X280870Y186311D01*
X278721Y186311D01*
X276730Y186311D01*
X282370Y189381D02*
X282370Y192011D01*
X275230Y192011D02*
X275230Y189381D01*
X280870Y186311D02*
X285521Y186311D01*
X276730Y187598D02*
X275230Y189381D01*
X275230Y192011D02*
X282370Y192011D01*
X330413Y186311D02*
X335243Y186311D01*
X330413Y186311D02*
X290445Y186311D01*
X282370Y189381D02*
X280870Y187598D01*
X285521Y186311D02*
X285521Y84711D01*
X290445Y84711D01*
X278721Y84711D02*
X278721Y186311D01*
X278721Y84711D02*
X285521Y84711D01*
X290445Y84711D02*
X330413Y84711D01*
X335243Y84711D01*
X350500Y84711D01*
X276730Y186311D02*
X272500Y186311D01*
X272500Y84711D02*
X278721Y84711D01*
X350500Y84711D02*
X350500Y186311D01*
X335243Y186311D01*
X272500Y186311D02*
X272500Y84711D01*
X272500Y186311D02*
X269500Y186311D01*
X269500Y84711D02*
X272500Y84711D01*
X291100Y160911D02*
X291106Y161381D01*
X291123Y161851D01*
X291152Y162320D01*
X291192Y162788D01*
X291244Y163255D01*
X291307Y163721D01*
X291382Y164185D01*
X291468Y164647D01*
X291565Y165107D01*
X291674Y165564D01*
X291794Y166019D01*
X291925Y166470D01*
X292067Y166918D01*
X292219Y167362D01*
X292383Y167803D01*
X292558Y168239D01*
X292743Y168671D01*
X292939Y169099D01*
X293145Y169521D01*
X293361Y169938D01*
X293588Y170350D01*
X293824Y170756D01*
X294071Y171156D01*
X294327Y171550D01*
X294593Y171938D01*
X294869Y172319D01*
X295153Y172693D01*
X295447Y173060D01*
X295749Y173419D01*
X296061Y173771D01*
X296381Y174116D01*
X296709Y174452D01*
X297045Y174780D01*
X297390Y175100D01*
X297742Y175412D01*
X298101Y175714D01*
X298468Y176008D01*
X298842Y176292D01*
X299223Y176568D01*
X299611Y176834D01*
X300005Y177090D01*
X300405Y177337D01*
X300811Y177573D01*
X301223Y177800D01*
X301640Y178016D01*
X302062Y178222D01*
X302490Y178418D01*
X302922Y178603D01*
X303358Y178778D01*
X303799Y178942D01*
X304243Y179094D01*
X304691Y179236D01*
X305142Y179367D01*
X305597Y179487D01*
X306054Y179596D01*
X306514Y179693D01*
X306976Y179779D01*
X307440Y179854D01*
X307906Y179917D01*
X308373Y179969D01*
X308841Y180009D01*
X309310Y180038D01*
X309780Y180055D01*
X310250Y180061D01*
X310720Y180055D01*
X311190Y180038D01*
X311659Y180009D01*
X312127Y179969D01*
X312594Y179917D01*
X313060Y179854D01*
X313524Y179779D01*
X313986Y179693D01*
X314446Y179596D01*
X314903Y179487D01*
X315358Y179367D01*
X315809Y179236D01*
X316257Y179094D01*
X316701Y178942D01*
X317142Y178778D01*
X317578Y178603D01*
X318010Y178418D01*
X318438Y178222D01*
X318860Y178016D01*
X319277Y177800D01*
X319689Y177573D01*
X320095Y177337D01*
X320495Y177090D01*
X320889Y176834D01*
X321277Y176568D01*
X321658Y176292D01*
X322032Y176008D01*
X322399Y175714D01*
X322758Y175412D01*
X323110Y175100D01*
X323455Y174780D01*
X323791Y174452D01*
X324119Y174116D01*
X324439Y173771D01*
X324751Y173419D01*
X325053Y173060D01*
X325347Y172693D01*
X325631Y172319D01*
X325907Y171938D01*
X326173Y171550D01*
X326429Y171156D01*
X326676Y170756D01*
X326912Y170350D01*
X327139Y169938D01*
X327355Y169521D01*
X327561Y169099D01*
X327757Y168671D01*
X327942Y168239D01*
X328117Y167803D01*
X328281Y167362D01*
X328433Y166918D01*
X328575Y166470D01*
X328706Y166019D01*
X328826Y165564D01*
X328935Y165107D01*
X329032Y164647D01*
X329118Y164185D01*
X329193Y163721D01*
X329256Y163255D01*
X329308Y162788D01*
X329348Y162320D01*
X329377Y161851D01*
X329394Y161381D01*
X329400Y160911D01*
X329394Y160441D01*
X329377Y159971D01*
X329348Y159502D01*
X329308Y159034D01*
X329256Y158567D01*
X329193Y158101D01*
X329118Y157637D01*
X329032Y157175D01*
X328935Y156715D01*
X328826Y156258D01*
X328706Y155803D01*
X328575Y155352D01*
X328433Y154904D01*
X328281Y154460D01*
X328117Y154019D01*
X327942Y153583D01*
X327757Y153151D01*
X327561Y152723D01*
X327355Y152301D01*
X327139Y151884D01*
X326912Y151472D01*
X326676Y151066D01*
X326429Y150666D01*
X326173Y150272D01*
X325907Y149884D01*
X325631Y149503D01*
X325347Y149129D01*
X325053Y148762D01*
X324751Y148403D01*
X324439Y148051D01*
X324119Y147706D01*
X323791Y147370D01*
X323455Y147042D01*
X323110Y146722D01*
X322758Y146410D01*
X322399Y146108D01*
X322032Y145814D01*
X321658Y145530D01*
X321277Y145254D01*
X320889Y144988D01*
X320495Y144732D01*
X320095Y144485D01*
X319689Y144249D01*
X319277Y144022D01*
X318860Y143806D01*
X318438Y143600D01*
X318010Y143404D01*
X317578Y143219D01*
X317142Y143044D01*
X316701Y142880D01*
X316257Y142728D01*
X315809Y142586D01*
X315358Y142455D01*
X314903Y142335D01*
X314446Y142226D01*
X313986Y142129D01*
X313524Y142043D01*
X313060Y141968D01*
X312594Y141905D01*
X312127Y141853D01*
X311659Y141813D01*
X311190Y141784D01*
X310720Y141767D01*
X310250Y141761D01*
X309780Y141767D01*
X309310Y141784D01*
X308841Y141813D01*
X308373Y141853D01*
X307906Y141905D01*
X307440Y141968D01*
X306976Y142043D01*
X306514Y142129D01*
X306054Y142226D01*
X305597Y142335D01*
X305142Y142455D01*
X304691Y142586D01*
X304243Y142728D01*
X303799Y142880D01*
X303358Y143044D01*
X302922Y143219D01*
X302490Y143404D01*
X302062Y143600D01*
X301640Y143806D01*
X301223Y144022D01*
X300811Y144249D01*
X300405Y144485D01*
X300005Y144732D01*
X299611Y144988D01*
X299223Y145254D01*
X298842Y145530D01*
X298468Y145814D01*
X298101Y146108D01*
X297742Y146410D01*
X297390Y146722D01*
X297045Y147042D01*
X296709Y147370D01*
X296381Y147706D01*
X296061Y148051D01*
X295749Y148403D01*
X295447Y148762D01*
X295153Y149129D01*
X294869Y149503D01*
X294593Y149884D01*
X294327Y150272D01*
X294071Y150666D01*
X293824Y151066D01*
X293588Y151472D01*
X293361Y151884D01*
X293145Y152301D01*
X292939Y152723D01*
X292743Y153151D01*
X292558Y153583D01*
X292383Y154019D01*
X292219Y154460D01*
X292067Y154904D01*
X291925Y155352D01*
X291794Y155803D01*
X291674Y156258D01*
X291565Y156715D01*
X291468Y157175D01*
X291382Y157637D01*
X291307Y158101D01*
X291244Y158567D01*
X291192Y159034D01*
X291152Y159502D01*
X291123Y159971D01*
X291106Y160441D01*
X291100Y160911D01*
X291100Y110111D02*
X291106Y110581D01*
X291123Y111051D01*
X291152Y111520D01*
X291192Y111988D01*
X291244Y112455D01*
X291307Y112921D01*
X291382Y113385D01*
X291468Y113847D01*
X291565Y114307D01*
X291674Y114764D01*
X291794Y115219D01*
X291925Y115670D01*
X292067Y116118D01*
X292219Y116562D01*
X292383Y117003D01*
X292558Y117439D01*
X292743Y117871D01*
X292939Y118299D01*
X293145Y118721D01*
X293361Y119138D01*
X293588Y119550D01*
X293824Y119956D01*
X294071Y120356D01*
X294327Y120750D01*
X294593Y121138D01*
X294869Y121519D01*
X295153Y121893D01*
X295447Y122260D01*
X295749Y122619D01*
X296061Y122971D01*
X296381Y123316D01*
X296709Y123652D01*
X297045Y123980D01*
X297390Y124300D01*
X297742Y124612D01*
X298101Y124914D01*
X298468Y125208D01*
X298842Y125492D01*
X299223Y125768D01*
X299611Y126034D01*
X300005Y126290D01*
X300405Y126537D01*
X300811Y126773D01*
X301223Y127000D01*
X301640Y127216D01*
X302062Y127422D01*
X302490Y127618D01*
X302922Y127803D01*
X303358Y127978D01*
X303799Y128142D01*
X304243Y128294D01*
X304691Y128436D01*
X305142Y128567D01*
X305597Y128687D01*
X306054Y128796D01*
X306514Y128893D01*
X306976Y128979D01*
X307440Y129054D01*
X307906Y129117D01*
X308373Y129169D01*
X308841Y129209D01*
X309310Y129238D01*
X309780Y129255D01*
X310250Y129261D01*
X310720Y129255D01*
X311190Y129238D01*
X311659Y129209D01*
X312127Y129169D01*
X312594Y129117D01*
X313060Y129054D01*
X313524Y128979D01*
X313986Y128893D01*
X314446Y128796D01*
X314903Y128687D01*
X315358Y128567D01*
X315809Y128436D01*
X316257Y128294D01*
X316701Y128142D01*
X317142Y127978D01*
X317578Y127803D01*
X318010Y127618D01*
X318438Y127422D01*
X318860Y127216D01*
X319277Y127000D01*
X319689Y126773D01*
X320095Y126537D01*
X320495Y126290D01*
X320889Y126034D01*
X321277Y125768D01*
X321658Y125492D01*
X322032Y125208D01*
X322399Y124914D01*
X322758Y124612D01*
X323110Y124300D01*
X323455Y123980D01*
X323791Y123652D01*
X324119Y123316D01*
X324439Y122971D01*
X324751Y122619D01*
X325053Y122260D01*
X325347Y121893D01*
X325631Y121519D01*
X325907Y121138D01*
X326173Y120750D01*
X326429Y120356D01*
X326676Y119956D01*
X326912Y119550D01*
X327139Y119138D01*
X327355Y118721D01*
X327561Y118299D01*
X327757Y117871D01*
X327942Y117439D01*
X328117Y117003D01*
X328281Y116562D01*
X328433Y116118D01*
X328575Y115670D01*
X328706Y115219D01*
X328826Y114764D01*
X328935Y114307D01*
X329032Y113847D01*
X329118Y113385D01*
X329193Y112921D01*
X329256Y112455D01*
X329308Y111988D01*
X329348Y111520D01*
X329377Y111051D01*
X329394Y110581D01*
X329400Y110111D01*
X329394Y109641D01*
X329377Y109171D01*
X329348Y108702D01*
X329308Y108234D01*
X329256Y107767D01*
X329193Y107301D01*
X329118Y106837D01*
X329032Y106375D01*
X328935Y105915D01*
X328826Y105458D01*
X328706Y105003D01*
X328575Y104552D01*
X328433Y104104D01*
X328281Y103660D01*
X328117Y103219D01*
X327942Y102783D01*
X327757Y102351D01*
X327561Y101923D01*
X327355Y101501D01*
X327139Y101084D01*
X326912Y100672D01*
X326676Y100266D01*
X326429Y99866D01*
X326173Y99472D01*
X325907Y99084D01*
X325631Y98703D01*
X325347Y98329D01*
X325053Y97962D01*
X324751Y97603D01*
X324439Y97251D01*
X324119Y96906D01*
X323791Y96570D01*
X323455Y96242D01*
X323110Y95922D01*
X322758Y95610D01*
X322399Y95308D01*
X322032Y95014D01*
X321658Y94730D01*
X321277Y94454D01*
X320889Y94188D01*
X320495Y93932D01*
X320095Y93685D01*
X319689Y93449D01*
X319277Y93222D01*
X318860Y93006D01*
X318438Y92800D01*
X318010Y92604D01*
X317578Y92419D01*
X317142Y92244D01*
X316701Y92080D01*
X316257Y91928D01*
X315809Y91786D01*
X315358Y91655D01*
X314903Y91535D01*
X314446Y91426D01*
X313986Y91329D01*
X313524Y91243D01*
X313060Y91168D01*
X312594Y91105D01*
X312127Y91053D01*
X311659Y91013D01*
X311190Y90984D01*
X310720Y90967D01*
X310250Y90961D01*
X309780Y90967D01*
X309310Y90984D01*
X308841Y91013D01*
X308373Y91053D01*
X307906Y91105D01*
X307440Y91168D01*
X306976Y91243D01*
X306514Y91329D01*
X306054Y91426D01*
X305597Y91535D01*
X305142Y91655D01*
X304691Y91786D01*
X304243Y91928D01*
X303799Y92080D01*
X303358Y92244D01*
X302922Y92419D01*
X302490Y92604D01*
X302062Y92800D01*
X301640Y93006D01*
X301223Y93222D01*
X300811Y93449D01*
X300405Y93685D01*
X300005Y93932D01*
X299611Y94188D01*
X299223Y94454D01*
X298842Y94730D01*
X298468Y95014D01*
X298101Y95308D01*
X297742Y95610D01*
X297390Y95922D01*
X297045Y96242D01*
X296709Y96570D01*
X296381Y96906D01*
X296061Y97251D01*
X295749Y97603D01*
X295447Y97962D01*
X295153Y98329D01*
X294869Y98703D01*
X294593Y99084D01*
X294327Y99472D01*
X294071Y99866D01*
X293824Y100266D01*
X293588Y100672D01*
X293361Y101084D01*
X293145Y101501D01*
X292939Y101923D01*
X292743Y102351D01*
X292558Y102783D01*
X292383Y103219D01*
X292219Y103660D01*
X292067Y104104D01*
X291925Y104552D01*
X291794Y105003D01*
X291674Y105458D01*
X291565Y105915D01*
X291468Y106375D01*
X291382Y106837D01*
X291307Y107301D01*
X291244Y107767D01*
X291192Y108234D01*
X291152Y108702D01*
X291123Y109171D01*
X291106Y109641D01*
X291100Y110111D01*
X269500Y186311D02*
X269500Y287911D01*
X335243Y287911D02*
X335243Y186311D01*
X290445Y287911D02*
X285521Y287911D01*
X276730Y287911D02*
X276730Y289198D01*
X280870Y289198D02*
X280870Y287911D01*
X278721Y287911D01*
X276730Y287911D01*
X282370Y290981D02*
X282370Y293611D01*
X275230Y293611D02*
X275230Y290981D01*
X280870Y287911D02*
X285521Y287911D01*
X276730Y289198D02*
X275230Y290981D01*
X275230Y293611D02*
X282370Y293611D01*
X330413Y287911D02*
X335243Y287911D01*
X330413Y287911D02*
X290445Y287911D01*
X282370Y290981D02*
X280870Y289198D01*
X285521Y287911D02*
X285521Y186311D01*
X290445Y186311D01*
X278721Y186311D02*
X278721Y287911D01*
X278721Y186311D02*
X285521Y186311D01*
X290445Y186311D02*
X330413Y186311D01*
X335243Y186311D01*
X350500Y186311D01*
X276730Y287911D02*
X272500Y287911D01*
X272500Y186311D02*
X278721Y186311D01*
X350500Y186311D02*
X350500Y287911D01*
X335243Y287911D01*
X272500Y287911D02*
X272500Y186311D01*
X272500Y287911D02*
X269500Y287911D01*
X269500Y186311D02*
X272500Y186311D01*
X291100Y262511D02*
X291106Y262981D01*
X291123Y263451D01*
X291152Y263920D01*
X291192Y264388D01*
X291244Y264855D01*
X291307Y265321D01*
X291382Y265785D01*
X291468Y266247D01*
X291565Y266707D01*
X291674Y267164D01*
X291794Y267619D01*
X291925Y268070D01*
X292067Y268518D01*
X292219Y268962D01*
X292383Y269403D01*
X292558Y269839D01*
X292743Y270271D01*
X292939Y270699D01*
X293145Y271121D01*
X293361Y271538D01*
X293588Y271950D01*
X293824Y272356D01*
X294071Y272756D01*
X294327Y273150D01*
X294593Y273538D01*
X294869Y273919D01*
X295153Y274293D01*
X295447Y274660D01*
X295749Y275019D01*
X296061Y275371D01*
X296381Y275716D01*
X296709Y276052D01*
X297045Y276380D01*
X297390Y276700D01*
X297742Y277012D01*
X298101Y277314D01*
X298468Y277608D01*
X298842Y277892D01*
X299223Y278168D01*
X299611Y278434D01*
X300005Y278690D01*
X300405Y278937D01*
X300811Y279173D01*
X301223Y279400D01*
X301640Y279616D01*
X302062Y279822D01*
X302490Y280018D01*
X302922Y280203D01*
X303358Y280378D01*
X303799Y280542D01*
X304243Y280694D01*
X304691Y280836D01*
X305142Y280967D01*
X305597Y281087D01*
X306054Y281196D01*
X306514Y281293D01*
X306976Y281379D01*
X307440Y281454D01*
X307906Y281517D01*
X308373Y281569D01*
X308841Y281609D01*
X309310Y281638D01*
X309780Y281655D01*
X310250Y281661D01*
X310720Y281655D01*
X311190Y281638D01*
X311659Y281609D01*
X312127Y281569D01*
X312594Y281517D01*
X313060Y281454D01*
X313524Y281379D01*
X313986Y281293D01*
X314446Y281196D01*
X314903Y281087D01*
X315358Y280967D01*
X315809Y280836D01*
X316257Y280694D01*
X316701Y280542D01*
X317142Y280378D01*
X317578Y280203D01*
X318010Y280018D01*
X318438Y279822D01*
X318860Y279616D01*
X319277Y279400D01*
X319689Y279173D01*
X320095Y278937D01*
X320495Y278690D01*
X320889Y278434D01*
X321277Y278168D01*
X321658Y277892D01*
X322032Y277608D01*
X322399Y277314D01*
X322758Y277012D01*
X323110Y276700D01*
X323455Y276380D01*
X323791Y276052D01*
X324119Y275716D01*
X324439Y275371D01*
X324751Y275019D01*
X325053Y274660D01*
X325347Y274293D01*
X325631Y273919D01*
X325907Y273538D01*
X326173Y273150D01*
X326429Y272756D01*
X326676Y272356D01*
X326912Y271950D01*
X327139Y271538D01*
X327355Y271121D01*
X327561Y270699D01*
X327757Y270271D01*
X327942Y269839D01*
X328117Y269403D01*
X328281Y268962D01*
X328433Y268518D01*
X328575Y268070D01*
X328706Y267619D01*
X328826Y267164D01*
X328935Y266707D01*
X329032Y266247D01*
X329118Y265785D01*
X329193Y265321D01*
X329256Y264855D01*
X329308Y264388D01*
X329348Y263920D01*
X329377Y263451D01*
X329394Y262981D01*
X329400Y262511D01*
X329394Y262041D01*
X329377Y261571D01*
X329348Y261102D01*
X329308Y260634D01*
X329256Y260167D01*
X329193Y259701D01*
X329118Y259237D01*
X329032Y258775D01*
X328935Y258315D01*
X328826Y257858D01*
X328706Y257403D01*
X328575Y256952D01*
X328433Y256504D01*
X328281Y256060D01*
X328117Y255619D01*
X327942Y255183D01*
X327757Y254751D01*
X327561Y254323D01*
X327355Y253901D01*
X327139Y253484D01*
X326912Y253072D01*
X326676Y252666D01*
X326429Y252266D01*
X326173Y251872D01*
X325907Y251484D01*
X325631Y251103D01*
X325347Y250729D01*
X325053Y250362D01*
X324751Y250003D01*
X324439Y249651D01*
X324119Y249306D01*
X323791Y248970D01*
X323455Y248642D01*
X323110Y248322D01*
X322758Y248010D01*
X322399Y247708D01*
X322032Y247414D01*
X321658Y247130D01*
X321277Y246854D01*
X320889Y246588D01*
X320495Y246332D01*
X320095Y246085D01*
X319689Y245849D01*
X319277Y245622D01*
X318860Y245406D01*
X318438Y245200D01*
X318010Y245004D01*
X317578Y244819D01*
X317142Y244644D01*
X316701Y244480D01*
X316257Y244328D01*
X315809Y244186D01*
X315358Y244055D01*
X314903Y243935D01*
X314446Y243826D01*
X313986Y243729D01*
X313524Y243643D01*
X313060Y243568D01*
X312594Y243505D01*
X312127Y243453D01*
X311659Y243413D01*
X311190Y243384D01*
X310720Y243367D01*
X310250Y243361D01*
X309780Y243367D01*
X309310Y243384D01*
X308841Y243413D01*
X308373Y243453D01*
X307906Y243505D01*
X307440Y243568D01*
X306976Y243643D01*
X306514Y243729D01*
X306054Y243826D01*
X305597Y243935D01*
X305142Y244055D01*
X304691Y244186D01*
X304243Y244328D01*
X303799Y244480D01*
X303358Y244644D01*
X302922Y244819D01*
X302490Y245004D01*
X302062Y245200D01*
X301640Y245406D01*
X301223Y245622D01*
X300811Y245849D01*
X300405Y246085D01*
X300005Y246332D01*
X299611Y246588D01*
X299223Y246854D01*
X298842Y247130D01*
X298468Y247414D01*
X298101Y247708D01*
X297742Y248010D01*
X297390Y248322D01*
X297045Y248642D01*
X296709Y248970D01*
X296381Y249306D01*
X296061Y249651D01*
X295749Y250003D01*
X295447Y250362D01*
X295153Y250729D01*
X294869Y251103D01*
X294593Y251484D01*
X294327Y251872D01*
X294071Y252266D01*
X293824Y252666D01*
X293588Y253072D01*
X293361Y253484D01*
X293145Y253901D01*
X292939Y254323D01*
X292743Y254751D01*
X292558Y255183D01*
X292383Y255619D01*
X292219Y256060D01*
X292067Y256504D01*
X291925Y256952D01*
X291794Y257403D01*
X291674Y257858D01*
X291565Y258315D01*
X291468Y258775D01*
X291382Y259237D01*
X291307Y259701D01*
X291244Y260167D01*
X291192Y260634D01*
X291152Y261102D01*
X291123Y261571D01*
X291106Y262041D01*
X291100Y262511D01*
X291100Y211711D02*
X291106Y212181D01*
X291123Y212651D01*
X291152Y213120D01*
X291192Y213588D01*
X291244Y214055D01*
X291307Y214521D01*
X291382Y214985D01*
X291468Y215447D01*
X291565Y215907D01*
X291674Y216364D01*
X291794Y216819D01*
X291925Y217270D01*
X292067Y217718D01*
X292219Y218162D01*
X292383Y218603D01*
X292558Y219039D01*
X292743Y219471D01*
X292939Y219899D01*
X293145Y220321D01*
X293361Y220738D01*
X293588Y221150D01*
X293824Y221556D01*
X294071Y221956D01*
X294327Y222350D01*
X294593Y222738D01*
X294869Y223119D01*
X295153Y223493D01*
X295447Y223860D01*
X295749Y224219D01*
X296061Y224571D01*
X296381Y224916D01*
X296709Y225252D01*
X297045Y225580D01*
X297390Y225900D01*
X297742Y226212D01*
X298101Y226514D01*
X298468Y226808D01*
X298842Y227092D01*
X299223Y227368D01*
X299611Y227634D01*
X300005Y227890D01*
X300405Y228137D01*
X300811Y228373D01*
X301223Y228600D01*
X301640Y228816D01*
X302062Y229022D01*
X302490Y229218D01*
X302922Y229403D01*
X303358Y229578D01*
X303799Y229742D01*
X304243Y229894D01*
X304691Y230036D01*
X305142Y230167D01*
X305597Y230287D01*
X306054Y230396D01*
X306514Y230493D01*
X306976Y230579D01*
X307440Y230654D01*
X307906Y230717D01*
X308373Y230769D01*
X308841Y230809D01*
X309310Y230838D01*
X309780Y230855D01*
X310250Y230861D01*
X310720Y230855D01*
X311190Y230838D01*
X311659Y230809D01*
X312127Y230769D01*
X312594Y230717D01*
X313060Y230654D01*
X313524Y230579D01*
X313986Y230493D01*
X314446Y230396D01*
X314903Y230287D01*
X315358Y230167D01*
X315809Y230036D01*
X316257Y229894D01*
X316701Y229742D01*
X317142Y229578D01*
X317578Y229403D01*
X318010Y229218D01*
X318438Y229022D01*
X318860Y228816D01*
X319277Y228600D01*
X319689Y228373D01*
X320095Y228137D01*
X320495Y227890D01*
X320889Y227634D01*
X321277Y227368D01*
X321658Y227092D01*
X322032Y226808D01*
X322399Y226514D01*
X322758Y226212D01*
X323110Y225900D01*
X323455Y225580D01*
X323791Y225252D01*
X324119Y224916D01*
X324439Y224571D01*
X324751Y224219D01*
X325053Y223860D01*
X325347Y223493D01*
X325631Y223119D01*
X325907Y222738D01*
X326173Y222350D01*
X326429Y221956D01*
X326676Y221556D01*
X326912Y221150D01*
X327139Y220738D01*
X327355Y220321D01*
X327561Y219899D01*
X327757Y219471D01*
X327942Y219039D01*
X328117Y218603D01*
X328281Y218162D01*
X328433Y217718D01*
X328575Y217270D01*
X328706Y216819D01*
X328826Y216364D01*
X328935Y215907D01*
X329032Y215447D01*
X329118Y214985D01*
X329193Y214521D01*
X329256Y214055D01*
X329308Y213588D01*
X329348Y213120D01*
X329377Y212651D01*
X329394Y212181D01*
X329400Y211711D01*
X329394Y211241D01*
X329377Y210771D01*
X329348Y210302D01*
X329308Y209834D01*
X329256Y209367D01*
X329193Y208901D01*
X329118Y208437D01*
X329032Y207975D01*
X328935Y207515D01*
X328826Y207058D01*
X328706Y206603D01*
X328575Y206152D01*
X328433Y205704D01*
X328281Y205260D01*
X328117Y204819D01*
X327942Y204383D01*
X327757Y203951D01*
X327561Y203523D01*
X327355Y203101D01*
X327139Y202684D01*
X326912Y202272D01*
X326676Y201866D01*
X326429Y201466D01*
X326173Y201072D01*
X325907Y200684D01*
X325631Y200303D01*
X325347Y199929D01*
X325053Y199562D01*
X324751Y199203D01*
X324439Y198851D01*
X324119Y198506D01*
X323791Y198170D01*
X323455Y197842D01*
X323110Y197522D01*
X322758Y197210D01*
X322399Y196908D01*
X322032Y196614D01*
X321658Y196330D01*
X321277Y196054D01*
X320889Y195788D01*
X320495Y195532D01*
X320095Y195285D01*
X319689Y195049D01*
X319277Y194822D01*
X318860Y194606D01*
X318438Y194400D01*
X318010Y194204D01*
X317578Y194019D01*
X317142Y193844D01*
X316701Y193680D01*
X316257Y193528D01*
X315809Y193386D01*
X315358Y193255D01*
X314903Y193135D01*
X314446Y193026D01*
X313986Y192929D01*
X313524Y192843D01*
X313060Y192768D01*
X312594Y192705D01*
X312127Y192653D01*
X311659Y192613D01*
X311190Y192584D01*
X310720Y192567D01*
X310250Y192561D01*
X309780Y192567D01*
X309310Y192584D01*
X308841Y192613D01*
X308373Y192653D01*
X307906Y192705D01*
X307440Y192768D01*
X306976Y192843D01*
X306514Y192929D01*
X306054Y193026D01*
X305597Y193135D01*
X305142Y193255D01*
X304691Y193386D01*
X304243Y193528D01*
X303799Y193680D01*
X303358Y193844D01*
X302922Y194019D01*
X302490Y194204D01*
X302062Y194400D01*
X301640Y194606D01*
X301223Y194822D01*
X300811Y195049D01*
X300405Y195285D01*
X300005Y195532D01*
X299611Y195788D01*
X299223Y196054D01*
X298842Y196330D01*
X298468Y196614D01*
X298101Y196908D01*
X297742Y197210D01*
X297390Y197522D01*
X297045Y197842D01*
X296709Y198170D01*
X296381Y198506D01*
X296061Y198851D01*
X295749Y199203D01*
X295447Y199562D01*
X295153Y199929D01*
X294869Y200303D01*
X294593Y200684D01*
X294327Y201072D01*
X294071Y201466D01*
X293824Y201866D01*
X293588Y202272D01*
X293361Y202684D01*
X293145Y203101D01*
X292939Y203523D01*
X292743Y203951D01*
X292558Y204383D01*
X292383Y204819D01*
X292219Y205260D01*
X292067Y205704D01*
X291925Y206152D01*
X291794Y206603D01*
X291674Y207058D01*
X291565Y207515D01*
X291468Y207975D01*
X291382Y208437D01*
X291307Y208901D01*
X291244Y209367D01*
X291192Y209834D01*
X291152Y210302D01*
X291123Y210771D01*
X291106Y211241D01*
X291100Y211711D01*
X269500Y287911D02*
X269500Y389511D01*
X335243Y389511D02*
X335243Y287911D01*
X290445Y389511D02*
X285521Y389511D01*
X276730Y389511D02*
X276730Y390798D01*
X280870Y390798D02*
X280870Y389511D01*
X278721Y389511D01*
X276730Y389511D01*
X282370Y392581D02*
X282370Y395211D01*
X275230Y395211D02*
X275230Y392581D01*
X280870Y389511D02*
X285521Y389511D01*
X276730Y390798D02*
X275230Y392581D01*
X275230Y395211D02*
X282370Y395211D01*
X330413Y389511D02*
X335243Y389511D01*
X330413Y389511D02*
X290445Y389511D01*
X282370Y392581D02*
X280870Y390798D01*
X285521Y389511D02*
X285521Y287911D01*
X290445Y287911D01*
X278721Y287911D02*
X278721Y389511D01*
X278721Y287911D02*
X285521Y287911D01*
X290445Y287911D02*
X330413Y287911D01*
X335243Y287911D01*
X350500Y287911D01*
X276730Y389511D02*
X272500Y389511D01*
X272500Y287911D02*
X278721Y287911D01*
X350500Y287911D02*
X350500Y389511D01*
X335243Y389511D01*
X272500Y389511D02*
X272500Y287911D01*
X272500Y389511D02*
X269500Y389511D01*
X269500Y287911D02*
X272500Y287911D01*
X291100Y364111D02*
X291106Y364581D01*
X291123Y365051D01*
X291152Y365520D01*
X291192Y365988D01*
X291244Y366455D01*
X291307Y366921D01*
X291382Y367385D01*
X291468Y367847D01*
X291565Y368307D01*
X291674Y368764D01*
X291794Y369219D01*
X291925Y369670D01*
X292067Y370118D01*
X292219Y370562D01*
X292383Y371003D01*
X292558Y371439D01*
X292743Y371871D01*
X292939Y372299D01*
X293145Y372721D01*
X293361Y373138D01*
X293588Y373550D01*
X293824Y373956D01*
X294071Y374356D01*
X294327Y374750D01*
X294593Y375138D01*
X294869Y375519D01*
X295153Y375893D01*
X295447Y376260D01*
X295749Y376619D01*
X296061Y376971D01*
X296381Y377316D01*
X296709Y377652D01*
X297045Y377980D01*
X297390Y378300D01*
X297742Y378612D01*
X298101Y378914D01*
X298468Y379208D01*
X298842Y379492D01*
X299223Y379768D01*
X299611Y380034D01*
X300005Y380290D01*
X300405Y380537D01*
X300811Y380773D01*
X301223Y381000D01*
X301640Y381216D01*
X302062Y381422D01*
X302490Y381618D01*
X302922Y381803D01*
X303358Y381978D01*
X303799Y382142D01*
X304243Y382294D01*
X304691Y382436D01*
X305142Y382567D01*
X305597Y382687D01*
X306054Y382796D01*
X306514Y382893D01*
X306976Y382979D01*
X307440Y383054D01*
X307906Y383117D01*
X308373Y383169D01*
X308841Y383209D01*
X309310Y383238D01*
X309780Y383255D01*
X310250Y383261D01*
X310720Y383255D01*
X311190Y383238D01*
X311659Y383209D01*
X312127Y383169D01*
X312594Y383117D01*
X313060Y383054D01*
X313524Y382979D01*
X313986Y382893D01*
X314446Y382796D01*
X314903Y382687D01*
X315358Y382567D01*
X315809Y382436D01*
X316257Y382294D01*
X316701Y382142D01*
X317142Y381978D01*
X317578Y381803D01*
X318010Y381618D01*
X318438Y381422D01*
X318860Y381216D01*
X319277Y381000D01*
X319689Y380773D01*
X320095Y380537D01*
X320495Y380290D01*
X320889Y380034D01*
X321277Y379768D01*
X321658Y379492D01*
X322032Y379208D01*
X322399Y378914D01*
X322758Y378612D01*
X323110Y378300D01*
X323455Y377980D01*
X323791Y377652D01*
X324119Y377316D01*
X324439Y376971D01*
X324751Y376619D01*
X325053Y376260D01*
X325347Y375893D01*
X325631Y375519D01*
X325907Y375138D01*
X326173Y374750D01*
X326429Y374356D01*
X326676Y373956D01*
X326912Y373550D01*
X327139Y373138D01*
X327355Y372721D01*
X327561Y372299D01*
X327757Y371871D01*
X327942Y371439D01*
X328117Y371003D01*
X328281Y370562D01*
X328433Y370118D01*
X328575Y369670D01*
X328706Y369219D01*
X328826Y368764D01*
X328935Y368307D01*
X329032Y367847D01*
X329118Y367385D01*
X329193Y366921D01*
X329256Y366455D01*
X329308Y365988D01*
X329348Y365520D01*
X329377Y365051D01*
X329394Y364581D01*
X329400Y364111D01*
X329394Y363641D01*
X329377Y363171D01*
X329348Y362702D01*
X329308Y362234D01*
X329256Y361767D01*
X329193Y361301D01*
X329118Y360837D01*
X329032Y360375D01*
X328935Y359915D01*
X328826Y359458D01*
X328706Y359003D01*
X328575Y358552D01*
X328433Y358104D01*
X328281Y357660D01*
X328117Y357219D01*
X327942Y356783D01*
X327757Y356351D01*
X327561Y355923D01*
X327355Y355501D01*
X327139Y355084D01*
X326912Y354672D01*
X326676Y354266D01*
X326429Y353866D01*
X326173Y353472D01*
X325907Y353084D01*
X325631Y352703D01*
X325347Y352329D01*
X325053Y351962D01*
X324751Y351603D01*
X324439Y351251D01*
X324119Y350906D01*
X323791Y350570D01*
X323455Y350242D01*
X323110Y349922D01*
X322758Y349610D01*
X322399Y349308D01*
X322032Y349014D01*
X321658Y348730D01*
X321277Y348454D01*
X320889Y348188D01*
X320495Y347932D01*
X320095Y347685D01*
X319689Y347449D01*
X319277Y347222D01*
X318860Y347006D01*
X318438Y346800D01*
X318010Y346604D01*
X317578Y346419D01*
X317142Y346244D01*
X316701Y346080D01*
X316257Y345928D01*
X315809Y345786D01*
X315358Y345655D01*
X314903Y345535D01*
X314446Y345426D01*
X313986Y345329D01*
X313524Y345243D01*
X313060Y345168D01*
X312594Y345105D01*
X312127Y345053D01*
X311659Y345013D01*
X311190Y344984D01*
X310720Y344967D01*
X310250Y344961D01*
X309780Y344967D01*
X309310Y344984D01*
X308841Y345013D01*
X308373Y345053D01*
X307906Y345105D01*
X307440Y345168D01*
X306976Y345243D01*
X306514Y345329D01*
X306054Y345426D01*
X305597Y345535D01*
X305142Y345655D01*
X304691Y345786D01*
X304243Y345928D01*
X303799Y346080D01*
X303358Y346244D01*
X302922Y346419D01*
X302490Y346604D01*
X302062Y346800D01*
X301640Y347006D01*
X301223Y347222D01*
X300811Y347449D01*
X300405Y347685D01*
X300005Y347932D01*
X299611Y348188D01*
X299223Y348454D01*
X298842Y348730D01*
X298468Y349014D01*
X298101Y349308D01*
X297742Y349610D01*
X297390Y349922D01*
X297045Y350242D01*
X296709Y350570D01*
X296381Y350906D01*
X296061Y351251D01*
X295749Y351603D01*
X295447Y351962D01*
X295153Y352329D01*
X294869Y352703D01*
X294593Y353084D01*
X294327Y353472D01*
X294071Y353866D01*
X293824Y354266D01*
X293588Y354672D01*
X293361Y355084D01*
X293145Y355501D01*
X292939Y355923D01*
X292743Y356351D01*
X292558Y356783D01*
X292383Y357219D01*
X292219Y357660D01*
X292067Y358104D01*
X291925Y358552D01*
X291794Y359003D01*
X291674Y359458D01*
X291565Y359915D01*
X291468Y360375D01*
X291382Y360837D01*
X291307Y361301D01*
X291244Y361767D01*
X291192Y362234D01*
X291152Y362702D01*
X291123Y363171D01*
X291106Y363641D01*
X291100Y364111D01*
X291100Y313311D02*
X291106Y313781D01*
X291123Y314251D01*
X291152Y314720D01*
X291192Y315188D01*
X291244Y315655D01*
X291307Y316121D01*
X291382Y316585D01*
X291468Y317047D01*
X291565Y317507D01*
X291674Y317964D01*
X291794Y318419D01*
X291925Y318870D01*
X292067Y319318D01*
X292219Y319762D01*
X292383Y320203D01*
X292558Y320639D01*
X292743Y321071D01*
X292939Y321499D01*
X293145Y321921D01*
X293361Y322338D01*
X293588Y322750D01*
X293824Y323156D01*
X294071Y323556D01*
X294327Y323950D01*
X294593Y324338D01*
X294869Y324719D01*
X295153Y325093D01*
X295447Y325460D01*
X295749Y325819D01*
X296061Y326171D01*
X296381Y326516D01*
X296709Y326852D01*
X297045Y327180D01*
X297390Y327500D01*
X297742Y327812D01*
X298101Y328114D01*
X298468Y328408D01*
X298842Y328692D01*
X299223Y328968D01*
X299611Y329234D01*
X300005Y329490D01*
X300405Y329737D01*
X300811Y329973D01*
X301223Y330200D01*
X301640Y330416D01*
X302062Y330622D01*
X302490Y330818D01*
X302922Y331003D01*
X303358Y331178D01*
X303799Y331342D01*
X304243Y331494D01*
X304691Y331636D01*
X305142Y331767D01*
X305597Y331887D01*
X306054Y331996D01*
X306514Y332093D01*
X306976Y332179D01*
X307440Y332254D01*
X307906Y332317D01*
X308373Y332369D01*
X308841Y332409D01*
X309310Y332438D01*
X309780Y332455D01*
X310250Y332461D01*
X310720Y332455D01*
X311190Y332438D01*
X311659Y332409D01*
X312127Y332369D01*
X312594Y332317D01*
X313060Y332254D01*
X313524Y332179D01*
X313986Y332093D01*
X314446Y331996D01*
X314903Y331887D01*
X315358Y331767D01*
X315809Y331636D01*
X316257Y331494D01*
X316701Y331342D01*
X317142Y331178D01*
X317578Y331003D01*
X318010Y330818D01*
X318438Y330622D01*
X318860Y330416D01*
X319277Y330200D01*
X319689Y329973D01*
X320095Y329737D01*
X320495Y329490D01*
X320889Y329234D01*
X321277Y328968D01*
X321658Y328692D01*
X322032Y328408D01*
X322399Y328114D01*
X322758Y327812D01*
X323110Y327500D01*
X323455Y327180D01*
X323791Y326852D01*
X324119Y326516D01*
X324439Y326171D01*
X324751Y325819D01*
X325053Y325460D01*
X325347Y325093D01*
X325631Y324719D01*
X325907Y324338D01*
X326173Y323950D01*
X326429Y323556D01*
X326676Y323156D01*
X326912Y322750D01*
X327139Y322338D01*
X327355Y321921D01*
X327561Y321499D01*
X327757Y321071D01*
X327942Y320639D01*
X328117Y320203D01*
X328281Y319762D01*
X328433Y319318D01*
X328575Y318870D01*
X328706Y318419D01*
X328826Y317964D01*
X328935Y317507D01*
X329032Y317047D01*
X329118Y316585D01*
X329193Y316121D01*
X329256Y315655D01*
X329308Y315188D01*
X329348Y314720D01*
X329377Y314251D01*
X329394Y313781D01*
X329400Y313311D01*
X329394Y312841D01*
X329377Y312371D01*
X329348Y311902D01*
X329308Y311434D01*
X329256Y310967D01*
X329193Y310501D01*
X329118Y310037D01*
X329032Y309575D01*
X328935Y309115D01*
X328826Y308658D01*
X328706Y308203D01*
X328575Y307752D01*
X328433Y307304D01*
X328281Y306860D01*
X328117Y306419D01*
X327942Y305983D01*
X327757Y305551D01*
X327561Y305123D01*
X327355Y304701D01*
X327139Y304284D01*
X326912Y303872D01*
X326676Y303466D01*
X326429Y303066D01*
X326173Y302672D01*
X325907Y302284D01*
X325631Y301903D01*
X325347Y301529D01*
X325053Y301162D01*
X324751Y300803D01*
X324439Y300451D01*
X324119Y300106D01*
X323791Y299770D01*
X323455Y299442D01*
X323110Y299122D01*
X322758Y298810D01*
X322399Y298508D01*
X322032Y298214D01*
X321658Y297930D01*
X321277Y297654D01*
X320889Y297388D01*
X320495Y297132D01*
X320095Y296885D01*
X319689Y296649D01*
X319277Y296422D01*
X318860Y296206D01*
X318438Y296000D01*
X318010Y295804D01*
X317578Y295619D01*
X317142Y295444D01*
X316701Y295280D01*
X316257Y295128D01*
X315809Y294986D01*
X315358Y294855D01*
X314903Y294735D01*
X314446Y294626D01*
X313986Y294529D01*
X313524Y294443D01*
X313060Y294368D01*
X312594Y294305D01*
X312127Y294253D01*
X311659Y294213D01*
X311190Y294184D01*
X310720Y294167D01*
X310250Y294161D01*
X309780Y294167D01*
X309310Y294184D01*
X308841Y294213D01*
X308373Y294253D01*
X307906Y294305D01*
X307440Y294368D01*
X306976Y294443D01*
X306514Y294529D01*
X306054Y294626D01*
X305597Y294735D01*
X305142Y294855D01*
X304691Y294986D01*
X304243Y295128D01*
X303799Y295280D01*
X303358Y295444D01*
X302922Y295619D01*
X302490Y295804D01*
X302062Y296000D01*
X301640Y296206D01*
X301223Y296422D01*
X300811Y296649D01*
X300405Y296885D01*
X300005Y297132D01*
X299611Y297388D01*
X299223Y297654D01*
X298842Y297930D01*
X298468Y298214D01*
X298101Y298508D01*
X297742Y298810D01*
X297390Y299122D01*
X297045Y299442D01*
X296709Y299770D01*
X296381Y300106D01*
X296061Y300451D01*
X295749Y300803D01*
X295447Y301162D01*
X295153Y301529D01*
X294869Y301903D01*
X294593Y302284D01*
X294327Y302672D01*
X294071Y303066D01*
X293824Y303466D01*
X293588Y303872D01*
X293361Y304284D01*
X293145Y304701D01*
X292939Y305123D01*
X292743Y305551D01*
X292558Y305983D01*
X292383Y306419D01*
X292219Y306860D01*
X292067Y307304D01*
X291925Y307752D01*
X291794Y308203D01*
X291674Y308658D01*
X291565Y309115D01*
X291468Y309575D01*
X291382Y310037D01*
X291307Y310501D01*
X291244Y310967D01*
X291192Y311434D01*
X291152Y311902D01*
X291123Y312371D01*
X291106Y312841D01*
X291100Y313311D01*
X235589Y367000D02*
X133989Y367000D01*
X133989Y432743D02*
X235589Y432743D01*
X133989Y387945D02*
X133989Y383021D01*
X133989Y374230D02*
X132702Y374230D01*
X132702Y378370D02*
X133989Y378370D01*
X133989Y376221D01*
X133989Y374230D01*
X130919Y379870D02*
X128289Y379870D01*
X128289Y372730D02*
X130919Y372730D01*
X133989Y378370D02*
X133989Y383021D01*
X132702Y374230D02*
X130919Y372730D01*
X128289Y372730D02*
X128289Y379870D01*
X133989Y427913D02*
X133989Y432743D01*
X133989Y427913D02*
X133989Y387945D01*
X130919Y379870D02*
X132702Y378370D01*
X133989Y383021D02*
X235589Y383021D01*
X235589Y387945D01*
X235589Y376221D02*
X133989Y376221D01*
X235589Y376221D02*
X235589Y383021D01*
X235589Y387945D02*
X235589Y427913D01*
X235589Y432743D01*
X235589Y448000D01*
X133989Y374230D02*
X133989Y370000D01*
X235589Y370000D02*
X235589Y376221D01*
X235589Y448000D02*
X133989Y448000D01*
X133989Y432743D01*
X133989Y370000D02*
X235589Y370000D01*
X133989Y370000D02*
X133989Y367000D01*
X235589Y367000D02*
X235589Y370000D01*
X140239Y407750D02*
X140245Y408220D01*
X140262Y408690D01*
X140291Y409159D01*
X140331Y409627D01*
X140383Y410094D01*
X140446Y410560D01*
X140521Y411024D01*
X140607Y411486D01*
X140704Y411946D01*
X140813Y412403D01*
X140933Y412858D01*
X141064Y413309D01*
X141206Y413757D01*
X141358Y414201D01*
X141522Y414642D01*
X141697Y415078D01*
X141882Y415510D01*
X142078Y415938D01*
X142284Y416360D01*
X142500Y416777D01*
X142727Y417189D01*
X142963Y417595D01*
X143210Y417995D01*
X143466Y418389D01*
X143732Y418777D01*
X144008Y419158D01*
X144292Y419532D01*
X144586Y419899D01*
X144888Y420258D01*
X145200Y420610D01*
X145520Y420955D01*
X145848Y421291D01*
X146184Y421619D01*
X146529Y421939D01*
X146881Y422251D01*
X147240Y422553D01*
X147607Y422847D01*
X147981Y423131D01*
X148362Y423407D01*
X148750Y423673D01*
X149144Y423929D01*
X149544Y424176D01*
X149950Y424412D01*
X150362Y424639D01*
X150779Y424855D01*
X151201Y425061D01*
X151629Y425257D01*
X152061Y425442D01*
X152497Y425617D01*
X152938Y425781D01*
X153382Y425933D01*
X153830Y426075D01*
X154281Y426206D01*
X154736Y426326D01*
X155193Y426435D01*
X155653Y426532D01*
X156115Y426618D01*
X156579Y426693D01*
X157045Y426756D01*
X157512Y426808D01*
X157980Y426848D01*
X158449Y426877D01*
X158919Y426894D01*
X159389Y426900D01*
X159859Y426894D01*
X160329Y426877D01*
X160798Y426848D01*
X161266Y426808D01*
X161733Y426756D01*
X162199Y426693D01*
X162663Y426618D01*
X163125Y426532D01*
X163585Y426435D01*
X164042Y426326D01*
X164497Y426206D01*
X164948Y426075D01*
X165396Y425933D01*
X165840Y425781D01*
X166281Y425617D01*
X166717Y425442D01*
X167149Y425257D01*
X167577Y425061D01*
X167999Y424855D01*
X168416Y424639D01*
X168828Y424412D01*
X169234Y424176D01*
X169634Y423929D01*
X170028Y423673D01*
X170416Y423407D01*
X170797Y423131D01*
X171171Y422847D01*
X171538Y422553D01*
X171897Y422251D01*
X172249Y421939D01*
X172594Y421619D01*
X172930Y421291D01*
X173258Y420955D01*
X173578Y420610D01*
X173890Y420258D01*
X174192Y419899D01*
X174486Y419532D01*
X174770Y419158D01*
X175046Y418777D01*
X175312Y418389D01*
X175568Y417995D01*
X175815Y417595D01*
X176051Y417189D01*
X176278Y416777D01*
X176494Y416360D01*
X176700Y415938D01*
X176896Y415510D01*
X177081Y415078D01*
X177256Y414642D01*
X177420Y414201D01*
X177572Y413757D01*
X177714Y413309D01*
X177845Y412858D01*
X177965Y412403D01*
X178074Y411946D01*
X178171Y411486D01*
X178257Y411024D01*
X178332Y410560D01*
X178395Y410094D01*
X178447Y409627D01*
X178487Y409159D01*
X178516Y408690D01*
X178533Y408220D01*
X178539Y407750D01*
X178533Y407280D01*
X178516Y406810D01*
X178487Y406341D01*
X178447Y405873D01*
X178395Y405406D01*
X178332Y404940D01*
X178257Y404476D01*
X178171Y404014D01*
X178074Y403554D01*
X177965Y403097D01*
X177845Y402642D01*
X177714Y402191D01*
X177572Y401743D01*
X177420Y401299D01*
X177256Y400858D01*
X177081Y400422D01*
X176896Y399990D01*
X176700Y399562D01*
X176494Y399140D01*
X176278Y398723D01*
X176051Y398311D01*
X175815Y397905D01*
X175568Y397505D01*
X175312Y397111D01*
X175046Y396723D01*
X174770Y396342D01*
X174486Y395968D01*
X174192Y395601D01*
X173890Y395242D01*
X173578Y394890D01*
X173258Y394545D01*
X172930Y394209D01*
X172594Y393881D01*
X172249Y393561D01*
X171897Y393249D01*
X171538Y392947D01*
X171171Y392653D01*
X170797Y392369D01*
X170416Y392093D01*
X170028Y391827D01*
X169634Y391571D01*
X169234Y391324D01*
X168828Y391088D01*
X168416Y390861D01*
X167999Y390645D01*
X167577Y390439D01*
X167149Y390243D01*
X166717Y390058D01*
X166281Y389883D01*
X165840Y389719D01*
X165396Y389567D01*
X164948Y389425D01*
X164497Y389294D01*
X164042Y389174D01*
X163585Y389065D01*
X163125Y388968D01*
X162663Y388882D01*
X162199Y388807D01*
X161733Y388744D01*
X161266Y388692D01*
X160798Y388652D01*
X160329Y388623D01*
X159859Y388606D01*
X159389Y388600D01*
X158919Y388606D01*
X158449Y388623D01*
X157980Y388652D01*
X157512Y388692D01*
X157045Y388744D01*
X156579Y388807D01*
X156115Y388882D01*
X155653Y388968D01*
X155193Y389065D01*
X154736Y389174D01*
X154281Y389294D01*
X153830Y389425D01*
X153382Y389567D01*
X152938Y389719D01*
X152497Y389883D01*
X152061Y390058D01*
X151629Y390243D01*
X151201Y390439D01*
X150779Y390645D01*
X150362Y390861D01*
X149950Y391088D01*
X149544Y391324D01*
X149144Y391571D01*
X148750Y391827D01*
X148362Y392093D01*
X147981Y392369D01*
X147607Y392653D01*
X147240Y392947D01*
X146881Y393249D01*
X146529Y393561D01*
X146184Y393881D01*
X145848Y394209D01*
X145520Y394545D01*
X145200Y394890D01*
X144888Y395242D01*
X144586Y395601D01*
X144292Y395968D01*
X144008Y396342D01*
X143732Y396723D01*
X143466Y397111D01*
X143210Y397505D01*
X142963Y397905D01*
X142727Y398311D01*
X142500Y398723D01*
X142284Y399140D01*
X142078Y399562D01*
X141882Y399990D01*
X141697Y400422D01*
X141522Y400858D01*
X141358Y401299D01*
X141206Y401743D01*
X141064Y402191D01*
X140933Y402642D01*
X140813Y403097D01*
X140704Y403554D01*
X140607Y404014D01*
X140521Y404476D01*
X140446Y404940D01*
X140383Y405406D01*
X140331Y405873D01*
X140291Y406341D01*
X140262Y406810D01*
X140245Y407280D01*
X140239Y407750D01*
X191039Y407750D02*
X191045Y408220D01*
X191062Y408690D01*
X191091Y409159D01*
X191131Y409627D01*
X191183Y410094D01*
X191246Y410560D01*
X191321Y411024D01*
X191407Y411486D01*
X191504Y411946D01*
X191613Y412403D01*
X191733Y412858D01*
X191864Y413309D01*
X192006Y413757D01*
X192158Y414201D01*
X192322Y414642D01*
X192497Y415078D01*
X192682Y415510D01*
X192878Y415938D01*
X193084Y416360D01*
X193300Y416777D01*
X193527Y417189D01*
X193763Y417595D01*
X194010Y417995D01*
X194266Y418389D01*
X194532Y418777D01*
X194808Y419158D01*
X195092Y419532D01*
X195386Y419899D01*
X195688Y420258D01*
X196000Y420610D01*
X196320Y420955D01*
X196648Y421291D01*
X196984Y421619D01*
X197329Y421939D01*
X197681Y422251D01*
X198040Y422553D01*
X198407Y422847D01*
X198781Y423131D01*
X199162Y423407D01*
X199550Y423673D01*
X199944Y423929D01*
X200344Y424176D01*
X200750Y424412D01*
X201162Y424639D01*
X201579Y424855D01*
X202001Y425061D01*
X202429Y425257D01*
X202861Y425442D01*
X203297Y425617D01*
X203738Y425781D01*
X204182Y425933D01*
X204630Y426075D01*
X205081Y426206D01*
X205536Y426326D01*
X205993Y426435D01*
X206453Y426532D01*
X206915Y426618D01*
X207379Y426693D01*
X207845Y426756D01*
X208312Y426808D01*
X208780Y426848D01*
X209249Y426877D01*
X209719Y426894D01*
X210189Y426900D01*
X210659Y426894D01*
X211129Y426877D01*
X211598Y426848D01*
X212066Y426808D01*
X212533Y426756D01*
X212999Y426693D01*
X213463Y426618D01*
X213925Y426532D01*
X214385Y426435D01*
X214842Y426326D01*
X215297Y426206D01*
X215748Y426075D01*
X216196Y425933D01*
X216640Y425781D01*
X217081Y425617D01*
X217517Y425442D01*
X217949Y425257D01*
X218377Y425061D01*
X218799Y424855D01*
X219216Y424639D01*
X219628Y424412D01*
X220034Y424176D01*
X220434Y423929D01*
X220828Y423673D01*
X221216Y423407D01*
X221597Y423131D01*
X221971Y422847D01*
X222338Y422553D01*
X222697Y422251D01*
X223049Y421939D01*
X223394Y421619D01*
X223730Y421291D01*
X224058Y420955D01*
X224378Y420610D01*
X224690Y420258D01*
X224992Y419899D01*
X225286Y419532D01*
X225570Y419158D01*
X225846Y418777D01*
X226112Y418389D01*
X226368Y417995D01*
X226615Y417595D01*
X226851Y417189D01*
X227078Y416777D01*
X227294Y416360D01*
X227500Y415938D01*
X227696Y415510D01*
X227881Y415078D01*
X228056Y414642D01*
X228220Y414201D01*
X228372Y413757D01*
X228514Y413309D01*
X228645Y412858D01*
X228765Y412403D01*
X228874Y411946D01*
X228971Y411486D01*
X229057Y411024D01*
X229132Y410560D01*
X229195Y410094D01*
X229247Y409627D01*
X229287Y409159D01*
X229316Y408690D01*
X229333Y408220D01*
X229339Y407750D01*
X229333Y407280D01*
X229316Y406810D01*
X229287Y406341D01*
X229247Y405873D01*
X229195Y405406D01*
X229132Y404940D01*
X229057Y404476D01*
X228971Y404014D01*
X228874Y403554D01*
X228765Y403097D01*
X228645Y402642D01*
X228514Y402191D01*
X228372Y401743D01*
X228220Y401299D01*
X228056Y400858D01*
X227881Y400422D01*
X227696Y399990D01*
X227500Y399562D01*
X227294Y399140D01*
X227078Y398723D01*
X226851Y398311D01*
X226615Y397905D01*
X226368Y397505D01*
X226112Y397111D01*
X225846Y396723D01*
X225570Y396342D01*
X225286Y395968D01*
X224992Y395601D01*
X224690Y395242D01*
X224378Y394890D01*
X224058Y394545D01*
X223730Y394209D01*
X223394Y393881D01*
X223049Y393561D01*
X222697Y393249D01*
X222338Y392947D01*
X221971Y392653D01*
X221597Y392369D01*
X221216Y392093D01*
X220828Y391827D01*
X220434Y391571D01*
X220034Y391324D01*
X219628Y391088D01*
X219216Y390861D01*
X218799Y390645D01*
X218377Y390439D01*
X217949Y390243D01*
X217517Y390058D01*
X217081Y389883D01*
X216640Y389719D01*
X216196Y389567D01*
X215748Y389425D01*
X215297Y389294D01*
X214842Y389174D01*
X214385Y389065D01*
X213925Y388968D01*
X213463Y388882D01*
X212999Y388807D01*
X212533Y388744D01*
X212066Y388692D01*
X211598Y388652D01*
X211129Y388623D01*
X210659Y388606D01*
X210189Y388600D01*
X209719Y388606D01*
X209249Y388623D01*
X208780Y388652D01*
X208312Y388692D01*
X207845Y388744D01*
X207379Y388807D01*
X206915Y388882D01*
X206453Y388968D01*
X205993Y389065D01*
X205536Y389174D01*
X205081Y389294D01*
X204630Y389425D01*
X204182Y389567D01*
X203738Y389719D01*
X203297Y389883D01*
X202861Y390058D01*
X202429Y390243D01*
X202001Y390439D01*
X201579Y390645D01*
X201162Y390861D01*
X200750Y391088D01*
X200344Y391324D01*
X199944Y391571D01*
X199550Y391827D01*
X199162Y392093D01*
X198781Y392369D01*
X198407Y392653D01*
X198040Y392947D01*
X197681Y393249D01*
X197329Y393561D01*
X196984Y393881D01*
X196648Y394209D01*
X196320Y394545D01*
X196000Y394890D01*
X195688Y395242D01*
X195386Y395601D01*
X195092Y395968D01*
X194808Y396342D01*
X194532Y396723D01*
X194266Y397111D01*
X194010Y397505D01*
X193763Y397905D01*
X193527Y398311D01*
X193300Y398723D01*
X193084Y399140D01*
X192878Y399562D01*
X192682Y399990D01*
X192497Y400422D01*
X192322Y400858D01*
X192158Y401299D01*
X192006Y401743D01*
X191864Y402191D01*
X191733Y402642D01*
X191613Y403097D01*
X191504Y403554D01*
X191407Y404014D01*
X191321Y404476D01*
X191246Y404940D01*
X191183Y405406D01*
X191131Y405873D01*
X191091Y406341D01*
X191062Y406810D01*
X191045Y407280D01*
X191039Y407750D01*
D12*
X193890Y122500D02*
X196430Y122500D01*
X193890Y122500D02*
X193890Y135200D01*
X187540Y135200D01*
X187540Y109800D01*
X193890Y109800D01*
X193890Y122500D01*
X178650Y122500D02*
X173570Y122500D01*
X229450Y122500D02*
X242150Y122500D01*
X235800Y128850D02*
X235800Y116150D01*
D13*
X179285Y122500D03*
D14*
X115000Y162500D02*
X255000Y162500D01*
X115000Y162500D02*
X115000Y362500D01*
X255000Y362500D01*
X255000Y162500D01*
D10*
X191345Y213879D02*
X191345Y217209D01*
X191345Y213879D02*
X191343Y213765D01*
X191337Y213652D01*
X191328Y213538D01*
X191314Y213426D01*
X191297Y213313D01*
X191275Y213201D01*
X191250Y213091D01*
X191222Y212981D01*
X191189Y212872D01*
X191153Y212764D01*
X191113Y212657D01*
X191069Y212552D01*
X191022Y212449D01*
X190972Y212347D01*
X190918Y212247D01*
X190860Y212149D01*
X190799Y212053D01*
X190736Y211959D01*
X190668Y211867D01*
X190598Y211777D01*
X190525Y211691D01*
X190449Y211606D01*
X190370Y211524D01*
X190288Y211445D01*
X190204Y211369D01*
X190117Y211296D01*
X190027Y211226D01*
X189935Y211159D01*
X189841Y211095D01*
X189745Y211034D01*
X189647Y210976D01*
X189547Y210922D01*
X189445Y210872D01*
X189342Y210825D01*
X189237Y210781D01*
X189130Y210741D01*
X189022Y210705D01*
X188913Y210672D01*
X188803Y210644D01*
X188693Y210619D01*
X188581Y210597D01*
X188468Y210580D01*
X188356Y210566D01*
X188242Y210557D01*
X188129Y210551D01*
X188015Y210549D01*
X188015Y210548D02*
X179689Y210548D01*
X179689Y210549D02*
X179575Y210551D01*
X179462Y210557D01*
X179348Y210566D01*
X179236Y210580D01*
X179123Y210597D01*
X179011Y210619D01*
X178901Y210644D01*
X178791Y210672D01*
X178682Y210705D01*
X178574Y210741D01*
X178467Y210781D01*
X178362Y210825D01*
X178259Y210872D01*
X178157Y210922D01*
X178057Y210976D01*
X177959Y211034D01*
X177863Y211095D01*
X177769Y211158D01*
X177677Y211226D01*
X177587Y211296D01*
X177501Y211369D01*
X177416Y211445D01*
X177334Y211524D01*
X177255Y211606D01*
X177179Y211690D01*
X177106Y211777D01*
X177036Y211867D01*
X176969Y211959D01*
X176905Y212053D01*
X176844Y212149D01*
X176786Y212247D01*
X176732Y212347D01*
X176682Y212449D01*
X176635Y212552D01*
X176591Y212657D01*
X176551Y212764D01*
X176515Y212872D01*
X176482Y212981D01*
X176454Y213091D01*
X176429Y213201D01*
X176407Y213313D01*
X176390Y213426D01*
X176376Y213538D01*
X176367Y213652D01*
X176361Y213765D01*
X176359Y213879D01*
X176359Y217209D01*
X179689Y223634D02*
X176359Y227797D01*
X191345Y227797D01*
X191345Y223634D02*
X191345Y231960D01*
D15*
X110000Y67700D02*
X97300Y67700D01*
X110000Y67700D02*
X122700Y67700D01*
X122700Y55000D01*
X110000Y42300D01*
X97300Y55000D01*
X97300Y67700D01*
X110000Y67700D02*
X110000Y55000D01*
M02*
